<mxfile host="app.diagrams.net" agent="Mozilla/5.0 (Windows NT 10.0; Win64; x64) AppleWebKit/537.36 (KHTML, like Gecko) Chrome/128.0.0.0 Safari/537.36" version="24.7.12">
  <diagram name="Page-1" id="2Dk0ynvCOVdfa8IIKggc">
    <mxGraphModel dx="976" dy="701" grid="1" gridSize="10" guides="1" tooltips="1" connect="1" arrows="1" fold="1" page="1" pageScale="1" pageWidth="850" pageHeight="1100" math="0" shadow="0">
      <root>
        <mxCell id="0" />
        <mxCell id="1" parent="0" />
        <mxCell id="Qq2jagZigyJOW5dJXsPS-12" value="&lt;div style=&quot;text-align: center&quot;&gt;&lt;br&gt;&lt;/div&gt;" style="verticalAlign=top;align=left;spacingTop=8;spacingLeft=2;spacingRight=12;shape=cube;size=10;direction=south;fontStyle=4;html=1;rounded=0;shadow=1;comic=0;labelBackgroundColor=none;strokeWidth=1;fontFamily=Verdana;fontSize=12;sketch=0;strokeColor=#666666;gradientDirection=east;gradientColor=#E6E6E6;fillColor=#FFFFFF;" parent="1" vertex="1">
          <mxGeometry x="35" y="574" width="765" height="516" as="geometry" />
        </mxCell>
        <mxCell id="Qq2jagZigyJOW5dJXsPS-54" value="" style="rounded=1;whiteSpace=wrap;html=1;shadow=0;strokeColor=#6c8ebf;strokeWidth=2;fillColor=#dae8fc;fontSize=18;glass=1;labelPosition=left;verticalLabelPosition=top;align=right;verticalAlign=bottom;spacing=-30;spacingLeft=0;spacingRight=-190;textOpacity=40;arcSize=4;" parent="1" vertex="1">
          <mxGeometry x="270" y="739" width="510" height="340" as="geometry" />
        </mxCell>
        <mxCell id="Qq2jagZigyJOW5dJXsPS-55" value="" style="rounded=0;whiteSpace=wrap;html=1;shadow=0;strokeColor=#d6b656;strokeWidth=1;fillColor=#fff2cc;fontSize=18;fontColor=#0E234F;glass=1;" parent="1" vertex="1">
          <mxGeometry x="130" y="22" width="580" height="260" as="geometry" />
        </mxCell>
        <mxCell id="Qq2jagZigyJOW5dJXsPS-3" value="&lt;b&gt;Windows PC; aka Host&lt;/b&gt;&lt;div&gt;IP (from router): 192.168.1.10&lt;/div&gt;&lt;div&gt;&lt;b&gt;&lt;font color=&quot;#006600&quot;&gt;localhost&lt;/font&gt;&lt;/b&gt; is part of 192.168.1.1&lt;/div&gt;" style="image;sketch=0;aspect=fixed;html=1;points=[];align=left;fontSize=12;image=img/lib/mscae/VirtualMachineWindows.svg;labelPosition=right;verticalLabelPosition=middle;verticalAlign=middle;spacingLeft=5;labelBackgroundColor=none;" parent="1" vertex="1">
          <mxGeometry x="50" y="590" width="50" height="46" as="geometry" />
        </mxCell>
        <mxCell id="Qq2jagZigyJOW5dJXsPS-4" value="&lt;b&gt;WSL, aka Client&lt;/b&gt;&lt;div&gt;IP (from Host): 172.20.1.10&lt;/div&gt;&lt;div&gt;Host&#39;s IP from WSL: 172.20.1.5&lt;/div&gt;&lt;div&gt;&lt;b style=&quot;&quot;&gt;&lt;font color=&quot;#000099&quot;&gt;localhost&lt;/font&gt;&lt;/b&gt;&lt;span style=&quot;&quot;&gt;&amp;nbsp;is part of 172.20.1.1&lt;/span&gt;&lt;br&gt;&lt;/div&gt;" style="image;sketch=0;aspect=fixed;html=1;points=[];align=left;fontSize=12;image=img/lib/mscae/VM_Linux.svg;labelPosition=right;verticalLabelPosition=middle;verticalAlign=middle;spacingLeft=5;labelBackgroundColor=none;" parent="1" vertex="1">
          <mxGeometry x="280" y="749" width="50" height="46" as="geometry" />
        </mxCell>
        <mxCell id="Qq2jagZigyJOW5dJXsPS-6" value="" style="sketch=0;pointerEvents=1;shadow=0;dashed=0;html=1;strokeColor=none;fillColor=#505050;labelPosition=center;verticalLabelPosition=bottom;verticalAlign=top;outlineConnect=0;align=center;shape=mxgraph.office.devices.router;" parent="1" vertex="1">
          <mxGeometry x="392.5" y="480" width="55" height="56" as="geometry" />
        </mxCell>
        <mxCell id="Qq2jagZigyJOW5dJXsPS-52" value="" style="edgeStyle=orthogonalEdgeStyle;rounded=0;orthogonalLoop=1;jettySize=auto;html=1;shape=flexArrow;strokeColor=#6c8ebf;fillColor=#dae8fc;startArrow=block;width=26.666666666666664;endSize=7.633333333333334;" parent="1" source="Qq2jagZigyJOW5dJXsPS-49" target="Qq2jagZigyJOW5dJXsPS-50" edge="1">
          <mxGeometry relative="1" as="geometry" />
        </mxCell>
        <mxCell id="Qq2jagZigyJOW5dJXsPS-7" value="" style="outlineConnect=0;dashed=0;verticalLabelPosition=bottom;verticalAlign=top;align=center;html=1;shape=mxgraph.aws3.internet_2;fillColor=#dae8fc;strokeColor=#6c8ebf;gradientColor=none;perimeterSpacing=0;strokeWidth=1;" parent="1" vertex="1">
          <mxGeometry x="380.25" y="338.2" width="79.5" height="54" as="geometry" />
        </mxCell>
        <mxCell id="Qq2jagZigyJOW5dJXsPS-38" value="AWS Infrastructure" style="dashed=0;outlineConnect=0;html=1;align=left;labelPosition=right;verticalLabelPosition=middle;verticalAlign=middle;shape=mxgraph.weblogos.aws;aspect=fixed;fontSize=20;" parent="1" vertex="1">
          <mxGeometry x="290.4" y="31.00000000000002" width="63.6" height="58.4" as="geometry" />
        </mxCell>
        <mxCell id="Qq2jagZigyJOW5dJXsPS-39" value="&lt;span style=&quot;font-size: 20px;&quot;&gt;&lt;font style=&quot;font-size: 20px;&quot;&gt;Teleport &amp;amp; Windows&lt;/font&gt;&lt;/span&gt;" style="text;html=1;strokeColor=none;fillColor=none;align=center;verticalAlign=middle;whiteSpace=wrap;rounded=0;fontSize=20;" parent="1" vertex="1">
          <mxGeometry x="269" y="2.000000000000014" width="290" height="20" as="geometry" />
        </mxCell>
        <mxCell id="Qq2jagZigyJOW5dJXsPS-49" value="" style="shape=image;verticalLabelPosition=bottom;verticalAlign=top;imageAspect=0;aspect=fixed;image=data:image/png,iVBORw0KGgoAAAANSUhEUgAAAgAAAAIACAYAAAD0eNT6AAAAAXNSR0IArs4c6QAAAERlWElmTU0AKgAAAAgAAYdpAAQAAAABAAAAGgAAAAAAA6ABAAMAAAABAAEAAKACAAQAAAABAAACAKADAAQAAAABAAACAAAAAAAL+LWFAABAAElEQVR4AeydCXwdVdn/z5m5SbrT0rKLrEWwtNkTCyhVEERRSdJLKwii8OKKCipuf7UivogKKIgLIiIKtL1NihsogtZXoORmLxSQIvsitKUtXZPcmfP/Tbql6U1yl1nOzPzu59Pm3plznuc532fmnGfOnEUKfkiABEJDIDn7hbGi79X9bKmmCktMFbbaVxhiqrLFVCnVvkrgu5L7SimmoFBlQqhSoWQpvuMfvkuJYzu+D/wdKHqfEBL/BP6pPqTvHfgu8X37cfxW63FsrcQ/yH9dGvgrxetSybXCxHfLfN0cs99rqeWHbh2QyP9IgAS0J4D7mR8SIAFdCCSr2/exlTxMKftwIezDhC0PE1Idhob4MKHUYWjg99fF1mx2SClX4/izCBieQyDxnDDwVxjPKWE+tw9+39pd6QQS/JAACWhAgAGABk6gCfEj0FjdfpCy1PFCiePR0B+PJ/PjcTO+RSm1T5RpIEDYgCDm3whmHkVg8KiQ4lFpykdbOmpeiXK5WTYS0JEAAwAdvUKbIkNgwQJlrPhDZ52wrSoUagb+odFXx6MR3DcyhXShIKiIXgeTlQgQEBiIR4VhdppHVbWlUtJyQTxFkAAJZCHAACALFB4igWIJzK/sPLhPZa5Eo/Z+NPjTipUXy/wS4wuE+FNClX491VPxUiwZsNAk4CEBBgAewqXoeBJoLG9tQMlv5lO+a/5fh1cFH1/aXZ9yTSIFkQAJ4LbihwRIwDUCc8vbT7OFfY8SynBNKAWhopK2MsX7lnbW/YU4SIAE3CHAAMAdjpRCAqKxvudNqre3i13+nl0M6xIJsyLVUfO8ZxoomARiRIBPKTFyNovqLQHVu+2zbPw9ZTzFtuxLPNVA4SQQIwIMAGLkbBbVOwLJpDLRTf1h7zRQskPAFuKCZHKls7ARPyRAAkUSYABQJEBmJ4EBAk+2V2MO/0Gk4TEBZ0bFU5uqPdZC8SQQCwIMAGLhZhbSawK2odgoeQ15h/yMMpw1FfghARIokgADgCIBMjsJOASUzQDArytBCrL2izX1RJsAA4Bo+5el842A5FOpb6wZAPiGmooiTYABQKTdy8L5QWDHoDRnmV9+fCCABZbeeskZq5xdDfkhARIoggADgCLgMSsJOATspzbNwsI/HJnu1+WgROK/L68v90sd9ZBAVAkwAIiqZ1ku/whwUJp/rHdo4qBL35FTYQQJMACIoFNZJH8J4OmfMwD8RY71lgTHXPjMnOqiR4ABQPR8yhL5T4CNkd/MlWDQ5Tdz6oscAQYAkXMpC+QngYur20vwNDrTT53UNUBgBlcE5JVAAsURYABQHD/mjjmBtVIdj1UAOCLd5+tgYNDlf7Yx8PKZO9VFiwADgGj5k6XxmYCy+C7aZ+S71Nm2zdcAu2jwCwnkT4ABQP7MmIMEdhNQHAC4G4a/35S0OfbCX+TUFjECDAAi5lAWx18CWJSGT6H+It+tTUmy302D30ggbwIMAPJGxgwksJ3AgjkqgXXp+R46oAvCGXzpDMIMSD3VkkDoCTAACL0LWYCgCDzyRudb0QiNDUo/9aqydZbNJZh5IZBAgQQYABQIjtlIQNkW30EHfBlYkq8BAnYB1YeYAAOAEDuPpgdMQHIAYMAewAxMxSAscCfQgLASYAAQVs/R7sAJKA5CC9wHCAA4EDB4L9CCkBJgABBSx9HsYAkkk8qEBdyRLlg3CCHFrB2+CNoS6ieB0BFgABA6l9FgHQjYT7Ydi6fPcTrYEmcbBgZhPt3x1jgzYNlJoFACDAAKJcd8sSZgGxx8pssFYFlcEVAXX9COcBFgABAuf9FaXQhw8JkunsBrAI4D0McZtCRMBBgAhMlbtFUfAhx8ppEvJGcC6OMNWhIiAgwAQuQsmqoHgQULlCGFqNDDGlohlCh3fEISJEAC+RHgTZMfL6YmAfHIHzuOwR4AE4hCDwLYGnj8yt93HauHNbSCBMJDgAFAeHxFSzUhYHPQmSae2G2GJSyuB7AbB7+RQE4EGADkhImJSGAQAcV3zoNoaPFVcUyGFn6gEeEiwAAgXP6itToQ4KhzHbywpw2clbEnD/4igRwIMADIARKTkMBOAnjSxPg/VbnzN/9qQ6CCAwG18QUNCQkBBgAhcRTN1IPA3MruozHqfJIe1tCKQQQmOoMzB/3mVxIggVEIMAAYBRBPk8BgArbMcLDZYCAafVcWt2fWyB00JQQEGACEwEk0USMCyuaiMxq5Y7ApShkMzgYD4XcSGIUAA4BRAPE0CQwmIJVgIzMYiE7fpWJwppM/aIv2BBgAaO8iGqgTASU5BVAnfwy2BaMzK7cP0hx8lN9JgASGI8AAYDgyPE4CQwg01bYdiS2AJw85zJ+aEEDjv8/AIE1N7KEZJKA7AQYAunuI9mlDwO7ntrPaOGMYQ5TRz9cAw7DhYRIYSoABwFAi/E0CwxAwJAeZDYNGm8PK5tbA2jiDhmhPgAGA9i6igboQQBczny51ccYwdnCQ5jBgeJgEshBgAJAFCg+RQDYC2AGQAUA2MBodg4+4SqNG/qApehNgAKC3f2idJgQaKzsPwwDAqZqYQzOGJzBlYLDm8Od5hgRIYAcBBgC8FEggBwIGVwDMgZIeSVSGPTV6eIJW6E6AAYDuHqJ9WhCwObhMCz/kYgQHAuZCiWlIQAgGALwKSCAXAooLAOWCSYc0UnK1Rh38QBv0J8AAQH8f0UIdCLBR0cELOdnAwZo5YWIiEmAPAK8BEhiNwPza9KGYArjfaOl4XhMCGKw5MGhTE3NoBgnoSoA9ALp6hnZpQyDTz+5/bZyRoyEctJkjKCaLNQEGALF2PwufCwFbcXW5XDjplMayGbTp5A/aoicBBgB6+oVW6USA28zq5I2cbJEM2nLixETxJoAdNPkhARIYSmDBAmU8+of0e/Ek+SksL3u6EorB8lBIGv+WQtpKqj9i/4afLOmsuV9KeJEfEiCBPQgwANgDB3/EncAFFV2TN8q+jylbfhqN/pFx5xGF8iMYeAL/btxnwsTf3PLgsRujUCaWgQTcIMAAwA2KlBF6AsnKzrdmbOsSKdR5aPjHh75ALEA2AhsNKW9LGOaNizqrH8+WgMdIIE4EGADEydss6x4EBrr572p/v6XUJUKoU/Y4yR8RJyDvd14PGNOr/5hKSSvihWXxSCArAQYAWbHwYJQJnHPSiilbN227EI3+p4USh0e5rCzbyAQwNuB5IcX10wzjZzd11GwZOTXPkkC0CDAACJE/k8mVpcbTWw/ts40JiaPLHk+lZvSFyPzATU1Wt+9jWdalGA12KRr+SYEbRAN0IvAqXg9cNXHyfr+4ddkR23QyTHdbLjljVdlLr22YUSLEhn2EeIWBlO4e220fA4DdLLT91lDV8S5pWV9Cw3U6nloHfIZBTWj8VZcwZEqIxJKWrqrntC1AwIadd1rP+M2v9X4Wq/l9CaZMCdgcqteYAPYReEkI+b/m9PE3M8Ae3lEIpt9s29ZcpeQHlRL1qIvKtqfGbAsp/oJg6trmrtr7hpfAMzoQYACggxeGscF54ree3HQzGv7zhkmy+7CUyxEULC4tUc0L2+pe2H0ivt8umPPMmA3r1nxSCvsrYLh/fEmw5PkScF4NoHK8cubk2l8vWCYz+eaPYvrG+p43yd7eJluIeUKp2aOVEQxvnWYaF6NHoH+0tDwfDAEGAMFwH1Vrcs7KCZn1m/+IG23OqIn3SCAVnmIegmNThipdkuqpwBNNvD4DgdOqzReh0f86+B0cr9KztG4SQFD9NJYQuMKYXve7OA4WnF/ZeXCvyMwVtkqiZ+TEnT2QuTJGPfT38QeM+cBv7y3fnGsepvOPAAMA/1jnrCmZVKa1Kv0HdK29N+dMWRM6i5+oB6QhUsIwl7R01LySNVlEDi6YoxKPbGg/Xyn7m2B3WESKxWJoQUA+iZWgvtHcU7dYC3M8NCJZmz7Q7pNzsZBSEvfR2/Nt9Pc2Tf6pvKH2gwsWSHQe8KMTAQYAOnljhy2NFekb8b76U26ahicZrIwm/mVIsai0dGzLna0zX3VTftCy5lamT7FscSMqq7cEbQv1R5eA80QrE+anmztqnohSKRtO6Nnf2LqtEZXEfDw2vN3tlS+lMG5o6an9bJSYRaEsDAA082JTZetlti2u8dIsJxhAQ7lMCGOxaZgtqa6q1V7q81L2h+ofOaC3d+s1CJjO9VIPZZPATgK4f/ow0O0avN++Mswj3rH41X62shqw2dXZeM0xB0/75s4yevEXAwM/39xd92MvZFNmYQQYABTGzZNcjeWtDXjPtsTt6HskYzFeAIugyH8gIFhUZpp33dlRs2ak9LqcQ4Mv51alP44nlqvwnn+yLnbRjvgQwL3znCGMzy3prv19WEp9fl3r1E19wqlnzsY9/y6vG/3BXJwHDwQBjWHiNdj+KH5nAKCJV5PlbXWWtJfhhhwbmElSZDCE8H5pyMXGmHF3pZbPeD0wW0ZQ3FDZWS7t/l9ggAOmH/FDAkETkH9KlJV9NpUufyZoS7LpH1j4auO2s1DZn433+qdiDYxEtnS+HJNyiyHVyc1d9e2+6KOSEQkwABgRjz8n51d0Hd6r+h6GtgP80Ti6Fkzh6UcDex8ukMWTRMldt3ZXrh89l7cpBmZGrNvybSntz/n55OJtqSg9CgTQG7AV98p3jekTfqDD+gEDm1qJvg/iHsaTvnw3esywTo8eH/QE/NdMGPWpjprn9bAovlYwAAjY987qdBnLeghR+VsDNmVY9c47T1Qk9yJyX2LgNQFu3A3DJvbohPN6BCuM/Bjdlod6pIJiScAFAvLJRMK4EPfIAy4Iy0vEufWrJm3pW3+WM2UPFftpeJVYmpcAHxOjTnl07JgpJ97eOv0NH9VS1RACDACGAPHzp/Meu6mi7fe4Ud/vp97idMleXDT3YkbBoinjJ/3B6+1VByq13nW/xHt+PMnwQwL6E3DG1eDW/m7imNorvF474GMnPjFx/eYNqD/kPPSKOSuF7liRLxSc7mruqmtEbyOeL/gJggADgCCo79DZVNH6dVuJKwM0oSjVuHi2Oct+SmksNvYZ98fUshmbihI4JHOyqqMaW/QuQuN/1JBT/EkC2hNAw/ZQqSg5d2F35bNuGjvwKmzDljOlExQrdQZazzFuyvdTlmHIryII+J6fOqlrNwEGALtZ+Pptbnn7abaw7/FzxL+XBXTegWKbgrtxQS0ed0DZn4td+auxsvUSYcsf6tyN6SVPyo4GAQQBG/Dvk1gX/85iSnRxdfu41Zb1PtxfTk/Y+wIdLFxMQYbkdXpLMDPg9CVddfcPOcWfPhBgAOAD5KEqGis7D1Mq04HoferQc5H4jZG+6Ir8s9MzYI458M+p5YduzbVczuClN0T/LXg9gqlK/JBANAigobtt8vh9PpPPK7Pk7BfG2tv++15nnj4onIn6Ylw0aAwphZRrykpEFfcwGcLFh58MAHyAPFjFwNaZr6x7AA1czeDjUf2OwT7OGuB/QkCwaNKU/e8ZaavVpur2etuyFmJA5OFR5cFyxZiAlP9JKHlOqqc2PRwFZwOrN9a9dsb2efri/egBGz9c2kgdlzKdmD7+7TrMoIgU11EKwwBgFEBun8Yyv79E43+R23LDIA8X2yYh5R8M7Fp40EGT/3LDPdN7HbvBQzZVtV2Ghv8qfNdmulIYmNLGkBFw1toQ8puzzqq9eufa+AMPBf9dfzpuhLNx/X8AJZoYslK5Yi72LPlFS1f9J1wRRiE5EWAAkBMmdxI1VrZdqGz7ZnekhVyKFJj+I/+AgUwtmN73MYQBZ4a8RIGb74zDAMuXYcjawf9wfC3GZ2wE476Bf9LoFRLfLec3PqYsxXn8szGCHH+df1JNxHvmqaggpiEwm4rBnlMH/gp1cJgHnQ2UV4P/MC7gb2jwfwZTGjCj5oNgO0kDswI3AVw+2tJdd2vghsTEAAYAPjka8/1nZjJ2Gyrg0EzT8QkN1eRBADfs69jv+RE02I8LYT8rTfksxlo8W5ooe9aPDZ6c3pqz69oOsCzzcCGsw5SlDseT2xGw5zicm4miTMmjOExKAnsQwPW9DT0kNdh1ceUeJ/jDEwIMADzBuqfQgS6+l9e1433e8Xue4S8SGJ4AntyfwpPhcjT4KwxDPVKiSh5Z2FXlPOFr+0mWdx+SMftmGracaQs1C4bOxpMup3Fq6zH9DMN1v8KcPqGW4wG89w0DAO8ZC7z3vw5PR5/3QRVVhJaAxHgI1YbK7yFsMPOQlOZDYd6lcbAbBraa3dJ/gi2sE/B0dwJeLWAALHvCBjPi9z0J4Dq5pqWn7ot7HuUvtwkwAHCb6BB5TZVtp9q2uhcVHlkPYcOf8t/OQkqmlH+VYw5cls90yTCzc+a0r7UGtp99D3rFTse9cUyYy0PbvSCA1QFN89SlndV/90I6ZW4nwEbJwyshOXvlvpmtm/G+Vh3soRqKDgsBjACHqX+XymgRhvmXlq6q58Jiupd2Jut6jrD7e9+DnoFGBARz8Noj4aU+yg4HATROL46ZOHbWHQ/MWhcOi8NnJQMAD33WWJ5eggqtyUMVFK07gZ2NPhZFmlBi33Vbut4Zoc/PMAQ+VN0+rc+ysfGTSOLeeSeDgWFAxeWwlIuXdtfNi0tx/S4nAwCPiDeUpz+Krs1bPBJPsZoTwHSmduxx8itjzITFqeUzXtfcXC3NO7+udeqmPjkPQcCFCAaqtDSSRnlPwDA+srSr9jbvFcVPAwMAD3zeVNt2pN1nd0N0LBf08ABpKETiZkJDb9wuTePm5s7qFaEwOiRGJivSFZZUWEdDnAuTOdUwJH5zxUysGVImSsvd3lTJFdtCLoQBgAcObKhIL8N7/5M9EE2RGhJwnvbRZf2jNx00ZcnO1Q01NDMSJjlL5W5ct3oueF/KXoFIuDSnQqCh+ntLT/0pOSVmopwJMADIGVVuCbnaX26cwp4K05RsrJb3B8NIXLuks/pfYS9PGO1PVqZPtpRwlpA+E8GAEcYy0ObcCXCVwNxZ5ZqSAUCupHJI58x3Fpu3PYGk7KLMgVcYk+CG2SYMcXOJYf5oUUfNf8JYhqjZnKzqONqyrUsxi+BCjLvhSptRc/DO8ki5NiETx0VlfYydxQryLwMAF+lj1P+deBKZ76JIitKGgOyVhvplqSi5SvfV+LRB5rMhziqEluz7GnoELsJ9iD0N+IkaAfQC3I69Aj4ctXIFVR4GAC6Rn1vZdoZl23e7JI5itCEgew0pbjZU6VWpnoqXtDGLhgxLoLG+502it9cJBJzZAwwEhiUVzhOGKd7T3Fn/13Bar5fVDABc8Md5p/WM3/zatpXogjzMBXEUoQkBLMu7xDTNL6Q6ap7XxCSakQeB+RVdh/eJ/muxDHdDHtmYVHMCaLSemZYwj7+po2aL5qZqbx4Hzrjgok2v9l3Bxt8FkJqIwAC/JwzDeHdLd32Sjb8mTinADGfaGLqLG01hYrlh+WQBIphFQwKYAXLEWsv+toamhc4k9gAU6TIMQKq27EwrAgCzSFHMHjAB3AybhDS+M82U1+Hpoj9gc6jeRQLJ5MpS+6nNl2Edgf+H1wLjXRRNUQEQQO+cJRNGbXN7bVcA6iOjkgFAEa509kZvqkgvR0RaX4QYZtWAAJ76F5mi9At8z6+BMzw0wRkfoHq3XYvxAUkP1VC0HwSkXI5lgk/wQ1VUdTAAKMKzjRWt5+DJ//YiRDBr0ASkeEwq8zMtPTX/CNoU6vePwNzK9CmWUjcgEDjOP63U5DoBw/gQlgle6LrcmAjkGIACHZ2c/cJYvFe8qsDszBY8gY2GIb5QPrmunI1/8M7w24IlXXX372ea5YY0Lh949eO3AdTnCgGp7O85q0O6IiyGQtgDUKDTmypav24rcWWB2ZktQALO0r0lpjGfC/kE6ASNVA8sJGRZizA2gBsOaeSXXE3B/fw1DPbkw1iuwAalYwAwCEauX5O16QOtPrUK7/4n5JqH6XQgIOEyed1+CfkVDvLTwR/62OAMEsys2vx97OHxOX2soiU5Etg4Zsy46Xe2znw1x/RMtoNAgiTyJ4DG/0o2/vlzCzSHlGsMIT/S3F3LxZoCdYSeylOpGX2w7PNzq1rvs2x5KwKBqXpaSquyEJi4rXfrd3D84izneGgEAuwBGAFOtlMNlZ3l0s50oruQ4yeyAdLxmJTLymTiXC7hq6Nz9LNpx5LCd2CWzzv0s44WZSPgbM4lTbOS23BnozP8MTZiw7PJekbaWFmMjX9WNroddOYKG4b8VvlZtaew8dfNO/ra40wFNafXvgvXz7cHdn3U11RatoOAUycr27qGQPIjwB6APHhxvf88YAWcFBf2i4aZOIdb9QbsiJCr377lsLod030PCXlR4mG+Kc9Y2ln3l3gUtvhSsgcgD4aYN7wgj+RMGhQBKe6dUCYq2PgH5YDo6E111f2zzDQrMNL8vuiUKrolkRbr6Hy8ywAgR1rO0z8GBtXlmJzJAiKAbtvbML/7zNvS9WsDMoFqI0bgzo6aNdNM473OVrQRK1rkioPB2fUNVen3RK5gHhWIswByBGvb9rdyTMpkgRGQ38N84K8Gpp6KI0vAmTaKQYHnNVamX8bqgV+KbEEjUDD0Ajh1NV8D5OBL9gDkAMmJKJ3IMoekTBIAAWegliGMS5b2sPEPAH9sVKIHQC3trr9cGPJzHByor9tRV7+tqaoVO0DyMxoBBgCjEcJ5vlfKAVJASTDYb5s05NnNPbU/CcgEqo0ZgaVdddcrqeajZuiNWdFDU1xliQWhMTZAQxkAjAKfT/+jAArytJTrMdL/tOau2uYgzaDu+BFAT0AqYYjT0SuwIX6l17/ETi/A3PL20/S3NFgLGQCMwn/H+6RRUvG0/wTkC4YSJ3Gkv//kqXE7AWeGgErIkzDw9CUy0Y+AJe0F+lmll0UMAEbwhxNBOpHkCEl4KgACeP/6qBxTdkJzT93KANRTJQnsIrC0vfbR0hI5W2Bb6V0H+UUPAkrNbqhoe7cexuhpBQOAEfxiS/uLI5zmqUAIyCdNI/GultbyFwNRT6UkMITAwra6F8S4Me9ET8CqIaf4M3ACrMNHcgFXAhyGzryqjuP6rAyj+mH4BHHYWd3PTJgnpjpqng9CP3WSwEgE5ld0Hd4n+h7gqoEjUfL/XKmZeOuizurH/desv0b2AAzjo36V4bagw7AJ5LCUa0sw4I+NfyD0qTQHAgu7K581ZclpCFRfzyE5k/hEoM+yP+uTqtCpYQ9AFpedc9KKKVs3bXsRK/+Ny3Kah3wmgIt0k5DyXVjkp81n1VRHAnkTaKpur1cZ+35sUDM+78zM4D4BKbeMnTDmTXc8MGud+8LDLZE9AFn817up9yI2/lnABHJI9mJHv7PY+AcCn0oLINDcUdOqpGzAYNW+ArIzi9sE8CA3UKe7LTcC8hgADHFiMqlMRO6fGXKYPwMggEFVzna+5y7pqrs/APVUSQIFE1jaXfs3LBb0Ya4YWDBCVzM6dbpTt7sqNALCGAAMcaL9VPtZWPP7zUMO82cwBD7BRX6CAU+txRNwFgvCQkGfLF4SJRRLwKnTnbq9WDlRy88AYIhHsekPB/8NYRLETymNL7d0198chG7qJAG3CDR3196EIOBrbsmjnMIJsG7fmx0HAQ5i0lTVMcu2Mj2DDvFrMARuWdpTf2EwqqmVBNwn0FiR/jWeQi9wXzIl5kXAKKlY2lXFOn4HNPYADLp6bMv+yKCf/BoAAbz3X5EYdzDHYATAniq9I2COPehT2DzoEe80UHIuBAzVzzp+ECgGADtgbB8gYp87iA2/+k9goxSlc1PLD93qv2pqJAHvCDjXdKJEJqFho3daKHk0ArYS5yyYoxKjpYvLeQYAOzxtr2p39o8+IC6O17KcUlzY3F3J5VS1dA6NKpZAqr3239KU/1OsHOYvisABK9Z3OHU9PyDAAGDHZYD3c+fzigiOgBTGDc6o6eAsoGYS8J5AS2fdIkPKG73XRA3DEVDCZl2/Aw4DAIBIVrfvI4T64HAXDI97TEDKtHnMOG685DFmiteDgDF9/GWYGcBVLQNyh1TqAxdUdE0OSL1WahkAwB0Y/Hc2tv0do5VnYmKMs266lImzU6kZXDUtJj6PezGda71UlJwNDlyaNoCLwanrN4qMwz/2HwYAuARsdv8HdCNIJaR5fktX1XMBGUC1JBAIAWfjIMOUGJGOe4Af3wlgZUCw5yf2AUBTbduRuAxO4qUQCIGrW7pr/hyIZiolgYAJNHfW/VFK9YOAzYileoz5OiFZ1XF0LAs/qNCxDwBEv2gaxINf/SIgxWP7JYxv+qWOekhARwLm9AnfwH4BT+hoW9RtspU1N+plHK18sQ8AEAmeMhoknnefgLNG+k0dNf3uS6ZEEggPAWc8gGmIT4TH4uhYqpR4V3RKU1hJGABIUV8YOuYqlAAa/1tbuur+r9D8zEcCUSKQ6qr7p5DyN1EqUxjKgsEXtWGw00sbYx8ACMWVuby8wPaSLeXaMtP40l7HeYAEYkwgIRNfcmbExBiB70XHdMBNvivVTGHsAwAp1Mua+STS5mARlMvv7KhZE+lCsnAkkCeBVFfVaiHFl/PMxuTFEJDylWKyRyFv7AMAJeWSKDgyJGV4YElnza9DYivNJAFfCTR31f0Kr8ce9FVpnJVJsSjOxXfKHvsAIDF5/M/BgQtyeHwnoGLrN4T8BP5y3rPHrCk+nASce0Ml5CfQE5AJZwlCZfVG0zBuDpXFHhgb+wAgtWzGJlwI2AVQ9nrAlyJ3EEDldm1zT91KAiEBEhiewNL22kcxFuDa4VPwTLEEMO2yzzBFMtVRs6FYWWHPH/sAwHHgkq7ae4QpzsJe9NyG1osrWopnpxryCi9EUyYJRI3ANNP8Nuoiro7pgWO31/FqfnNn/V89EB86kQwAdrhsaWfdX9ALcDKeVGM/MMTtqxid/pdhzv8Wt+VSHglEkYBzr0hpfCGKZQuyTNvrdnlyS0/90iDt0Ek3epv4GUygsb7nTWJb7x+wVnTl4OP8XhgB3HRtLd11dYXlZi4SiC+Bxop0GxYqq4kvAfdKjm7/LjGm7AMtreUvuic1/JLYAzDEh84FMv6Asrej4WKUOIRNIT+x28/XC8nHPCQQdwKGMnjvuHAROHW5U6ez8d8bJnsA9mYycASRt5xb1X6VbducmzsMo1EPS/nPpd11c0ZNxwQkQAJZCaAX4J+oi96R9SQPjkrAMIyrMfX4qwgCOPsoC61ElmM8BAI7LpivNFS2PYb9gm8SQpURTH4E0O0W2BPM+XWtUzcmxpj5WczUJLA3gYmZbdZt6fq1e5/x/ohpGl/PZKx/ea8pahowq8uQFzd31d6GgX/8DEOAaIYBM/hwY0XbiQgAliIS32/wcX4fgYAU9y7trj99hBSenmooT2OHNfUWT5VQeEwIyH8v7ak7NqjCohfgXtQ97w5Kf9j04uFtNR7hGlq6a7mo0ijO4xiAUQA5p50LqVSU1OHC4jz2HHg5SUwpv59jUiYjARIYgQDqHd5LI/AZfAq9jo86dTUb/8FUhv/OAGB4NnucWdhd+ezk8ZNmozvp7j1O8MdeBHATdi7pqrt/rxM8QAIkkDcBdGPfNzCKPe+c8crg1M2TJ0w6wamr41XywkvLACAPdrc8eOxGc3rdBzBA4Md5ZItfUlPwiSV+XmeJPSSgDPYCjIQXvSQ/mnVW3fudOnqkdDy3JwEGAHvyGPVXKiUtjGz/vCGNj+Oi6x81Q8wSYFDJM+ZRtdxgKWZ+Z3G9JZA4uiaFPQKe9VZL+KQ7dTB2GL0Ya41cumCBtMNXgmAtZgBQIP/m7tqbhDJOR4PHPbwHMcQN+WMnSBp0iF9JgASKJODcU1IY7HkcxHGg7kUd3Nxd98tBh/k1DwIMAPKANTRpS0/NP6QsfRtGnD459FwcfzvrbJdNGHNbHMvOMpOA1wTGTCj7DRq9bV7rCYd8+W/TTNQ7dXA47NXTSgYARfqlubty1T6ypB5BAAe9CZG644FZ3Fq5yGuK2UkgG4Ed91Yq27k4HUMv432oc9+W6qx+Kk7l9qKsDABcoHprd+X68im17xHC+LkL4kIrwhDyF6E1noaTQBgISCPW9xga/5/Nmlx7hlPnhsFdutvIAMAlDy1YJjNLe2o/idWnPoeu8Ni9A3fm3y7prnvIJZwUQwIkkIWAM78djWDs1iNx6lRpiM9isN+nnLo2CxoeKoAAA4ACoI2UZWlX3fW4UN+HEbtvjJQuaueUITgQJ2pOZXm0JIBxALG61xDwbDCU+d6WrvobtHRIiI1iAOCB85o76/+akCWz8VT8tAfitRPpROdjSscu0s4wGkQCESRglIhFcelldOrQEsOcvaSn5t4IujLwIjEA8MgFqa6qx8oSBgYHishv5IGNE5fd2TrzVY9QUiwJkMAgAqm2uv8699ygQ5H8iif//5tQpuoWdVY/HskCalAoBgAeOuHOjpo1iWMmnIoL+VYP1QQuGjttLgzcCBpAAjEiEIN77pZppnFqULswxuVS4nbAHns6lZrRBxUfxY6CjwulrlJYPchjlb6KR3DTP2bCmGZflVIZCcScgDl2Qou1dfNPsUtgSZRQoMvfVlJ8Gaut/jBK5dK1LJFqjHSF7NiF0bvfxwyBBgzg2aSznfnbpu7l3P/8qTEHCRRDILV8BlYgVZF6L+7UjdIUZ7HxL+bKyC8vA4D8eBWVuqWr9g/KKDkJiwa9UJQgvTLfpZc5tIYEYkMgMvceehKfl2bixObOuj/GxnsaFJQBgM9OWNpV1TNmzNhaRLutPqv2RJ2pyu7xRDCFkgAJjEggMveelMvLysbWNXdWrxixwDzpOgEGAK4jHV2gM2J+0pT952CtgDtHT61vCkxF6kn1VLykr4W0jASiS8C593APhrrRxJP/7W86aMo7OYsomOuUgwCD4S5uXXaEs6nHOU2V6SdsWyzA+zx0CoTtI+8Om8W0lwSiRADTAXEPqlnhK5N0KrxvYmW/K0V3+KyPisXsAQjYk81ddVcIqeYhkt8asCl5qzdNgwFA3tSYgQTcI2CaZvjuQSm3SEOe3dKDxp+fQAkwAAgU/3blS7vrUwgA3oHusFc0MCc3E5yljo+sXp5bYqYiARLwgoA8qsrZf2OjF7I9kSnlywnDfAcGRC/xRD6F5kWAAUBeuLxL3NxV326qUgwOlJ3eaXFPMjrwlqdSMnabHrlHkJJIoHgCA/egFOEIxKXoKJOJWmzj21F8ySnBDQIMANyg6JIMZ1DPtITxdkwTbHFJpJdiHvBSOGWTAAnkRgA9h9rfi+jhXLKfab5jYVfVy7mViqn8IJDwQwl15E7gpo6aLVjda25TZdt38feruef0N6URgkrHXyLURgLBEDCU/JclVDDKc9CK9/1XNnfWfhOBir5G5lCOKCZhD4CGXnVuFIyO/Zo0jPPRG9Crm4mwr39fU6Z1s4v2kEAcCTj3onNP6ld22Ysn/3Nbuuq+wcZfP+84FjEA0NMvA1ZhoMxvTSnehekyr2llplKdTk+FVjbRGBKIKYGBexH3pGbFf1Wa5pyW7vo7NLOL5gwiwABgEAwdvy7prnvIkMbFOtmGaL5dJ3toCwnEnoCUWg2sk9K8sKWz+uHY+0VzAAwANHeQYx52EDxcLzNlqFcf04slrSGB4glg9lBP8VLckyCFfbB70ijJKwIMALwi66JcjJw5xkVxxYsy9apsii8QJZBAuAkow9AqKMeevseGm2g8rGcAEA4/T9fFTGe/7nFTSx7VxR7aQQIkIMT4aYlHnHtTFxZS2gwAdHHGCHYwABgBjjanlDpaG1uk+s9v7y3frI09NIQESEAM3JNSPa0NCvYAaOOKkQxhADASHQ3OJZMrSzEV8DANTBkwAZuPPKKLLbSDBEhgMAGt7s3DLzljVdlg6/hdPwIMAPTzyZ4WPbPlCAwC1MdP6AHY00D+IgES0IEA6omndLDDscGps15es/4QXeyhHdkJcCXA7Fy0OZqxDdxE2rzaE1gB8Blt4IxgSCJh1IvSseYISUJ9KrNl0w9QgI/pUAisU/Erc9yEy3WwxRMb+raGYs8L5960lT6L7al+cRD8oc9rCU8ujnALZQCgu/+Uvb9OJtpShCIASHXUbNCJm9u2NFakt2GpaLfFFiZPyt7U8hmvF5aZudwioNu9iVUAD3SrbJTjDQF9upa9KV/opRpKHaBTIRJGOHoAdGJGW0jADwLa3Zv2QA+AH0WnjgIJMAAoEJxf2fCMp1EAINX4CdOe86vs1EMCJJA7ge33pj4b7ihpO68A+NGYAAMAjZ3jmIZuXo0CAPXarcuO2KY5MppHArEksP3eVPrsG6J0eniJ5SUxaqEZAIyKKNgEWHd/SrAW7NYOW9bs/sVvJEACuhHQ6R5VUkzSjQ/t2ZMAA4A9eWj3C68AxuhiFGxhAKCLM2gHCWQhoNM9KpWcmMVEHtKIAAMAjZyRzRQplDYBAN4uMgDI5iQeIwFNCGh1j0rBAECT62I4MxgADEdGk+NKSG0CACHFWk2w0AwSIIFsBLS6RxUDgGw+0ugYAwCNnJHNFET0Gi2nqdgDkM1JPEYC2hDQ6B5VcoI2WGhIVgIMALJi0eegkvq8AhDCiPTiOvp4nZaQQKEE9LlHsRzw+EJLwXz+EGAA4A/ngrVgII0+rwCE6Cu4IMxIAiTgBwF97lEpudKsHx4vQgcDgCLg+ZEVU2m0CQCkVL1+lJk6SIAECiOg0z2KPSIYABTmRt9yMQDwDXXBirQZA4ABifo8XRSMkxlJILoEtLpHlYrsZlxRuYIYAGjuSQwC1KcHwGYPgOaXC82LOQGp1z3KHgDNr0cGAJo7SGg0CNDmKwDdrxbaF3MCOt2jeH3JAEDz65EBgOYOUkpq4yNDYYNPfkiABLQloNM9igHMtragaNgAAW0aF/ojOwE0uZnsZwI5WhqIViolARLIlYA29yimMHPjsFy9FlA6BgABgc9ZrVJWzmk9TqgMqc2ARI+LSvEkEEoCOt2jUkjOGtL8KmIAoLmDYJ42PQDYl0Cbpwv93UYLScB/Ajrdo0oJ9gD4fwnkpZEBQF64/E+M1+7aBAAYj8AeAP8vAWokgZwJ6HSPYk0CBgA5ey6YhAwAguGej1aNAgCbAUA+nmNaEvCZgFL63KMIRhgA+Oz/fNUxAMiXmM/pMex+i88qh1WHAYmThj3JEyRAAoET0OkehS0cAxD4FTGyAQwARuYT+FlsqLEpcCN2GSCn7frKLyRAAhoS0OceVYqvADS8QPYwiQHAHjj0+4GVADfqYhUG9TAA0MUZtIMEshDQ6R6Vkq8AsrhIq0MMALRyRxZjpNQmABBSTM1iIQ+RAAloQgDd7toE6ZwFoMlFMYIZDABGgKPJKW0CAIxH0KZy0cQ3NIMEdCOgTZCO+oJjAHS7OobYwwBgCBD9fiptAgC802MAoN8FQotIYDcBpfbb/SPob2p90BZQ/8gEGACMzCfws0qIVwM3YpcBcv8L5jyjze6Eu8ziFxIgAeHcm9gOWJ8AQOpUd/ECyUaAAUA2KjodU8Yr+pij5OZNaw7Txx5aQgIksJPA9nsTe/Bp8sEiZho9vGgCRTMzGABo5pCh5hiG+O/QY0H+ztjqiCD1UzcJkEB2ArrdmxiQyAAgu6u0OcoAQBtXZDcE0wA16gEQwlCCAUB2V/EoCQRKQLd707DZAxDoBZGDcgYAOUAKMokypVY9ALZiD0CQ1wN1k8CwBJQ4cthzAZyQCb0eXgJAoL1KBgCau8iYOPZFrUxU8iit7KExJEACAwQwYFibexNbAdviiHHP0DV6E2AAoLd/RGrZjE14l/aSLmZih69ZuthCO0iABAYTUDMH/wryu5Lq+VRqRl+QNlD36AQYAIzOKPAU2FXricCN2GmAkkeed1rP+J0/+ZcESCB4AgP3JO7N4C3ZbgF6AFbpYgvtGJ4AA4Dh2WhzxpBCmwAAmxMZW9b2H68NHBpCAiQgNq/JzHTuTY1QMADQyBnDmaLTBTOcjTyuUw+A4w1LldMpJEAC+hCQtq3Zqzn2AOhzdQxvCQOA4dnoc0aKp/UxxrGE4wD08getiTsBPP1rFZSj1/LfcfdJGMrPAEBzL82r6jgOa/DfoJOZsKdGJ3toCwnEnQBmAGh1T1qos5qq24+Nu190Lz8DAI091FTVenq/bS1HdH+kVmZKWXVxdfs4rWyiMSQQUwLOvYj1fyu1Kr5SRynLfnhueftpWtlFY/YgwABgDxz6/Ggqb/uMssWf8bS9jz5WbbcENpW8bqk63eyiPSQQRwJrMqLeuSd1K7tTd9nSuruxIv0p3WyjPdsJMADQ7EpYMEclcMP81Bb2DUoJUzPzdpmDFQFP2vWDX0iABIIjYNja3otOHYZA4MamivRPkkmlbX0WnPOC1cwAIFj+e2i/oKJr8or1bffghvnkHif0/KFtpaMnLlpFAt4QQH2h/b2IB4ZPZ1al705Wt2vXo+mNV8IhlQGAJn5KVnUcvUH1P4yb+VRNTBrRDKz0NZsR/YiIeJIEPCcwcA8qMdtzRW4oUOI0K2M/7NR1boijjOIJMAAonmHREuZWtM2xrEwrpte9pWhhfglQYpJ4uiMcFY9fTKiHBHwmoP7TeQJUTvRZbcHqMKD52IxtPZysTJ9csBBmdI0AAwDXUBYmqLGi9SJbqHsxjWffwiQEl8uy7PcGp52aSYAELMsK3z2o1FRLib81VrZdSA8GS4ABQED8FyxQRkN52zUYJPNLdPtrN4I3NywqfJVPbgVjKhIIBQFszhXKe9Cp85Rt34zBgT9w6sJQwI6gkQQfgFM/duITE3uWtv1eCPuyANS7phLBS3myvPsQ1wRSEAmQQM4EnHsP96BmSwDnbP5AQgwO/KJTFybnrJyQX06mdoMAAwA3KOYho7Gy87B1m954EO/7z8wjm7ZJLdl7hrbG0TASiDCB6Nx76szMus0POXVjhN2lZdEYAPjolmRl62xh96fR+Guzb7cLxT/LBRkUQQIkkD+BCN17qBNRNw7UkflzYI4CCTAAKBBcvtkaKtLnZmz5Dwz22z/fvHqnl6edc9KKKXrbSOtIIFoEkrNXYtCwjNQyu07d6NSRTl0ZLW/pWxoGAB77BoNdZENF25VCqd/hyb/MY3W+i3cG82zbtLXJd8VUSAIxJmBt3dQY3sHDIzkOdSTqysbK9HecunOklDxXPAEGAMUzHFaCs0lHU0VbSij768MmisAJ3KfzI1AMFoEEQkMg6vecstX/a6pML+amY95ekgwAPOI7v7Lz4NWW9X9Y+CLyT8eYijTnQ/WPHOARSoolARIYRCBZmz7QuecGHYrkV8xwmOvUoU5dGskCalAoBgAeOAFLXVb3qkybUKLaA/HaicSNam7r2zpPO8NoEAlEkIDdL+Y591wEi7Z3kVCHOnWpU6fufZJHiiXAAKBYgkPyN1W2NWGpy//De6xYRa3SFv8zBAV/kgAJeEAAg+Xida+hLnXqVKdu9QBnrEUyAHDR/U0VrV+3bYV3/mqci2JDIQqvOo6fW5F21iXnhwRIwCMCjRVtJ2Jw3AyPxOsrFnWqU7c6day+RobPMgYALvjskjNWlTVWpH9nK3ElRvrHduQq9jT4uAs4KYIESGA4AsqO8T2mpFPHOnWtU+cOh4jHcyfAACB3VllTNpzQs/+Lr6z7B6Jyzl0VIsk1AbJeJjxIAkUT2HFvJYsWFHIBTl3r1LlO3RvyogRuPgOAIlyQrG6fKbdsS6PLn9vigiMGJo3t3bTt/CKQMisJkMAwBLZt6v0I3v+PGeZ0vA6jznXqXqcOjlfB3S0tA4ACec6taj0zk7EeRKN3WIEiIpkN0fnnkkkVjxHKkfQgC6UjAeeeUsL+nI62BWWTU/daGeshpy4Oyoaw62UAUIAHmypbL7Mtid38xMQCskc6C55Qjsg81R77bspIO5mF852A/VT72ZhWfLjvijVXiPpmglMXY+XAL2huqpbmJbS0SlOjsCpVyRrL/ilGo16EDm9NrQzeLIzU+RKsWBi8JbSABKJBACvjOfcUP1kIYAaSIWzxw8by1uOmJcxP3tRR058lGQ9lIcAegCxQsh1yNt9Ybdn3oosbjT8/IxHADVk1tzJ9ykhpeI4ESCA3Apj/firuqcrcUsc3FR7JLkQd/bfz61qnxpdCfiVnAJADr2RN21uw+UYrRrnNySE5k4CApdTlBEECJFA8ATx08F7KFaNSJ2/sk61N1e3H5polzukYAIzifSf6zmTUwxhwcvQoSXl6MAElTnMWLRl8iN9JgATyI4BR7ichAHh3frlinlqpo5RlP4xdWMltlEuBAcAIgLAb1SdtZd+DJ//JIyTjqWEIoNvyu8Oc4mESIIEcCFiWzXsoB05DkyBo2kcK+x4EAZ8eeo6/dxNgALCbxa5vzpSbxvK26zHY76cY68eBkrvI5PkF3XGMwvNkxuQksIPA3PL209CQvYNACiOAXlsTW7H/pKki/RNOTc7OkAHAEC7octvHerLtz5hze8mQU/xZAAHJXoACqDELCQhhSz79u3Ed2Ep9OrMqfbdTt7shL0oyGAAM8mZTbduRGctajq7r0wcd5tciCOAJphbTcxqKEMGsJBA7As7Od7h3amJXcK8KjDFJVsZ+eF51+1FeqQijXAYAO7zmDFiz+xVG+ovjwuhIrW2W4jqsoRC7HRK19gmN05aAc68oZV+jrYEhNQwPdsf2WXYrNhOqDWkRXDebAQCQJqs6qtHlfzcG+01znTAFOnsEHLbWVt8kChIggdEJrLasBc49M3pKpsibgFLOGgF/wzTB+rzzRjBD7AOAC+Y8M8ayrD/hyX9SBP2rTZHQnXlZU3k6fvuYa+MBGhIGAg01bcfDzkvDYGtYbURdtI/K2Hc5dX9Yy+CW3bEPADauX30euoYOdAso5WQngJuuxBbq5/grs6fgURKINwHn3pAZ9XPOPPL+OnDq/I0bXrvAe016a4h9AIARoty+1r9r9KSmqvaP+aeOmkggPASw7siFCAK4eJZPLkO89WGfVGmrJvYBAB5HD9HWOxE0DBXc1R+qbudYiwj6lkUqnECysnM/PPlfXbgE5syXAHoBYl/3xz4AQKfblHwvHKYvggAG4fRa9g+KkMCsJBA5Apbq/yE2s9k3cgXTu0Cx5x37AADXZ4/e12j0rEMvwAXYv5srnEXPtSxRAQTmVrTNwah/voosgF1xWWRXcfnDnzv2AYCU4v7wuzF8JUAQ8DPMdy4Jn+W0mATcI5BMrizFOKSfuSeRknIlIIX8R65po5ou9gGAMuXSqDpX63Ip8dbVGfsKrW2kcSTgMQFr1abvOAvUeKyG4rMQkIYR+7o/9gHA0vbaRxEJdma5PnjIewJfbqxof5/3aqiBBPQj0FSVfj9Gon9JP8uibxF6fnuaO6tXRL+kI5eQO92BDy6G2/AOrmpkVDzrPgGsCaCs2xorO6tauqqec19+dCVOmrzfFzZvXPs1HUo4fuLUXh3sCJMN8yu6Du+1+n4Dm7kuRgCOU8pw2Mf+w4sPl0DDCT37iy3bXuICHAHdD1KmE9PHvz2VmtEXkAVUSwK+EXDe+1urNj+AcTBck9436rsV4YHPKisbd8idrTNf3X00nt9i/wrAcfvSh8pfE0r+JZ6XgAalVqrOenLLDzWwhCaQgOcE7FWbr2Xj7znmkRT8lY3/djwMAHZcJtKQ7BIa6Zbx+Bw2Y7qkoaI16bEaiieBQAk0VqXnOfvTB2pE3JUb8ra4I9hZfgYAO0gccuDkP2IwwPqdYPg3AAJK/Kqpomt6AJqpkgQ8J5CsaXuLstQvPVdEBcMSkFJumDRpv98PmyBmJxgA7HD4DfdM75VSLYqZ/3Ur7kQl+pYkZ78wVjfDaA8JFEPAuaYz/SoFGROLkcO8xRHAaouLb112xLbipEQnNwOAQb40heBrgEE8gviK2RizMlte/kkQuqmTBLwiYG195adCqJleyafc3Ahgyjfr+EGoGAAMgpHqql+OCyT2y0MOQhLU1481VrRdHpRy6iUBNwk0VqS/6ix/7aZMysqfgDP3v6W79sH8c0Y3BwOAIb7Fa4AfDznEnwEQUMq+urGi9aIAVFMlCbhGoKmi7WI0/v/rmkAKKpiAlMb1BWeOaEYGAEMce/BB+y7E4givDTnMn8EQ+HlTZVtTMKqplQSKI+DMakHjz3X+i8PoTm4p10zcZ9od7giLjhQGAEN86QwGxOJcvxhymD8DIIDxAKZtq9vnVqZPCUA9VZJAwQQaKtreLZX8Hdb5Zx1bMEU3M8pfcPDf3jx5ce7NRIiE8TNMF+nPdorH/CagyhAE3IX3qFw1zW/01FcQgabq9nqp1FI0/qUFCWAmVwk4dXmZNDEIk5+hBBgADCWC3y0dNa/gz+Isp3goAAKYujMB/+6ZV9VxXADqqZIEcibQVJ6eoTLW3Wj8x+eciQk9JQBfLFnYVfWyp0pCKpwBwPCO42DA4dn4f0apqf1W5t5kdfub/VdOjSQwOgFngx8l1V8RrO47emqm8IuAYZqsy4eBzQBgGDAt3XVtWBlw+TCneTgAAqhY35TJ2H9LVnbuF4B6qiSBYQk4G4r1ib57MW7lkGET8YTvBDCgu7W5o6bVd8UhUcgAYARH4d3RtSOc5qlACKhjLDvz98b6njcFop5KSWAIgfm16UOxm+g/0PhzGeshbIL+iXVdWIeP4AQGACPAae6sacYF9OgISXgqAAJ4p3e82tb7kPO+NQD1VEkCuwg01LQd39evlmMr8bfuOsgvehCQ4rGZDbVL9DBGTysYAIzgF/QAKHQhfWeEJDwVGAF1qC3FA3OrOt4emAlUHGsCycr0yTKjHmC3v6aXgTS+s2CBtDW1TguzGACM4oYl3bUpBAIrR0nG00EQUGqyjYGBXCwoCPjx1uks8pOxxV+x0M8+8SahaemleLz8gzWcyTWKexgAjAJooBdAiStGScbTARHAwMAxylaLm8rbPhOQCVQbMwINlenPom9wITb3KYtZ0UNTXINP/zn5igFADpgG3iPhfVIOSZkkAAIYE2DYwr6hoTx9VQDqqTImBPC0L7E/xdXCVj92rrmYFDt0xcS4rSdmfrCGW7vn4Dm84uYnFwKNVel5ylKI+vnRmQB2/LptmmledFNHDVdy1NlRIbPt4ur2kjWW/WsEAeeGzPTYmWsYxjnNXbV3xq7gBRSYUWyO0GZ9oDYl2AuQI63gkmFA1vmrLetPydkruRhLcG6IlObz61qnovG/m42//m7l039+PmIPQB68Girb5gvbZmSZB7OgkuLCftEwE+cs6az+V1A2UG/4CTgj/S2lbudI/3D4Ej2A57Z013PXvxzdxQAgR1BOMucdIEacp/G3Jo9sTBoQAVQGFlZz/PasD9Z+l9OBAnJCSNUmk8q0VqW/IZT8Bt/3h8OJePrvbO6urXEGbofD4uCt5CuAPHzgXFimaVyaRxYmDZAAntpMzBC4oueutvvnV3YeHKApVB0iAsny7kOsVW1/x/XzLTb+4XGcaYjL2Pjn5y8GAPnxEqmOmgfwZMnVpfLkFmhypeb0qkxPU0XbewO1g8q1JzC3qvXMjOzrQS/fO7Q3lgbuIoCGf2mqq+6fuw7wS04EGADkhGnPRLLE+LIQsnfPo/ylNQGlptlK/amhvO0aZ0S31rbSON8JJJMrSxsr0tdZlvgj3vVN9d0AKiyYALr++0pM40sFC4hxRgYABTi/ua32aSHV9QVkZZZACTgrO9uXYUT3Q/Oq248K1BQq14ZAsqrjaOvJzcvx1P95bYyiIfkQuGFRR81/8snAtNsJMAAo8EpImOZ30e20usDszBYgAWcQZ1/G6mqqbL1swRyVCNAUqg6QgNMT1FCR/qJlZbrwrr8qQFOoulACUq6dJEuuLDR73PNxFkARV0BTZfqTtq1+WoQIZg2aANZ2wNDOz7T0AtA2dgAAOvRJREFU1PwjaFOo3z8CcyvTp2B63w3Yxe84/7RSk+sEpPGZpd21N7ouNyYCGQAU4ejtU4XanAFD3Ja2CI46ZMV7xIWmKP1iqqfiJR3soQ3eEGis73mT6t12LRr+pDcaKNU3As6GP5PrZi1YJjO+6YyYIgYARTq0sbz9nUpYfy9SDLNrQAA3wyaBTUSmmfI6LiWsgUNcNMEZ5Gc/tfkyZYv/h+7+8S6KpqiACJiGPHVJV939AamPhFoGAC64EaOHb0EvwEddEEURGhBwlhOVhrwE64nfp4E5NKFIAnPL20+zsFkUlvI6pkhRzK4LASl/s7S77gJdzAmrHQwAXPCcs+68tWXT41h+an8XxFGEJgSc9R5M0/wC1n54XhOTaEYeBOZXdB3eq/qvQcPfmEc2JtWcgDP4ekKpOu62dP1azU3V3jwGAC65CEsEf8i2ba5B7RJPfcTIXkOKmw1VehXHB+jjlZEscd7zi97er+E9/4Xo7i8dKS3PhY+AIeR5zT11vwuf5fpZzADARZ80lqfvQYXzHhdFUpQ2BGQvXg3cVGqY31vYVfWyNmbRkF0EBpbwlX1fwxK+F+Kpv2zXCX6JDgEp7l3aXX96dAoUbEkYALjIf6DLUfSvxEpi41wUS1EaEcANs00Y4uYSw/wRFx/RwzEDC/nY1qVs+PXwh2dWSLklUVp2fCpd/oxnOmImmAGAyw5vrEx/ARvQ/NBlsRSnGQH0BthCit8bhnkdtxwOxjnOVr0ZpS6VSr4fPW9c1CwYN/im1ZDG5djt7we+KYyBIgYALjt5YG2AJ7FlMFcWc5msvuIwKKkdXc7XHXLQvs033DOde0R46KoL5jwzZuO61XMx4PZS3mMegtZNtJTd5ZNraznn313HMABwl+eAtKaqjlm2ZaX5HtIDuBqLxM30OnoGfidM81fNndUrNDY1dKYlK9IVllQXYh7/uTB+SugKQIMLJoB7qs+Uoj7VXdddsBBmzEqAAUBWLMUfdNaZt22BKUj8xJGA0ysgpfqVMWbC4tTyGa/HkUGxZT6/rnXqpj45b8dofq7VXyzQkOZn1793jmMA4BFbLAwkGyva/oZegFM8UkGxYSAgRQbvqO8XhkxNKLHv4tzlkZ32oer2aX2W3YAu/iS6+N+Jxp+bNY2MLNJnsRbHP2adVXfqggUYc8OP6wQYALiOdLdAZ1pSRvQ+giPsstyNJb7fEAyg8H+XymgRhvmXlq6q5+ILY3fJndkz/bL/DIziR8PPRn83mZh/k3J9WYmYtbCt7oWYk/Cs+AwAPEO7XXBDRWsSTzGLPVZD8SEkgHebTygp/mpK+Vc55sBlqeWHbg1hMfI2GdvwjltrqTmYLns6HuuwbgaX6M0bYgwySFPOb+msWxSDogZWRAYAPqDHnuO3orL7iA+qqCK0BCRmD6g2dHk+hA2JHjSFuTzVVbU6tMUZZHjDCT37G1v6T7CFdQKCnhPwpF+DsnKhnkGM+HUIASl/h7X+zxtylD9dJsAAwGWg2cR97MQnJq7ftKEH7zWPyHaex0ggGwEEA6vQe/SwknKFYahHSlTJI7qvQjjw2svsm2nYcqYt1CyUazaC36OylY/HSCArASmeHVe2b/ntrdPfyHqeB10jwADANZQjC8KAwBOFsP+Jpx9z5JQ8SwLDE8AN+zoCgkeEko8jQHhGGOo5KY1nSxNlz97ZOvPV4XO6d+ZD9Y8c0JfpPVwp+3BlqcOlgcBWyeMw8HUmtHC8i3uoYycJ17RlGIl3cnEtf1zPAMAfzgNaEARcjkrzah9VaqvKudExUWIZ/rbgKfciDP6q1NbYkBgGlluVkM4+Bc4uabv+4fhaNNAb0e3eJ6TzqkHgr+qTtjGwaJEy7DKcdzbNKcXTOrrm8V2qiQhWp+LYVKnENKx6OBV+morjB+H4WBznpwgCqHgfxpbTt2GqcBOmi87hg8F2mIYhv9rcVfe9ItAyax4EGADkAcuNpA3l6WZUxLHcnhTvf20MevsXLrrFalzZkqUPlb/mMHVWd9uwbs116CH5hBuMKYME9CWAcEqIq8un1H5j56p2ycrO/WyRmWsrMQ9n345gOJbLGiNQvQuNfyPW0HAY8eMDAQYAPkAerMIZD7Bu0xttCALeMvh4VL8PNPpCPYRu4sVmQqZSbXX/Ha6sc6vSjZalbsZ5diMPB4nHQ0sA98J/8dR/XnNX7X3DFWLg9cq2bUlb2Gcj/YlxCQbQ+K8aW7ZvDd/7D3dleHOcAYA3XEeUioj/rZadcfYLGD9iwtCexNI3Uix3nvRLZCKVz8C1ZHX7my3LvgPvkzFmgh8SiAYBNOZ/UePLPrKz1yuXUjVWtx+kbDuJ5+Gz8YrgBDw0RLK+BpvNqkS+bWl77aO5cGEa9whE8oJyD493khqr0vMwgGqhdxr8loxGX6hWJYzFckxpqqW1/MVCLXA2VMqsav+2VOqrcXkCKpQV8+lNAN3Z/ejP/lpLV+01xXRtb19UrB+9AvbZGOdRH6VgwDCMc9ArcqfenoymdQwAAvRrU0XrtXjvd2mAJhStGpVaGyq4xQnTWJzqqHm+aIGDBDSWt79TSft3GJh28KDD/EoCoSCAJ9unMXhyfkt3HV75ufeZX5s+tC8z0CtwNu6NOvck+y/JEPL65p66z/mvmRodAgwAArwOFsxRiZ516b/DhLcHaEbeqtHoY/tbmSoVicULuyufzVtAHhmcteF7LetWdIG+L49sTEoCwRKQ4k7MZf+E1++0Gys7D5PKQq+ASuK1WW2whc5PO+qRB6eZxjtv6qjpzy8nU7tFgAGAWyQLlJOsTR9o9YtW3LxvLlCEP9mwHzeeNhYapUaqua32aX+UbtcCNnJuZdtnEQR8N7rjJvwkSl1eEUCF+qKU5iXN3TV3eaVjOLnJup4jrL4+LD2u5uM+0XxarXxBJoz6lo6aV4YrD497T4ABgPeMR9XQUNN2vMjYD2Ke9aRRE/uYAAP5VuACWYyFORalOquf8lF1VlUDXZ994jpUbk1ZE/AgCQREAPeKhXvlemPyhG+mls3YFJAZu9TOq24/qt9S8zC11hlAWL7rhB5fNhpm4qTmzuoVepgTXysYAGji+4aKtnfjZr0bQUCg25/iveWjAlP2SkrUokXp+ic1wbOHGQ1V6fdgRYEbULEdvccJ/iCBIAhImcZN+/FUd113EOpH0zmvrvWY/l55NtLNQ/B8/GjpPT2PHTENQ5zZ3Fn/V0/1UHhOBBgA5ITJn0SNFa0XoVH7pT/aBmmR4jFcCKkSPOkv6qx+fNAZbb9ecsaqspdeWf8VoeyvYBDiGG0NpWGRJYB32BtQuK/NOqv252HZr76puv1YzD5CIGBjAKF4q9/OMaTx8ebu2pv81kt92QkwAMjOJbCjWCnwKkzx+Yr3Bsh/w/mLMf92cZjn3zpdnX2WfQPee57hPTNqIIHtBNBTttAsFZeOtLCV7qyc9UgydmYe6gFnEOGxXtuL1yTfb+mu/7LXeig/dwIMAHJn5UtKZ8BbY2XbQjRoTpedqx/cgKucefqYd7s4au/fGstbGzA/+scIng51FRqFkcAgAriHnjKU+eklPTX3Djoc+q9YgGtmxhkzoFQS99AxbhcI3JZgmd+z0WvCZX7dhluEPAYARcDzKquzNv4b61ffj2DghKJ1SPkf50lfYhne5vbarqLlaSzgvNN6xm9e3fsVYavPo5aZoLGpNC1sBKR8GffRdzFt7ZdRn7aWrEhXWOgVQCCAqYXFj7MBt4cnTdn/nbcuO2Jb2NwedXsZAGjq4R3z3+8rZAQvnPoMVnhImUZiMUbvd2haRM/MOr+udermfuNLylafQddmRJdb9gwfBQ8mIOUa/Lw6MfagG1PLD906+FQcvmM54ioMuD0bSxLjNYE4It8y48l/hSlLTk11Va3ONy/Te0+AAYD3jAvWkJyzcoK1ftMiBAHvHU0IbrTn8F4yhZt0sdsrj42mW9fzA7usqczlthCfQtfmOF3tpF0aEpDiDUPKa/YZN+m6Wx48Flsp89NYka5Fg7Fj0SFx2KhEpLh3yvh95pLfqKQCS8AAIDD0uSl21sW3n2z7EBr2S/E0WzU4Fxr9VXDgnxSe9Fs6qx8efI7fdxNwdljbtm3b5VLan0Qwxb3sd6Pht6EEpNyChv8GY8y476eWz3h96Gn+3k4Aswnq7YzCO327CffUHsGA89SPnUF+YBxTe2cqJfE2gR9dCTAA0NUzWezasdLXwXDaPkaJ6gzzCOQsxfP8kLPqYqZffAWbDH0cARWnDnpOPDwK0HvWh+Wtf2GWqv/lfZWf35z7SmVkpS3UZiESz7V0VT2XnwSmDooAA4CgyFNvYATmV3Ye3G9nvowK66MwYmJghlBx8ASkXIv58L+UY8puLGYHy+ALQgtIIH8CDADyZ8YcESHwsROfmLhu88bzsQIjxgj4vyhKRDCGshjopu4R0rjBHHPgHXEc3BdKp9Fo1wkwAHAdKQWGkYCz9TACgU8rqT4Y9HLMYeQXBpvR6FtYZuP3CUNcn+qq+2cYbKaNJOAlAQYAXtKl7NARSJZ3H2KJvo/D8P/BoMsDQ1cAGrwXAVRyr0vD+KVhyJ+mOmqe3ysBD5BATAkwAIip41nskQlcXN1estrGroO2/WmkPGnk1DyrJQEpOlDB/dwce/Dt7ObX0kM0KmACDAACdgDV60+goSKNXRq514D+nhpkoZTLlnbXvXPQEX4lARIYQsAY8ps/SYAEhhDAu+PYraY4BEHofqJiaw+d0TSYBHwmwADAZ+BUFz4CUhkMAELmNltK+ixkPqO5/hNgAOA/c2oMGQHDFJ0hMzn25paW2PRZ7K8CAhiNAMcAjEaI50kABDAOYA3GAUwljFAQ2Ij9MPbh1rOh8BWNDJAAewAChE/V4SGAXcz5Tjks7pKyk41/WJxFO4MkwAAgSPrUHR4Ckq8BwuIsQyh2/4fFWbQzUAIMAALFT+VhIYAnSg4qC4mzbEFfhcRVNDNgAgwAAnYA1YeDgFFSyqfKcLhKGCZnbYTEVTQzYAIMAAJ2ANWHg0AqXf6MkHJ9OKyNr5XY1nfzzPdXPxlfAiw5CeROgAFA7qyYMu4EFBcE0v0SwP4NXQsWSFt3O2kfCehAgAGADl6gDaEgIKXiOADdPcWxGrp7iPZpRIABgEbOoCmaEzAkxwFo7iIO1tTcQTRPKwIMALRyB43RmYApTPYA6Owg2CZtTgHU3EU0TyMCDAA0cgZN0ZvA4o6q/wgp3tDbyhhbJ+UW45jaJ2JMgEUngbwIMADICxcTx5nA9tXl+BpA12sA65p3p1LS0tU+2kUCuhFgAKCbR2iP1gSwJDBfA+jqIcnuf11dQ7v0JMAAQE+/0CpdCbCR0dUzQiiuAKivc2iZjgQYAOjoFdqkLQEzwVXmdHWOyRUAdXUN7dKUAAMATR1Ds/QkMOPMmlV417xJT+viaxV8sm3GxOrH40uAJSeB/AkwAMifGXPEmICzypwSoivGCHQtes+CZTKjq3G0iwR0JMAAQEev0CatCXCxGQ3dwxUANXQKTdKdAAMA3T1E+/QjIDkVUDun0CfauYQG6U+AAYD+PqKFmhHgioCaOQTmmIr7NOjnFVqkOwEGALp7iPbpR+Doyn9ja+At+hkWV4tk7xTTWBnX0rPcJFAoAQYAhZJjvtgScFabc1adiy0AzQoupVhxU0dNv2Zm0RwS0J4AAwDtXUQDtSTABYH0cQt9oY8vaEmoCDAACJW7aKw2BLjqnDaukPSFNr6gIeEiwAAgXP6itZoQkIbZqYkpsTdDcQXA2F8DBFAYAQYAhXFjrpgTmDmp6jFn9bmYYwi8+FiTod88cuyjgRtCA0gghAQYAITQaTQ5eAI7Vp3rCd6SmFugxCOp1Iy+mFNg8UmgIAIMAArCxkwkAAJcfCbwy0BJbs8cuBNoQGgJMAAIretoeOAEuPxs4C4wOAMgcB/QgPASYAAQXt/R8oAJSFNwIGDAPlCcARCwB6g+zAQYAITZe7Q9UAJTlXxUCsn3z0F5QYrMIQdNWRGUeuolgbATYAAQdg/S/sAIOKvPKakeCcyAmCvGLIyVN9wzvTfmGFh8EiiYAAOAgtExIwlgHKCQHeQQDAGlOAAwGPLUGhUCDACi4kmWIxACDAACwT6gFGsAMPgKDj81R4AAA4AIOJFFCJCAtDkQMCj8XI0xKPLUGxECDAAi4kgWIxgCBx+47yPOanTBaI+vVuwAaJll+3MhpvheAiy5CwQYALgAkSLiS8AZhKYwGC2+BIIpOab/PZZafujWYLRTKwlEgwADgGj4kaUIkIBUiu+ifeaPHgAy95k51UWPAAOA6PmUJfKbAJcE9ps4pl8ojr3wnzo1RowAA4CIOZTF8Z+A5Ha0vkM3uAKg78ypMHoEGABEz6cskc8EjNIDVmBBgIzPamOrDlMv7X1Nozu2AFhwEnCJAAMAl0BSTHwJDAxGU/Lx+BLwt+RYffEJrMK4xV+t1EYC0SPAACB6PmWJAiDAQWn+QZdcAdA/2NQUaQIMACLtXhbONwIclOYfaq4A6BtrKoo2AQYA0fYvS+cTAQ5K8wk01EiuAOgfbGqKNAEGAJF2LwvnFwE59qAuDAR8wy99Mdaz7qADJqVjXH4WnQRcI8AAwDWUFBRnAs5AQEPI38aZgT9lNxZxC2B/SFNL9AkwAIi+j1lCnwgYCXkDBgNyeVqveEu5BYx/7JV4yiWBuBFgABA3j7O8nhFItdf+G8Iv8kxBzAUbSny8uaPmiZhjYPFJwDUCDABcQ0lBJCBES3f9HYYwLsFQtV7ycIuA7HWYNvfU/c4tiZRDAiSAWooQSIAE3CfQVJ6eoaT4kRJqjlAi4b6GGEjE6opY9e8fKiEvW9pe+2gMSswikoCvBBgA+IqbyuJG4IKKrskbRN+7caNVIN4+DsHAcVjJ7mgGBUOuBGcpZSX/I6VyVlR8DFssdydM895UR82GISn5kwRIwCUCDABcAkkxJJArgYur20vW2cZ0W1jHKVsdh364gcBACDUdDd+EXOWEMR0qnE0IhFahzI8jCHpcGvJxQ5iPTzHsVVjetz+MZaLNJBBWAgwAwuo52h1JAsnZK/cVWze/WQl5mC3tNwtbHoYegzej0TwMS+DiuDgAgYKm9y0sFOo1IeVzUqjnYeZzyhDPm87fhHjeKBn3XGr5jNcj6TgWigRCSEDTiiSEJGkyCfhA4JIzVpX99+XN02zTmqosNVUY+GeLqUKqffFEjb/4h78YezAZDXEZTCpFo4y/shTHS9EwlykpB/5uPzdgdB/O9wmlnIGLfTiPv8o5NvDbOY538eshe61S8nVMdVwLWWuFgX+2XCtNudawzLUHHjx+DefoD/DkfyRAAiRAAiRAAiRAAiRAAiRAAiRAAiRAAiRAAiRAAiRAAiRAAiRAAiRAAiRAAiRAAiRAAiRAAiRAAiRAAiRAAiRAAiRAAiRAAiRAAiRAAiRAAiRAAiRAAiRAAiRAAiRAAiRAAiRAAiRAAiRAAiRAAiRAAiRAAiRAAiRAAiRAAiRAAiRAAiRAAiRAAiRAAiRAAiRAAiRAAiRAAiRAAiRAAiRAAiRAAiRAAiRAAiRAAiRAAiRAAiRAAiRAAiRAAiRAAiRAAiRAAiRAAiRAAiRAAiRAAiRAAiRAAiRAAiRAAiRAAiRAAiRAAiRAAiRAAiRAAiRAAiRAAiRAAiRAAiRAAiRAAiRAAiRAAiRAAiRAAiRAAiRAAiRAAiRAAiRAAiRAAiRAAiRAAiRAAiRAAiRAAiRAAiRAAiRAAiRAAiRAAiRAAiRAAiRAAiRAAiRAAiRAAiRAAiRAAiRAAiRAAiRAAiRAAiRAAiRAAiRAAiRAAiRAAiRAAiRAAiRAAiRAAiQQGQIyMiVhQUhgB4HGivTtSqlzCgEipfh+S3f9lwvJyzwkQAIkECYCiTAZ64Wtydkr9/VCri4yJxpm/y0PHrtRF3toBwmQAAmQgB4EYh8AZLZsWquHK7yxYr2Qf4HkM7yRTqkkQAIkQAJhJWCE1XDaTQIkQAIkQAIkUDgBBgCFs2NOEiABEiABEggtAQYAoXUdDScBEiABEiCBwgkwACicHXOSAAmQAAmQQGgJxH4QYGg9R8NJgARIIOIEzq1fNam3b12tssXUkYp68MFTfn/DPdN7R0rDc3sTYACwNxMeIQESIAESCJhAY3lrw9Ztr9+mhJgwmilrXt92INK8Olo6nt+TAF8B7MmDv0iABEiABAImkJyzcgIa/l/l0vgHbGqo1TMACLX7aDwJkAAJRI+AtWHLu1CqKdErmV4lYgCglz9oDQmQAAnEngDe+Z8cewg+AGAA4ANkqiABEiABEsidgJTqHbmnZspCCTAAKJQc85EACZAACbhO4GMnPjFRCFXpumAK3ItA7GcBSCGf2ItKMQekmq6UMAsWIcUbUsmXC84/NKMULw49xN8kQAIkoCuBN7ZsPKmoOlTXgmloV+wDgJaeuuPc9EtDRXo1otdphcuUf4BN5xWenzlJgARIILwELJvd/355j68A/CJNPSRAAiRAAqMTkBwAODokd1IwAHCHI6WQAAmQAAkUSeDi6vZxUoiaIsUwe44EGADkCIrJSIAESIAEvCXwum3PVkqVeKuF0ncSYACwkwT/kgAJkAAJBErA5vx/X/kzAPAVN5WRAAmQAAkMS4Dv/4dF48WJ2M8C8AJqXGQ663XbGzYdawvjaEOow9F1N1EJOR5RZcJWYq001BopjDXgsRozI1e1dFU9Fxc2uZYzmVxZKp7e+hbbEkcJaR0JflOkUuPxdwxkrFdKrpaGWAOma5Stnl/SXfuYxCopucrXNZ3zrvd1Zb3LtuVModRxQoqpmPo1UUhp4x3wi/j+gpTiBVMmlqW6qh7TsRwNJ/Tsb/T2H6EsgVk/9n5wyjQp1H6YWjx+5/WvhLHaFGq1kuZq46gxT6RSM/p0LEshNjXW97xJbet9N3w3G+U+RAg5GXJeFUo8jXv/qbLxYxfd8cCsdbnKvmDOM2M2rFtdn2t6piueAO41ftwkMDANUBUxDVDK3y3t1ncaYFN1e73K2Enc9FiqU1XmNV9Xyv/ggrsfzdf948vU/bel69e6yX6nrMaK9O0IRs7Z+Tufv2h0vt/SXf/lfPLkm7apogtrRfTPE1K9C3nfBoZjc5UBfq+hov078t5fKkrvW9hd+WyuefNJB4YPIv0+I+WB3TZikeexbsXC5p66342U1jm3YI5KPLqh/d0WfIMg5yw0mKPu8ubkQ8DTjvLeNqFE3OHVNePoGe0zEPCu34IV6uxTbSVPxfU/c7Q8g88jMNispPg/Q6r7hEzct6Sj6hEvg7mmytZPIID8zGAbsn2HHzB1WfQYJfL65rbap7OlGXxsbkX6BAQ4X8Gx9ymhhu9FdtY0kfL6aYZx1U0dNVsGy3C+O8Gv/cyWGcISlbiUUJfIOgSDdUPT5fj7X7hScg6uELDc2NJTvzRH2ZFNxgDAZddGMQDA01rJGtv6BCL7S1DpT3cDGSrDPgQRt5qlZd9LpcufcUPmThm6BgBNFe1nKWV9GRXu23baWvxf+ScjYVzZ3FHTWrys3RKwFeta2Lnv7iMjfxspcFqwQBk9d7V/EpXutxCY7TeypBHOokERSn5+aU/dr0dI5fqpZGXrbEuJr6OBOQ32uzlA7VVw+/mYCWN/nM+Tcq4FbKxMfwO9Rlfkmh6N9YZSUVIxXFB5bv2qSVt71/0IdcAFCH5ybjvGjBl34J2tM189v6516sZ+eS4eALDKn7PSn3yryzxzLaoQhvzc0q6663PPEM2Uw0dv0SwvS5UHAdycsrEqPW9Nxn4Cm3Nc71bj75iAJ4dSyL8407ftycaK1t8kqzqOzsO0UCVtrGg70XmitpW11N3Gf4DkmXbGehjy/+boCQoMynVZY2XnYUP1N9W0Va64q+1hoeyfwN+FN/4DRRWTcOXcguvlT/MrOw8eqsvt38nK9MkN5en7MrZ4CNf++zxorA6A3G9t3bT12YaKtiudBtLtMuQjD+Xbp1dlsvZ+Od39W7atewBpPppP4+/0WDmNv2PHpn45Q9jqx5BxAcpd7gHPfIrLtCDAAICXQVYCTjdfU2VbWllqIRrrI7MmcuOgEglUBudbltXdUNk23w2RushI1vUc0VDRepdStlNxnuClXZB/Kv79q7E8fYXzxO2lrqyyB/yYSe4859iAxvMqvC5qg121O4+78ddpjPvsTIdXQaMTyKAnb1nGVsvQ2J3ihs0jylAIbJT99U294tmmirYvjZjW65PSfs9QFcmKdIXq7UUPU36vPAbkSLliqDz+1oeA/xWFPmWnJcMQaKpI/48txDJU3L4tyIEgY7yw7TvxJHud8654GNNCcxjdr+/I9PW2oavjg/4ZrdC7qr6xYmnbn5OzV+bcfe+afUp9wJF1yRmrynruSi9Eg/EVNNaF74sxgmEo54EZO/M3t3sCGqrS7xF2fyfeRZ88gnpPTqEXZYKt7O8jcGreviGOJ2pGFqrE4YN7IhqrOt6GMRv/Ao+Celzw2ueRkRXybJAEGAAESV8z3duf2tqusZW6CY2/m+86cy4p9H6+Z33b35wRwTln0iwhKvCPClv8DZVmIF26aBzfY23Z1D6/Nn2on2gwruNE56n8xVfW/RWBz67eAM9sQGPVpzL3uhHs4LqTeIXyLWmJP6Mh9j942gOSaly/6Y30vKqO4/Y47NOPLX3GwODGxur2g4RttTiBSaGqMZuFPQCFwvMhHwMAHyCHQUVy9gtjV9yV/gNGOF8WuL1KzdmwfvUvA7ejAAPw2uR7ePK9BY1waQHZXcuCSvuIvj7xe2e6nWtCRxGEMhuWlWn18+kZDfeMzNZNPxnFtBFPDzT+lW0L8apmgVOGERP7dBJ2HNsHlsnytkJHxRdsqSXVrIHpqRk0/kodVLAgJ6NpMAAoCqC3mbW42L0tIqXnQsDa8vIvnHeruaT1JY1SHw78fWieBW2sbL3Etu2sg6jyFOVKcjQilast+9euCMtRSCBPz0p8aG5F25wcTdwrWWNl+3cQtJy914ngD0xEY3yX2685RiuWtNUsa9XmG+HLomarYIaDNWni1Md26jOUyOz8zr96EGAAoIcfArWiqbztM7jZtduCGE8f35tb3n5aoHByVJ6sbj8JM6OuyTG5f8nQsDVVpp0525H+2EL9pJCxI5hRcI4zAE9XOM4TOF5z3OXnKzFM8EtC70VFM1Fy1a3Ljti2U46UiVWY+oeqhh9dCDAA0MUTAdnhTB3D0LFr3VCPiP8lZ9EW/LsP/9pws79QjFynO9YW9o8DGdWeh+HOu1LLshej0ix63ASmTb2OlW+6we5+MHwI3/+D9RKKenKCXd9M1qYPzKNIoUuKMs7o2dD2qXwMH+heV+JX+eQJIi3KVvvG+tX+2enMSnDhg3pljwGAWNFxNdr/H7ogmiJcIhD60dYucYilmPNO6xm/6bXexej+LLjhQoP1opDGNaUicVe2BUTwZPxm27bmYpOPywH5gHxBO+9CV/y+/Vzk+22+ef1Kj6lusK2od6UbDcP4KTjekW11uHNOWjGld9PWD2Cc2hfB4/h8y4VXO2OtPvk15PtsvnldTb89kHkRgwVfQjlext8ycDsc9s1yRY8tPg051+ciywkqMVPhVgxWdGewKYI23AuPYdT7q/DTJgx+209I+yA8777djdciCALOaaxsW9TSVYtxOuH4YIXIvd7/L+2uvxwzZP6E3rK3SWHvrnekMbG412fye1hhcVOuZHDNLc81bZTTMQCIsndHKdumV7c5y4QWNL3HEY016n9xyIH7fu6Ge6b3Dqcq1VHzPM5di0DgV1bG/jkq/vnDpR3uOCq/b6F7984Fy2RRT8LDyS/meENVx7uElTmlUBnoNfmHGjdmfvND5VjiF0zRigz97Fgl7jdgcPsjG9q+Ztvq20PTjPYb3C/GrIAfLGyrK6pXZjQ92c47vUJoEG8dY8pFd3bUrBmaxlkvwerr/Rr8XGS3szrGWb9iSXfdQ0N1DP09EFQqUdQoe7hqG3pnrhay5NfD7XPhvJZ4ZEP7HGXb3yn2nTpeVVwBRn8Ez3B0oxt7BwCOH1q66v4Pf5x/uz5OD5XdJwoePzNmzNgf7VxwaJdQfhmVAF8BjIoomgmcdc3R2nyx4NJJ47stXfWfGKnxHywbgcCGWQ2156Lyun3w8Zy+K3XUivVtH84prd+JrEzejfFOE9HY3z1rct1pS3c0/juPD/fXCYCau+quwPpdlw2XZvjjqqyvf2D99uGTuH1Gyi3w96dbuutql3bX3pit8XdUOktBI83/GFJcUKwJWL/io6PJcJa2xop0C0ZLN/J5iXX8S2dh34gFwzX+Tv7tPqu9b1ZD3Yn4WdRYDDy1lmOwo/fTK0cueE5n4ffnx+9Xen9OiZkoMAIMAAJDH6xia/3mS9D1P60gK6S8p6Wr5hv55l2wQNrm5PGfQMP3XL55Ufk15ZvH6/SY8ncqdJxUiB48PT4ztmzfDxXSq7G0p/Y6dJ//JW+9SjTiCRKqvf/Axy8lErIKDftPc9XW3F3/GzxR/yDX9NnSoXzzRpv6uCajPoYekSOz5c/pmBTPyoRxenN3JQa15fZxrv2lPfVXS2ksyC1H9lR49P92MqnM7Gd9OboOjftN0pBfNKVxFv6eLEx5hjSMi3BNfgcW3IJ+rCuwi+MZv723fPP/b+9awKwornRX92WGYQZwgAFRo4LAoojzviMmG0VQjI+YmXFW0G+N6/rF7EZjNrrJboKGJEZjkn0Ek93E+MJEUYeZMbobFR+LGsW584aAIKLyuYRFHoK85nG7a/+6zIzzuI/uqr739u177vfBdFfXOXXOX91Vp05VnUqJRFSINAI0BSANXeYSihXF2Gd/m4wG+Pj7DN34Ov5KuSHr1807jJXXd6Hs3zgpH73WQrE32UvHqSJg0nInOgzLq+vfeqx59ifD0hzcMMP4NjfDlzggwXQ3P7GmrEPMt3c5oXOaF3X1EeRbXN9asdUpbcHUsd/HupS/kTZONW38/nDEKFsbq2zOrH8CGNK/ANOugUdrlwyDxs7K7yPM8ELod74MPepwLt/eIqJLNsrQy9JE6lTX7tUnFtwvvmFZPkTnLQTIA+Ct+kiJNIc++eh8NECSUer46vr28ndVBD0hf+KTaFC6nfBAw5cf3t4tNdp2Uo7dvMvKW6eIBV528w/Lx7S3sZhrzbA0hzcN7eUbju8WcEho9TkyGhxyj2RnzLgJpxNukaEVo0Z4D1bK0A7QcGZWDlyP/FtbHJqHzv/0kel27yHb0/UdVUoLyAKM/7Pd8qLlw4Lay6OlJy+Nbc1hOVUNHVX/Sp1/8lBOB2cyANKBeprL5BaT7gS4HlilKv5Db8w9BDehYyOCWeElqmW7Rd9jmhfDKJH7frimjKHQA0ZUh1N90IElHUNM1xx0KtfQ/HAn1w+9d3qNdQAxDQDUmPS7L+QwDEM51kPEgGBM2oiA8yLpdTiIOWOh8bn8s9F2+AzmoYuMRUCuActYdUnwCAJcuhE8VPzFsnWuoMi095zywUryoFOapOWXx1AL6GOedUMubDnb7pgP9xCGMYQX3gMYN+/HeGwjmcU0ADD6l+48IdNH864oT7jDwIaA2P3If28rX7RMOJgHu2oi8fqjPXYrDdN8B3PHaFc9Gqra5xZP4uMtBMgA8FZ9JF2apSUdp4t5RKmCmLZeLGaSoh1BJNV5aXzqCDZpue1fSCfVkaAT2f9Ue+nbrgjOdAkjiucnWiTnimyKTDhjb0izQAcZLXyu0Bveic9L82XsD269/6pGoGVyJU+GHQzwjd6ajm2jdmSjPO4gQIsA3cExY7j0sPC58gugWBDnzbvSecGKwA4EZyuxsMq4yAtAL61omwnJpYwReDHyccbBZuCorAriAeTLMNlr6QLHHTK0qaLBlsBtlrPXY5hovVp4FhL+PDRxb1irwjuXOzTNyTX2TzieconFf96VpVs2NIW6oeLYWHnipXPNOh/PlXZMxOOP9SXrGzqDq+LmoYcZjwAZABlfhc4U0DmfJj2E5/wENFgnOCsxRm6Zxp1rk0UEN7dGYTEkS5iMsL/TEmaKmYHnQnU5D0xMng4f8LAwXjxtAFgae8epgTgUBax1mDj0Xlxj9f9JDm3OYSwMS5da2DiMSf+NeIdxbDS2EXI5Vz5n0gG8oskzMg2eqj0j0+jefwjQFID/6jSuRuh8FDqvuKyT/lAsutv6bNukpBeUoABs/8tYDIVqXvGkxIMZe8x3xnue6BnCHYwyVFX1DjADRomrP9txBEaXyj3hDRstF6VkEgJkAGRSbbkgK+avM7rzgvdi1MjOBVgcsUAI5MzGkLlz2Isj0Bxmxgj0qEOSEdmtUQaApllKnaaRW7B/RCFKt/BSSPOLnDWgVDoREwKIKUogZBcCaHQyuvNiOiKGp/nHuZ7RGOKj70szhAmLh4xqBoDFohiKTGrdxoCwvafOOjJw7cZfeOMU+PHca6u2TXBDDuKRvQiQAZBldQ/XqNSiI6/AZObnf5xuWeBFyWgMEQdCeuSZKuz7OFMyAKKuAdDk3ebwSHTX1zPTXf2ZUkS9cPigkkfDXV2IWyYiQAZAJtaamszH1MjTSc3e8UIkMkwBKHVOaUWQaWZBrrkhnTLYKRtHyebYyRcrD3YQjKoj8FRo79zu/CE550oGhYW9krH0p3RCwA4CCh+EHfaUx2sIoMVQcDumVxsEJnk8vRIMlj6qcxl84v2L5zMisEsgXKACJbYRRvFy8MiRyzJ84a5HDAG3D1JiSjpqjNNKfZnKJJpBBGgb4CAUWXLBEKYVrZnMD6uo/w9LyFMbFQxL/yHrTnT+L6/pqPiZN8Y87IDsFjURXQ36/K8M/io0AHGPrvGOcVPH3qHCJ1W03OTjlcrio99TLJxDhyn58mMT4XVLNoyDTK4Z0FjPks8l9+TiW+wVR2wrYUTEWY8AGQDZ9wp8IKsyms5HmjqDSgeZyJYt6LzR+Udi8O+Q7Ubg9m1r7KpapIJDNtCKOXxpjMW7orNRhqqu8z04SEf6d2Rfn1h055oBgKiE0ov44IvYK60IERIC/QjQFECWvQoYgX4gqzKmD0plaf1EpzNdGkPgUOInLJKlCzrHOSq8EbB6lAHANV3NZW7ymSoyjaTFaZLS/BCmV02XkcLQfVYiQAZAllU7Oi/5YCZMK8syuKKqW8j4Dowxe6I+TJCIUe2kmtL20xJky/rHMADmK4GgG++PpNcttntkmqN75m4ER6zh+wtH5Q/NzDEdRz9CQBEBMgAUAcw08nkTyrrgS5daxIZFUEWpOIXM65je31bRBxd1m7yc5mJ52myh5GfLa8q21neUjRohs4DWjHqTXnnPuDVPXqbhlJHDihBae3iq/TvsZ3jTfm7KSQhER4AMgOi4+DZ1xToWhnItsgoiDv4yWVo/0WE6RL4B5nypn7BwW5e6ytCJ2LInPd2ETv71aDIdXzTH3or2zE4alg9cYiefnTw9VljqNMlB3rr+wuA1XRACkgiQASAJXCaTYTX4iwryX1tXtylHgd4XpIzrChjyhXXBrhm+ACIJSoT7WK0490GWNVzrUQ2ACD+myXecXDuztqRjtqxcQ+kY418ceu/kGsbn/vlXlEsb8U7Korz+RkD6I/M3LH7XLucpWQ0xDXCq9e7hm2Xp/UJ3dmH5K5hKkVqJjfltw+zpuccvWLitBxa4fVmFZy4PvBaL3rCYvAEAplzrvTEWb7vpdcWdJ4ORtDcBBs5L6T4R066ulM/bCJAB4O36SYp0DZ2l27CfX3oOGxHI7ri6vPUMt4WrLW+de1Vx68VXB5vnuB90xV1pxVQKRmL1slwxwr26uiwk3QnEKremquuUq0pDi2orWkq/Ut46JlY+r6ZXlzTXoe4r5eVjG5/oLP0gFv286opWWcOtn+ctkfn7WAXYSDdZ751YDDrWRtaoWfDePRf1QRYnhrtN2tIuUf9kAEiA5gcSQ2d3S+uBxUt9pvncsvLWKdI8+glXXMADNSXNN6Lh32yFzbdNzXyht0fbWlsSerP6vK6pqvyTSc/GMAQmYvIH65j8KdFRuyGjMCaqi5tf493dH5oWf8nqs9r3hs336kpCqd92yMzpMjpd87kN2GCh3StDO0CDCID3DVxH+ytGzonyRKMbSIP3Jq+X991fV8eNgTQnf6vL2i6E8XeDE5qheUUwLiNv+pND0/xwnce4/HcEAEwtPMcPOKRaBzIAUo24R8pb0x5sVPECoCGc3W2aLTVlbefKqCTWEdSUhK7vOtCyBbx+A5fomUP5YIR0Ljva/WLdBZsKhqZ76bqhpfI9RId9UEGm8eioX4UBdI0MD+ElqS1rXlINY0kzuRgV/uVQPsDwlDDnr9SVtc0amp70a649WFsc+isn5dQt+DDv2KFjz0Bm6bURYm5cz5v+u0TlThw34d/gBRgVJyAR3cBzvK+Xme+Efu3UCIgYe1a4Ce+69GgVKyPuqV//mQw+z2MAxeF/Z14a/BjGjXyYJmbRwtrhkNq6IwPAFkw+zaSz5Uqace10boVfrylufqCuosXWnmax+K22tOXH4W1HdqIDexiR8WJOJaChPcc8cPi3Xp4OCGhj7kLH062A43jo+RiMgP+uKQ193g6fugWbEEsgdFttaWirZWrPA8MFcegKTdN8Fts3oxyPG4dK4ZFwb6Mlf6KmtPlXdtzlomM0j+56A0V+TqFYEaLxATud40NvzD0EzH6qUhZ0/NvwtlBzTXlrwtgYEWO3OLTc6uPr0flLR//D7oadp5xY+GsVub1Ke3xNA0eIbbmf8KqgXRnmWRGGb01xy0p8W6/gW/k7Oc7+ppK2RP0NS3Zo19QefB5uY7FietjI0ZH2GM1EGsM+fgM+tI3YvrUOMdc3a7q2jzN+WDe1CbgvxMKusxC+9LxwT085llKhz7T3Q+f4pdqylh8g9x32KFKbq76rZGd1cct/aJr1TZWSoeel6JQuhTH1PkanrwLHNktHuFfGD8DXPA7rLgo1bs0ElueZRw+fKzpZu+WhcZwbNq3VK1bwy1O3eAy1b2k39bK+66qLQ89hdLdWM/QuIxDYrfXwXkvvmW5ZbD5Ww9daYUtsiVNsixCYiQVQD/Z+BdPG/uLI7u5vAkf5aSaulfOw2QYPTCf0e5pr1mZMCe1mBjukWdZUHLs8HXV6IYzdK/DOS+/5H9AIvH9033Ozewbu/feX/Rk4TZLSC+2Qxa0H4VX8Hr4lrHHi08OmCa8i2hpUMgYRC2tLmo82dFatkuLvUyLFj86nqGSRWgEj8A/4UDD64rlqaqPBx4gdnc054IX+8Di343+QKm4j/zkvhVt8eU1Z6E+N7UFPzn2Oz7XuPtTD6qDgZ5xrN5wCEM1AazUDiF0/gKEZyTIAXj+Ww8kS33H+hQ1NLT9BxtsTZ3YvB96JPOBSA6lrNNPSwqYIQ4Ff5MVA6oBax1Ol/9d1bUVDR9kOuwx+u7b4CEaM3+CW9bhdmpj5OC+BJpG1FuhoYKcNKNX/1w0lGQtN1vUHYsrghwcifgPXFAJA4U3DLiVAcWq0Bgev3ErswHhJGO1+gMsNHWgKwA0UM5hHfXt5G16CGz2vgsUfhksP3gPv/cTxuvoYdiVG7ke9J92nEqFrug2joC9/muKPK4yMW/VZlY5d+g0dlat1Xb/X6yhAv125LFAtIlB6XVYl+Rh7RYk+ETGmX8Ja768SZcum52QAZFNtx9C1oSv4O0yg/jjGY08ki5Fk2DJv8oQwUYRoaK3s0Bm7DjgODP+i5Ep/EtYN3opRku0pmPRLHF8CuN57gfj19fXsuKMkfvZRT+dfWfEd1Nl/jXrgmQRMbehGzRMdZXCP+/s3Nj/3ZdSna6ctRkeLXw7Pz7Loz7IvlQyA7KvzqBoXV1d+FyONZ6I+9EAiFkCtKTL0r3lAlJgiYETZIFzRMTOk+QEw7OL5uZegnj1tpDiCSee3w4Dd5IhmSGaxJqKwYMI1wESaxxB2rl+izr7a2F7+luuMPcjw8T+e8zHWuCR9kaPF+Uo3tjB7EELHIpEB4BgyfxKIhnCKoS+DBf6E5zRkbJUxO7g0E1yga9orf6jr7HvAEVOO3vlhyP/W2IK8hU1vFn/kHakUJWHsHxs7quLu+7dTgtgVkGvoF8AIeMlO/pTkwXQSOv9rGzuDj6SkPI8UwgKIraG2qyaxJpxPwRbmlYkz+j8HGQD+r2PbGqKDPdrYFVwGV/Y30Bimfb4x0hAw/eamzqC0i9e28i5lFKPrho7gDxAm5jLIv98ltkpsdI2tPPmkSReIEZYSIw8RM53djvfiZ26JtLqtYu85X6pcgvq7J93TOHhvsBMkcF5jZ5X6AkW3AEoRn8a2il1MT4Gnj2vLriprvjxFanm2GDIAPFs16ROsoTP4c8PQL0RjuCtdUqDsVoyiK5o6K3+ZLhlUyhVbLHNYTjl0aFfho0bLPtSZfhlc5LemcvsY6i6JxiPr0TX9lsaO4L+oYTOaWnjBMOL+DjCrgQ4HR+dIfgrel+eNcQUVTR04tjtLf5hKewjHHSd9KsA0tW9nKcSDapMBMAgFXQxFAEen/tHIyz8bI627UtkYwu35LvZRL0UjEFSZ2x2qS7quRUx6Y07+AkwJ/D302pEqOSKeB7jHJxYWzWnorPxDqsodKAeH1VwnOrKBexf/vq4H9JKGrspfuMhzFKuGzoqnC3L4Gaizu/Hw0KgMSUjAN9ZiGNoV8MB9oX79PE94jpKgpm2Wxqzg1xDYyfHODjsF4Pvoxvv5w6KAscROfj/nIQPAz7WrqJtoiDDSugPegNMQP305trntVWQZg1wsSmMvi45/imGcJfb7o0H0xUK1+vp5vZgS+E/oNRs63oBOZVsMEJSTwXuDGB0bAWOmcI8/sm6GSoRCaXmYxXbD8LgUo7ivu/HOCAOUafpXMTo/v6GtYou0YA4IxdZOuOC/mzc+7zTRWSTNCMb+fuGlgW7BNe1VHt6N4AA8F7KKXR1NnVXfEm0C2O12gSVeRe0Y/j0Kz9yZMLTuFFOebvDNZB4UCCiTay9FssMbINyhP/rri7v+/ejunssspi1G1J/F6KFnyIogrHBsRnsNhsULAV3//ZNtFdtleWUCXf8CxocRP/5Ra3toMTfZRdgxuBg78kTgJMDh/IeOCQsNeQtWTr+g6/zZho6qVudckkPRb8Ddh7McHjYPHLkF78rNiNJykpPSoN+fNJ3fn5dTuOqx5tmfoPFO+a9/3cSdN3x2y08PHD64GL3IRcD8ImxLnSUjDHTqRb0j8BZ70dCNtSIOhwyfbKERgwGcE/GMdWzXVxBf6TZg7yzYFtMQeYq16Iw/quvG6v62LFvgS6hnGj6phDJldIbaypaZWl8A0Vvlfjm5gU9WN893xeKVk8A+1XFd+SJQzEFPVISYm0X42IoQcKYIfZqBQbzY1oNDPjgWnzH843vwwm3mhrHx5KkTNyVrXnpZ1cZpvT3hCfY1+TRnfk7vfjH6+zQluVd1pe1FYc1cBIMKhoAG/LSp6Cz7sRRR9NgB7NsXB6V8jI5D4LgfuG7lXN+Yl3vCRtExJkNChCTeBzmkwrIyzbiwsavif0bKhfMI5iMksXC7VkLfKXDxTkbEtsnoVMWOCRGffzdCSG9GGOQNnAXWNjqI7DeyrGTfLy3pOL2XhRdB5jNQFuoN+oh3n6PuGM9H2j4Yd+J934P0PTBk9mAxZusknb2aqpGnODPCOtY7WQYLbpiHxYI8Gdpk0uB7OcvU+hYB5wXwEU7DOzQF7xDeU2FYafvR9uzHt7IX/zoRm7R5iq63pgrvZOqdLN5kACQLWeJLCGQwAskwADIYDhKdEPAlArQGwJfVSkoRAoQAIUAIEALxESADID4+9JQQIAQIAUKAEPAlAmQA+LJaSSlCgBAgBAgBQiA+AmQAxMeHnhIChAAhQAgQAr5EgAwAX1YrKUUIEAKEACFACMRHgAyA+PjQU0KAECAECAFCwJcIkAHgy2olpQgBQoAQIAQIgfgIkAEQHx96SggQAoQAIUAI+BIBMgB8Wa2kFCFACBAChAAhEB8BMgDi40NPCQFCgBAgBAgBXyJABoAvq5WUIgQIAUKAECAE4iNABkB8fOgpIUAIEAKEACHgSwTIAPBltZJShAAhQAgQAoRAfATIAIiPDz0lBAgBQoAQIAR8icD/A1AqZxAigdbjAAAAAElFTkSuQmCC" parent="1" vertex="1">
          <mxGeometry x="354" y="131" width="132" height="132" as="geometry" />
        </mxCell>
        <mxCell id="Qq2jagZigyJOW5dJXsPS-50" value="&lt;span style=&quot;font-family:monospace&quot;&gt;&lt;span style=&quot;color: rgb(0, 0, 0);&quot;&gt;59.158.99.20&lt;/span&gt;&lt;/span&gt;" style="text;whiteSpace=wrap;html=1;fontStyle=1;labelBackgroundColor=none;align=center;" parent="1" vertex="1">
          <mxGeometry x="370" y="460" width="100" height="20" as="geometry" />
        </mxCell>
        <mxCell id="Qq2jagZigyJOW5dJXsPS-71" value="" style="edgeStyle=orthogonalEdgeStyle;rounded=0;orthogonalLoop=1;jettySize=auto;html=1;fillColor=#d5e8d4;strokeColor=#82b366;" parent="1" source="Qq2jagZigyJOW5dJXsPS-51" target="Qq2jagZigyJOW5dJXsPS-70" edge="1">
          <mxGeometry relative="1" as="geometry" />
        </mxCell>
        <mxCell id="Qq2jagZigyJOW5dJXsPS-51" value="&lt;span style=&quot;font-family:monospace&quot;&gt;&lt;span style=&quot;color: rgb(0, 0, 0);&quot;&gt;Local Router 192.168.1.1&lt;/span&gt;&lt;/span&gt;" style="text;whiteSpace=wrap;html=1;align=center;labelBackgroundColor=none;" parent="1" vertex="1">
          <mxGeometry x="370" y="533" width="100" height="20" as="geometry" />
        </mxCell>
        <mxCell id="Qq2jagZigyJOW5dJXsPS-58" value="" style="edgeStyle=orthogonalEdgeStyle;rounded=0;orthogonalLoop=1;jettySize=auto;html=1;fillColor=#d5e8d4;strokeColor=#82b366;" parent="1" source="Qq2jagZigyJOW5dJXsPS-48" target="Qq2jagZigyJOW5dJXsPS-49" edge="1">
          <mxGeometry relative="1" as="geometry" />
        </mxCell>
        <mxCell id="Qq2jagZigyJOW5dJXsPS-64" value="" style="edgeStyle=orthogonalEdgeStyle;rounded=0;orthogonalLoop=1;jettySize=auto;html=1;fillColor=#f8cecc;strokeColor=#b85450;" parent="1" source="Qq2jagZigyJOW5dJXsPS-48" target="Qq2jagZigyJOW5dJXsPS-6" edge="1">
          <mxGeometry relative="1" as="geometry">
            <mxPoint x="530" y="510" as="targetPoint" />
            <Array as="points">
              <mxPoint x="560" y="508" />
            </Array>
          </mxGeometry>
        </mxCell>
        <mxCell id="Qq2jagZigyJOW5dJXsPS-48" value="RDS DBs" style="points=[[0,0,0],[0.25,0,0],[0.5,0,0],[0.75,0,0],[1,0,0],[0,1,0],[0.25,1,0],[0.5,1,0],[0.75,1,0],[1,1,0],[0,0.25,0],[0,0.5,0],[0,0.75,0],[1,0.25,0],[1,0.5,0],[1,0.75,0]];outlineConnect=0;fontColor=#232F3E;gradientColor=#4D72F3;gradientDirection=north;fillColor=#3334B9;strokeColor=#ffffff;dashed=0;verticalLabelPosition=bottom;verticalAlign=top;align=center;html=1;fontSize=12;fontStyle=0;aspect=fixed;shape=mxgraph.aws4.resourceIcon;resIcon=mxgraph.aws4.aurora;labelPosition=center;spacingLeft=0;spacing=0;spacingBottom=2;" parent="1" vertex="1">
          <mxGeometry x="540" y="177" width="40" height="40" as="geometry" />
        </mxCell>
        <mxCell id="Qq2jagZigyJOW5dJXsPS-57" value="" style="edgeStyle=orthogonalEdgeStyle;rounded=0;orthogonalLoop=1;jettySize=auto;html=1;entryX=0.5;entryY=0;entryDx=0;entryDy=0;entryPerimeter=0;startArrow=classic;startFill=1;strokeWidth=2;" parent="1" source="Qq2jagZigyJOW5dJXsPS-13" target="Qq2jagZigyJOW5dJXsPS-48" edge="1">
          <mxGeometry relative="1" as="geometry">
            <Array as="points">
              <mxPoint x="284" y="111" />
              <mxPoint x="560" y="111" />
            </Array>
          </mxGeometry>
        </mxCell>
        <mxCell id="Qq2jagZigyJOW5dJXsPS-59" value="" style="edgeStyle=orthogonalEdgeStyle;rounded=0;orthogonalLoop=1;jettySize=auto;html=1;fillColor=#d5e8d4;strokeColor=#82b366;" parent="1" source="Qq2jagZigyJOW5dJXsPS-13" target="Qq2jagZigyJOW5dJXsPS-49" edge="1">
          <mxGeometry relative="1" as="geometry" />
        </mxCell>
        <mxCell id="Qq2jagZigyJOW5dJXsPS-68" value="" style="edgeStyle=orthogonalEdgeStyle;rounded=0;orthogonalLoop=1;jettySize=auto;html=1;fillColor=#f8cecc;strokeColor=#b85450;" parent="1" source="Qq2jagZigyJOW5dJXsPS-13" target="Qq2jagZigyJOW5dJXsPS-6" edge="1">
          <mxGeometry relative="1" as="geometry">
            <mxPoint x="283.5999999999999" y="296" as="targetPoint" />
            <Array as="points">
              <mxPoint x="284" y="508" />
            </Array>
          </mxGeometry>
        </mxCell>
        <mxCell id="Qq2jagZigyJOW5dJXsPS-13" value="EC2s" style="points=[[0,0,0],[0.25,0,0],[0.5,0,0],[0.75,0,0],[1,0,0],[0,1,0],[0.25,1,0],[0.5,1,0],[0.75,1,0],[1,1,0],[0,0.25,0],[0,0.5,0],[0,0.75,0],[1,0.25,0],[1,0.5,0],[1,0.75,0]];outlineConnect=0;fontColor=#232F3E;gradientColor=#F78E04;gradientDirection=north;fillColor=#D05C17;strokeColor=#ffffff;dashed=0;verticalLabelPosition=bottom;verticalAlign=top;align=center;html=1;fontSize=12;fontStyle=0;aspect=fixed;shape=mxgraph.aws4.resourceIcon;resIcon=mxgraph.aws4.ec2;labelPosition=center;spacingLeft=0;spacing=0;spacingBottom=2;" parent="1" vertex="1">
          <mxGeometry x="263.6" y="177" width="40" height="40" as="geometry" />
        </mxCell>
        <mxCell id="Qq2jagZigyJOW5dJXsPS-61" value="" style="edgeStyle=orthogonalEdgeStyle;rounded=0;orthogonalLoop=1;jettySize=auto;html=1;entryX=0;entryY=0.25;entryDx=0;entryDy=0;fillColor=#d5e8d4;strokeColor=#82b366;" parent="1" source="Qq2jagZigyJOW5dJXsPS-60" target="Qq2jagZigyJOW5dJXsPS-49" edge="1">
          <mxGeometry relative="1" as="geometry">
            <mxPoint x="320" y="141" as="targetPoint" />
          </mxGeometry>
        </mxCell>
        <mxCell id="Qq2jagZigyJOW5dJXsPS-60" value="Cluster" style="aspect=fixed;sketch=0;html=1;dashed=0;whitespace=wrap;verticalLabelPosition=bottom;verticalAlign=top;fillColor=#2875E2;strokeColor=#ffffff;points=[[0.005,0.63,0],[0.1,0.2,0],[0.9,0.2,0],[0.5,0,0],[0.995,0.63,0],[0.72,0.99,0],[0.5,1,0],[0.28,0.99,0]];shape=mxgraph.kubernetes.icon2;prIcon=pod" parent="1" vertex="1">
          <mxGeometry x="200" y="113.2" width="50" height="48" as="geometry" />
        </mxCell>
        <mxCell id="Qq2jagZigyJOW5dJXsPS-62" value="secure tunnel" style="sketch=0;pointerEvents=1;shadow=0;dashed=0;html=1;strokeColor=none;labelPosition=center;verticalLabelPosition=bottom;verticalAlign=top;outlineConnect=0;align=center;shape=mxgraph.office.security.lock_protected;fillColor=#7FBA42;" parent="1" vertex="1">
          <mxGeometry x="409.66" y="282" width="21.34" height="29.2" as="geometry" />
        </mxCell>
        <mxCell id="Qq2jagZigyJOW5dJXsPS-65" value="" style="shape=mxgraph.signs.safety.no;html=1;pointerEvents=1;fillColor=#e51400;strokeColor=#B20000;verticalLabelPosition=bottom;verticalAlign=top;align=center;fontColor=#ffffff;" parent="1" vertex="1">
          <mxGeometry x="545" y="406" width="30" height="30" as="geometry" />
        </mxCell>
        <mxCell id="Qq2jagZigyJOW5dJXsPS-69" value="" style="shape=mxgraph.signs.safety.no;html=1;pointerEvents=1;fillColor=#e51400;strokeColor=#B20000;verticalLabelPosition=bottom;verticalAlign=top;align=center;fontColor=#ffffff;" parent="1" vertex="1">
          <mxGeometry x="269" y="406" width="30" height="30" as="geometry" />
        </mxCell>
        <mxCell id="Qq2jagZigyJOW5dJXsPS-75" value="" style="edgeStyle=orthogonalEdgeStyle;rounded=0;orthogonalLoop=1;jettySize=auto;html=1;fillColor=#d5e8d4;strokeColor=#82b366;" parent="1" source="Qq2jagZigyJOW5dJXsPS-70" target="Qq2jagZigyJOW5dJXsPS-73" edge="1">
          <mxGeometry relative="1" as="geometry" />
        </mxCell>
        <mxCell id="Qq2jagZigyJOW5dJXsPS-70" value="Teleport Connect&#xa;Client Software: establish links" style="shape=image;verticalLabelPosition=bottom;verticalAlign=top;imageAspect=0;aspect=fixed;image=data:image/png,iVBORw0KGgoAAAANSUhEUgAAAgAAAAIACAYAAAD0eNT6AAAAAXNSR0IArs4c6QAAAERlWElmTU0AKgAAAAgAAYdpAAQAAAABAAAAGgAAAAAAA6ABAAMAAAABAAEAAKACAAQAAAABAAACAKADAAQAAAABAAACAAAAAAAL+LWFAABAAElEQVR4AeydCXwdVdn/z5m5SbrT0rKLrEWwtNkTCyhVEERRSdJLKwii8OKKCipuf7UivogKKIgLIiIKtL1NihsogtZXoORmLxSQIvsitKUtXZPcmfP/Tbql6U1yl1nOzPzu59Pm3plznuc532fmnGfOnEUKfkiABEJDIDn7hbGi79X9bKmmCktMFbbaVxhiqrLFVCnVvkrgu5L7SimmoFBlQqhSoWQpvuMfvkuJYzu+D/wdKHqfEBL/BP6pPqTvHfgu8X37cfxW63FsrcQ/yH9dGvgrxetSybXCxHfLfN0cs99rqeWHbh2QyP9IgAS0J4D7mR8SIAFdCCSr2/exlTxMKftwIezDhC0PE1Idhob4MKHUYWjg99fF1mx2SClX4/izCBieQyDxnDDwVxjPKWE+tw9+39pd6QQS/JAACWhAgAGABk6gCfEj0FjdfpCy1PFCiePR0B+PJ/PjcTO+RSm1T5RpIEDYgCDm3whmHkVg8KiQ4lFpykdbOmpeiXK5WTYS0JEAAwAdvUKbIkNgwQJlrPhDZ52wrSoUagb+odFXx6MR3DcyhXShIKiIXgeTlQgQEBiIR4VhdppHVbWlUtJyQTxFkAAJZCHAACALFB4igWIJzK/sPLhPZa5Eo/Z+NPjTipUXy/wS4wuE+FNClX491VPxUiwZsNAk4CEBBgAewqXoeBJoLG9tQMlv5lO+a/5fh1cFH1/aXZ9yTSIFkQAJ4LbihwRIwDUCc8vbT7OFfY8SynBNKAWhopK2MsX7lnbW/YU4SIAE3CHAAMAdjpRCAqKxvudNqre3i13+nl0M6xIJsyLVUfO8ZxoomARiRIBPKTFyNovqLQHVu+2zbPw9ZTzFtuxLPNVA4SQQIwIMAGLkbBbVOwLJpDLRTf1h7zRQskPAFuKCZHKls7ARPyRAAkUSYABQJEBmJ4EBAk+2V2MO/0Gk4TEBZ0bFU5uqPdZC8SQQCwIMAGLhZhbSawK2odgoeQ15h/yMMpw1FfghARIokgADgCIBMjsJOASUzQDArytBCrL2izX1RJsAA4Bo+5el842A5FOpb6wZAPiGmooiTYABQKTdy8L5QWDHoDRnmV9+fCCABZbeeskZq5xdDfkhARIoggADgCLgMSsJOATspzbNwsI/HJnu1+WgROK/L68v90sd9ZBAVAkwAIiqZ1ku/whwUJp/rHdo4qBL35FTYQQJMACIoFNZJH8J4OmfMwD8RY71lgTHXPjMnOqiR4ABQPR8yhL5T4CNkd/MlWDQ5Tdz6oscAQYAkXMpC+QngYur20vwNDrTT53UNUBgBlcE5JVAAsURYABQHD/mjjmBtVIdj1UAOCLd5+tgYNDlf7Yx8PKZO9VFiwADgGj5k6XxmYCy+C7aZ+S71Nm2zdcAu2jwCwnkT4ABQP7MmIMEdhNQHAC4G4a/35S0OfbCX+TUFjECDAAi5lAWx18CWJSGT6H+It+tTUmy302D30ggbwIMAPJGxgwksJ3AgjkqgXXp+R46oAvCGXzpDMIMSD3VkkDoCTAACL0LWYCgCDzyRudb0QiNDUo/9aqydZbNJZh5IZBAgQQYABQIjtlIQNkW30EHfBlYkq8BAnYB1YeYAAOAEDuPpgdMQHIAYMAewAxMxSAscCfQgLASYAAQVs/R7sAJKA5CC9wHCAA4EDB4L9CCkBJgABBSx9HsYAkkk8qEBdyRLlg3CCHFrB2+CNoS6ieB0BFgABA6l9FgHQjYT7Ydi6fPcTrYEmcbBgZhPt3x1jgzYNlJoFACDAAKJcd8sSZgGxx8pssFYFlcEVAXX9COcBFgABAuf9FaXQhw8JkunsBrAI4D0McZtCRMBBgAhMlbtFUfAhx8ppEvJGcC6OMNWhIiAgwAQuQsmqoHgQULlCGFqNDDGlohlCh3fEISJEAC+RHgTZMfL6YmAfHIHzuOwR4AE4hCDwLYGnj8yt93HauHNbSCBMJDgAFAeHxFSzUhYHPQmSae2G2GJSyuB7AbB7+RQE4EGADkhImJSGAQAcV3zoNoaPFVcUyGFn6gEeEiwAAgXP6itToQ4KhzHbywpw2clbEnD/4igRwIMADIARKTkMBOAnjSxPg/VbnzN/9qQ6CCAwG18QUNCQkBBgAhcRTN1IPA3MruozHqfJIe1tCKQQQmOoMzB/3mVxIggVEIMAAYBRBPk8BgArbMcLDZYCAafVcWt2fWyB00JQQEGACEwEk0USMCyuaiMxq5Y7ApShkMzgYD4XcSGIUAA4BRAPE0CQwmIJVgIzMYiE7fpWJwppM/aIv2BBgAaO8iGqgTASU5BVAnfwy2BaMzK7cP0hx8lN9JgASGI8AAYDgyPE4CQwg01bYdiS2AJw85zJ+aEEDjv8/AIE1N7KEZJKA7AQYAunuI9mlDwO7ntrPaOGMYQ5TRz9cAw7DhYRIYSoABwFAi/E0CwxAwJAeZDYNGm8PK5tbA2jiDhmhPgAGA9i6igboQQBczny51ccYwdnCQ5jBgeJgEshBgAJAFCg+RQDYC2AGQAUA2MBodg4+4SqNG/qApehNgAKC3f2idJgQaKzsPwwDAqZqYQzOGJzBlYLDm8Od5hgRIYAcBBgC8FEggBwIGVwDMgZIeSVSGPTV6eIJW6E6AAYDuHqJ9WhCwObhMCz/kYgQHAuZCiWlIQAgGALwKSCAXAooLAOWCSYc0UnK1Rh38QBv0J8AAQH8f0UIdCLBR0cELOdnAwZo5YWIiEmAPAK8BEhiNwPza9KGYArjfaOl4XhMCGKw5MGhTE3NoBgnoSoA9ALp6hnZpQyDTz+5/bZyRoyEctJkjKCaLNQEGALF2PwufCwFbcXW5XDjplMayGbTp5A/aoicBBgB6+oVW6USA28zq5I2cbJEM2nLixETxJoAdNPkhARIYSmDBAmU8+of0e/Ek+SksL3u6EorB8lBIGv+WQtpKqj9i/4afLOmsuV9KeJEfEiCBPQgwANgDB3/EncAFFV2TN8q+jylbfhqN/pFx5xGF8iMYeAL/btxnwsTf3PLgsRujUCaWgQTcIMAAwA2KlBF6AsnKzrdmbOsSKdR5aPjHh75ALEA2AhsNKW9LGOaNizqrH8+WgMdIIE4EGADEydss6x4EBrr572p/v6XUJUKoU/Y4yR8RJyDvd14PGNOr/5hKSSvihWXxSCArAQYAWbHwYJQJnHPSiilbN227EI3+p4USh0e5rCzbyAQwNuB5IcX10wzjZzd11GwZOTXPkkC0CDAACJE/k8mVpcbTWw/ts40JiaPLHk+lZvSFyPzATU1Wt+9jWdalGA12KRr+SYEbRAN0IvAqXg9cNXHyfr+4ddkR23QyTHdbLjljVdlLr22YUSLEhn2EeIWBlO4e220fA4DdLLT91lDV8S5pWV9Cw3U6nloHfIZBTWj8VZcwZEqIxJKWrqrntC1AwIadd1rP+M2v9X4Wq/l9CaZMCdgcqteYAPYReEkI+b/m9PE3M8Ae3lEIpt9s29ZcpeQHlRL1qIvKtqfGbAsp/oJg6trmrtr7hpfAMzoQYACggxeGscF54ree3HQzGv7zhkmy+7CUyxEULC4tUc0L2+pe2H0ivt8umPPMmA3r1nxSCvsrYLh/fEmw5PkScF4NoHK8cubk2l8vWCYz+eaPYvrG+p43yd7eJluIeUKp2aOVEQxvnWYaF6NHoH+0tDwfDAEGAMFwH1Vrcs7KCZn1m/+IG23OqIn3SCAVnmIegmNThipdkuqpwBNNvD4DgdOqzReh0f86+B0cr9KztG4SQFD9NJYQuMKYXve7OA4WnF/ZeXCvyMwVtkqiZ+TEnT2QuTJGPfT38QeM+cBv7y3fnGsepvOPAAMA/1jnrCmZVKa1Kv0HdK29N+dMWRM6i5+oB6QhUsIwl7R01LySNVlEDi6YoxKPbGg/Xyn7m2B3WESKxWJoQUA+iZWgvtHcU7dYC3M8NCJZmz7Q7pNzsZBSEvfR2/Nt9Pc2Tf6pvKH2gwsWSHQe8KMTAQYAOnljhy2NFekb8b76U26ahicZrIwm/mVIsai0dGzLna0zX3VTftCy5lamT7FscSMqq7cEbQv1R5eA80QrE+anmztqnohSKRtO6Nnf2LqtEZXEfDw2vN3tlS+lMG5o6an9bJSYRaEsDAA082JTZetlti2u8dIsJxhAQ7lMCGOxaZgtqa6q1V7q81L2h+ofOaC3d+s1CJjO9VIPZZPATgK4f/ow0O0avN++Mswj3rH41X62shqw2dXZeM0xB0/75s4yevEXAwM/39xd92MvZFNmYQQYABTGzZNcjeWtDXjPtsTt6HskYzFeAIugyH8gIFhUZpp33dlRs2ak9LqcQ4Mv51alP44nlqvwnn+yLnbRjvgQwL3znCGMzy3prv19WEp9fl3r1E19wqlnzsY9/y6vG/3BXJwHDwQBjWHiNdj+KH5nAKCJV5PlbXWWtJfhhhwbmElSZDCE8H5pyMXGmHF3pZbPeD0wW0ZQ3FDZWS7t/l9ggAOmH/FDAkETkH9KlJV9NpUufyZoS7LpH1j4auO2s1DZn433+qdiDYxEtnS+HJNyiyHVyc1d9e2+6KOSEQkwABgRjz8n51d0Hd6r+h6GtgP80Ti6Fkzh6UcDex8ukMWTRMldt3ZXrh89l7cpBmZGrNvybSntz/n55OJtqSg9CgTQG7AV98p3jekTfqDD+gEDm1qJvg/iHsaTvnw3esywTo8eH/QE/NdMGPWpjprn9bAovlYwAAjY987qdBnLeghR+VsDNmVY9c47T1Qk9yJyX2LgNQFu3A3DJvbohPN6BCuM/Bjdlod6pIJiScAFAvLJRMK4EPfIAy4Iy0vEufWrJm3pW3+WM2UPFftpeJVYmpcAHxOjTnl07JgpJ97eOv0NH9VS1RACDACGAPHzp/Meu6mi7fe4Ud/vp97idMleXDT3YkbBoinjJ/3B6+1VByq13nW/xHt+PMnwQwL6E3DG1eDW/m7imNorvF474GMnPjFx/eYNqD/kPPSKOSuF7liRLxSc7mruqmtEbyOeL/gJggADgCCo79DZVNH6dVuJKwM0oSjVuHi2Oct+SmksNvYZ98fUshmbihI4JHOyqqMaW/QuQuN/1JBT/EkC2hNAw/ZQqSg5d2F35bNuGjvwKmzDljOlExQrdQZazzFuyvdTlmHIryII+J6fOqlrNwEGALtZ+Pptbnn7abaw7/FzxL+XBXTegWKbgrtxQS0ed0DZn4td+auxsvUSYcsf6tyN6SVPyo4GAQQBG/Dvk1gX/85iSnRxdfu41Zb1PtxfTk/Y+wIdLFxMQYbkdXpLMDPg9CVddfcPOcWfPhBgAOAD5KEqGis7D1Mq04HoferQc5H4jZG+6Ir8s9MzYI458M+p5YduzbVczuClN0T/LXg9gqlK/JBANAigobtt8vh9PpPPK7Pk7BfG2tv++15nnj4onIn6Ylw0aAwphZRrykpEFfcwGcLFh58MAHyAPFjFwNaZr6x7AA1czeDjUf2OwT7OGuB/QkCwaNKU/e8ZaavVpur2etuyFmJA5OFR5cFyxZiAlP9JKHlOqqc2PRwFZwOrN9a9dsb2efri/egBGz9c2kgdlzKdmD7+7TrMoIgU11EKwwBgFEBun8Yyv79E43+R23LDIA8X2yYh5R8M7Fp40EGT/3LDPdN7HbvBQzZVtV2Ghv8qfNdmulIYmNLGkBFw1toQ8puzzqq9eufa+AMPBf9dfzpuhLNx/X8AJZoYslK5Yi72LPlFS1f9J1wRRiE5EWAAkBMmdxI1VrZdqGz7ZnekhVyKFJj+I/+AgUwtmN73MYQBZ4a8RIGb74zDAMuXYcjawf9wfC3GZ2wE476Bf9LoFRLfLec3PqYsxXn8szGCHH+df1JNxHvmqaggpiEwm4rBnlMH/gp1cJgHnQ2UV4P/MC7gb2jwfwZTGjCj5oNgO0kDswI3AVw+2tJdd2vghsTEAAYAPjka8/1nZjJ2Gyrg0EzT8QkN1eRBADfs69jv+RE02I8LYT8rTfksxlo8W5ooe9aPDZ6c3pqz69oOsCzzcCGsw5SlDseT2xGw5zicm4miTMmjOExKAnsQwPW9DT0kNdh1ceUeJ/jDEwIMADzBuqfQgS6+l9e1433e8Xue4S8SGJ4AntyfwpPhcjT4KwxDPVKiSh5Z2FXlPOFr+0mWdx+SMftmGracaQs1C4bOxpMup3Fq6zH9DMN1v8KcPqGW4wG89w0DAO8ZC7z3vw5PR5/3QRVVhJaAxHgI1YbK7yFsMPOQlOZDYd6lcbAbBraa3dJ/gi2sE/B0dwJeLWAALHvCBjPi9z0J4Dq5pqWn7ot7HuUvtwkwAHCb6BB5TZVtp9q2uhcVHlkPYcOf8t/OQkqmlH+VYw5cls90yTCzc+a0r7UGtp99D3rFTse9cUyYy0PbvSCA1QFN89SlndV/90I6ZW4nwEbJwyshOXvlvpmtm/G+Vh3soRqKDgsBjACHqX+XymgRhvmXlq6q58Jiupd2Jut6jrD7e9+DnoFGBARz8Noj4aU+yg4HATROL46ZOHbWHQ/MWhcOi8NnJQMAD33WWJ5eggqtyUMVFK07gZ2NPhZFmlBi33Vbut4Zoc/PMAQ+VN0+rc+ysfGTSOLeeSeDgWFAxeWwlIuXdtfNi0tx/S4nAwCPiDeUpz+Krs1bPBJPsZoTwHSmduxx8itjzITFqeUzXtfcXC3NO7+udeqmPjkPQcCFCAaqtDSSRnlPwDA+srSr9jbvFcVPAwMAD3zeVNt2pN1nd0N0LBf08ABpKETiZkJDb9wuTePm5s7qFaEwOiRGJivSFZZUWEdDnAuTOdUwJH5zxUysGVImSsvd3lTJFdtCLoQBgAcObKhIL8N7/5M9EE2RGhJwnvbRZf2jNx00ZcnO1Q01NDMSJjlL5W5ct3oueF/KXoFIuDSnQqCh+ntLT/0pOSVmopwJMADIGVVuCbnaX26cwp4K05RsrJb3B8NIXLuks/pfYS9PGO1PVqZPtpRwlpA+E8GAEcYy0ObcCXCVwNxZ5ZqSAUCupHJI58x3Fpu3PYGk7KLMgVcYk+CG2SYMcXOJYf5oUUfNf8JYhqjZnKzqONqyrUsxi+BCjLvhSptRc/DO8ki5NiETx0VlfYydxQryLwMAF+lj1P+deBKZ76JIitKGgOyVhvplqSi5SvfV+LRB5rMhziqEluz7GnoELsJ9iD0N+IkaAfQC3I69Aj4ctXIFVR4GAC6Rn1vZdoZl23e7JI5itCEgew0pbjZU6VWpnoqXtDGLhgxLoLG+502it9cJBJzZAwwEhiUVzhOGKd7T3Fn/13Bar5fVDABc8Md5p/WM3/zatpXogjzMBXEUoQkBLMu7xDTNL6Q6ap7XxCSakQeB+RVdh/eJ/muxDHdDHtmYVHMCaLSemZYwj7+po2aL5qZqbx4Hzrjgok2v9l3Bxt8FkJqIwAC/JwzDeHdLd32Sjb8mTinADGfaGLqLG01hYrlh+WQBIphFQwKYAXLEWsv+toamhc4k9gAU6TIMQKq27EwrAgCzSFHMHjAB3AybhDS+M82U1+Hpoj9gc6jeRQLJ5MpS+6nNl2Edgf+H1wLjXRRNUQEQQO+cJRNGbXN7bVcA6iOjkgFAEa509kZvqkgvR0RaX4QYZtWAAJ76F5mi9At8z6+BMzw0wRkfoHq3XYvxAUkP1VC0HwSkXI5lgk/wQ1VUdTAAKMKzjRWt5+DJ//YiRDBr0ASkeEwq8zMtPTX/CNoU6vePwNzK9CmWUjcgEDjOP63U5DoBw/gQlgle6LrcmAjkGIACHZ2c/cJYvFe8qsDszBY8gY2GIb5QPrmunI1/8M7w24IlXXX372ea5YY0Lh949eO3AdTnCgGp7O85q0O6IiyGQtgDUKDTmypav24rcWWB2ZktQALO0r0lpjGfC/kE6ASNVA8sJGRZizA2gBsOaeSXXE3B/fw1DPbkw1iuwAalYwAwCEauX5O16QOtPrUK7/4n5JqH6XQgIOEyed1+CfkVDvLTwR/62OAMEsys2vx97OHxOX2soiU5Etg4Zsy46Xe2znw1x/RMtoNAgiTyJ4DG/0o2/vlzCzSHlGsMIT/S3F3LxZoCdYSeylOpGX2w7PNzq1rvs2x5KwKBqXpaSquyEJi4rXfrd3D84izneGgEAuwBGAFOtlMNlZ3l0s50oruQ4yeyAdLxmJTLymTiXC7hq6Nz9LNpx5LCd2CWzzv0s44WZSPgbM4lTbOS23BnozP8MTZiw7PJekbaWFmMjX9WNroddOYKG4b8VvlZtaew8dfNO/ra40wFNafXvgvXz7cHdn3U11RatoOAUycr27qGQPIjwB6APHhxvf88YAWcFBf2i4aZOIdb9QbsiJCr377lsLod030PCXlR4mG+Kc9Y2ln3l3gUtvhSsgcgD4aYN7wgj+RMGhQBKe6dUCYq2PgH5YDo6E111f2zzDQrMNL8vuiUKrolkRbr6Hy8ywAgR1rO0z8GBtXlmJzJAiKAbtvbML/7zNvS9WsDMoFqI0bgzo6aNdNM473OVrQRK1rkioPB2fUNVen3RK5gHhWIswByBGvb9rdyTMpkgRGQ38N84K8Gpp6KI0vAmTaKQYHnNVamX8bqgV+KbEEjUDD0Ajh1NV8D5OBL9gDkAMmJKJ3IMoekTBIAAWegliGMS5b2sPEPAH9sVKIHQC3trr9cGPJzHByor9tRV7+tqaoVO0DyMxoBBgCjEcJ5vlfKAVJASTDYb5s05NnNPbU/CcgEqo0ZgaVdddcrqeajZuiNWdFDU1xliQWhMTZAQxkAjAKfT/+jAArytJTrMdL/tOau2uYgzaDu+BFAT0AqYYjT0SuwIX6l17/ETi/A3PL20/S3NFgLGQCMwn/H+6RRUvG0/wTkC4YSJ3Gkv//kqXE7AWeGgErIkzDw9CUy0Y+AJe0F+lmll0UMAEbwhxNBOpHkCEl4KgACeP/6qBxTdkJzT93KANRTJQnsIrC0vfbR0hI5W2Bb6V0H+UUPAkrNbqhoe7cexuhpBQOAEfxiS/uLI5zmqUAIyCdNI/GultbyFwNRT6UkMITAwra6F8S4Me9ET8CqIaf4M3ACrMNHcgFXAhyGzryqjuP6rAyj+mH4BHHYWd3PTJgnpjpqng9CP3WSwEgE5ld0Hd4n+h7gqoEjUfL/XKmZeOuizurH/desv0b2AAzjo36V4bagw7AJ5LCUa0sw4I+NfyD0qTQHAgu7K581ZclpCFRfzyE5k/hEoM+yP+uTqtCpYQ9AFpedc9KKKVs3bXsRK/+Ny3Kah3wmgIt0k5DyXVjkp81n1VRHAnkTaKpur1cZ+35sUDM+78zM4D4BKbeMnTDmTXc8MGud+8LDLZE9AFn817up9yI2/lnABHJI9mJHv7PY+AcCn0oLINDcUdOqpGzAYNW+ArIzi9sE8CA3UKe7LTcC8hgADHFiMqlMRO6fGXKYPwMggEFVzna+5y7pqrs/APVUSQIFE1jaXfs3LBb0Ya4YWDBCVzM6dbpTt7sqNALCGAAMcaL9VPtZWPP7zUMO82cwBD7BRX6CAU+txRNwFgvCQkGfLF4SJRRLwKnTnbq9WDlRy88AYIhHsekPB/8NYRLETymNL7d0198chG7qJAG3CDR3196EIOBrbsmjnMIJsG7fmx0HAQ5i0lTVMcu2Mj2DDvFrMARuWdpTf2EwqqmVBNwn0FiR/jWeQi9wXzIl5kXAKKlY2lXFOn4HNPYADLp6bMv+yKCf/BoAAbz3X5EYdzDHYATAniq9I2COPehT2DzoEe80UHIuBAzVzzp+ECgGADtgbB8gYp87iA2/+k9goxSlc1PLD93qv2pqJAHvCDjXdKJEJqFho3daKHk0ArYS5yyYoxKjpYvLeQYAOzxtr2p39o8+IC6O17KcUlzY3F3J5VS1dA6NKpZAqr3239KU/1OsHOYvisABK9Z3OHU9PyDAAGDHZYD3c+fzigiOgBTGDc6o6eAsoGYS8J5AS2fdIkPKG73XRA3DEVDCZl2/Aw4DAIBIVrfvI4T64HAXDI97TEDKtHnMOG685DFmiteDgDF9/GWYGcBVLQNyh1TqAxdUdE0OSL1WahkAwB0Y/Hc2tv0do5VnYmKMs266lImzU6kZXDUtJj6PezGda71UlJwNDlyaNoCLwanrN4qMwz/2HwYAuARsdv8HdCNIJaR5fktX1XMBGUC1JBAIAWfjIMOUGJGOe4Af3wlgZUCw5yf2AUBTbduRuAxO4qUQCIGrW7pr/hyIZiolgYAJNHfW/VFK9YOAzYileoz5OiFZ1XF0LAs/qNCxDwBEv2gaxINf/SIgxWP7JYxv+qWOekhARwLm9AnfwH4BT+hoW9RtspU1N+plHK18sQ8AEAmeMhoknnefgLNG+k0dNf3uS6ZEEggPAWc8gGmIT4TH4uhYqpR4V3RKU1hJGABIUV8YOuYqlAAa/1tbuur+r9D8zEcCUSKQ6qr7p5DyN1EqUxjKgsEXtWGw00sbYx8ACMWVuby8wPaSLeXaMtP40l7HeYAEYkwgIRNfcmbExBiB70XHdMBNvivVTGHsAwAp1Mua+STS5mARlMvv7KhZE+lCsnAkkCeBVFfVaiHFl/PMxuTFEJDylWKyRyFv7AMAJeWSKDgyJGV4YElnza9DYivNJAFfCTR31f0Kr8ce9FVpnJVJsSjOxXfKHvsAIDF5/M/BgQtyeHwnoGLrN4T8BP5y3rPHrCk+nASce0Ml5CfQE5AJZwlCZfVG0zBuDpXFHhgb+wAgtWzGJlwI2AVQ9nrAlyJ3EEDldm1zT91KAiEBEhiewNL22kcxFuDa4VPwTLEEMO2yzzBFMtVRs6FYWWHPH/sAwHHgkq7ae4QpzsJe9NyG1osrWopnpxryCi9EUyYJRI3ANNP8Nuoiro7pgWO31/FqfnNn/V89EB86kQwAdrhsaWfdX9ALcDKeVGM/MMTtqxid/pdhzv8Wt+VSHglEkYBzr0hpfCGKZQuyTNvrdnlyS0/90iDt0Ek3epv4GUygsb7nTWJb7x+wVnTl4OP8XhgB3HRtLd11dYXlZi4SiC+Bxop0GxYqq4kvAfdKjm7/LjGm7AMtreUvuic1/JLYAzDEh84FMv6Asrej4WKUOIRNIT+x28/XC8nHPCQQdwKGMnjvuHAROHW5U6ez8d8bJnsA9mYycASRt5xb1X6VbducmzsMo1EPS/nPpd11c0ZNxwQkQAJZCaAX4J+oi96R9SQPjkrAMIyrMfX4qwgCOPsoC61ElmM8BAI7LpivNFS2PYb9gm8SQpURTH4E0O0W2BPM+XWtUzcmxpj5WczUJLA3gYmZbdZt6fq1e5/x/ohpGl/PZKx/ea8pahowq8uQFzd31d6GgX/8DEOAaIYBM/hwY0XbiQgAliIS32/wcX4fgYAU9y7trj99hBSenmooT2OHNfUWT5VQeEwIyH8v7ak7NqjCohfgXtQ97w5Kf9j04uFtNR7hGlq6a7mo0ijO4xiAUQA5p50LqVSU1OHC4jz2HHg5SUwpv59jUiYjARIYgQDqHd5LI/AZfAq9jo86dTUb/8FUhv/OAGB4NnucWdhd+ezk8ZNmozvp7j1O8MdeBHATdi7pqrt/rxM8QAIkkDcBdGPfNzCKPe+c8crg1M2TJ0w6wamr41XywkvLACAPdrc8eOxGc3rdBzBA4Md5ZItfUlPwiSV+XmeJPSSgDPYCjIQXvSQ/mnVW3fudOnqkdDy3JwEGAHvyGPVXKiUtjGz/vCGNj+Oi6x81Q8wSYFDJM+ZRtdxgKWZ+Z3G9JZA4uiaFPQKe9VZL+KQ7dTB2GL0Ya41cumCBtMNXgmAtZgBQIP/m7tqbhDJOR4PHPbwHMcQN+WMnSBp0iF9JgASKJODcU1IY7HkcxHGg7kUd3Nxd98tBh/k1DwIMAPKANTRpS0/NP6QsfRtGnD459FwcfzvrbJdNGHNbHMvOMpOA1wTGTCj7DRq9bV7rCYd8+W/TTNQ7dXA47NXTSgYARfqlubty1T6ypB5BAAe9CZG644FZ3Fq5yGuK2UkgG4Ed91Yq27k4HUMv432oc9+W6qx+Kk7l9qKsDABcoHprd+X68im17xHC+LkL4kIrwhDyF6E1noaTQBgISCPW9xga/5/Nmlx7hlPnhsFdutvIAMAlDy1YJjNLe2o/idWnPoeu8Ni9A3fm3y7prnvIJZwUQwIkkIWAM78djWDs1iNx6lRpiM9isN+nnLo2CxoeKoAAA4ACoI2UZWlX3fW4UN+HEbtvjJQuaueUITgQJ2pOZXm0JIBxALG61xDwbDCU+d6WrvobtHRIiI1iAOCB85o76/+akCWz8VT8tAfitRPpROdjSscu0s4wGkQCESRglIhFcelldOrQEsOcvaSn5t4IujLwIjEA8MgFqa6qx8oSBgYHishv5IGNE5fd2TrzVY9QUiwJkMAgAqm2uv8699ygQ5H8iif//5tQpuoWdVY/HskCalAoBgAeOuHOjpo1iWMmnIoL+VYP1QQuGjttLgzcCBpAAjEiEIN77pZppnFqULswxuVS4nbAHns6lZrRBxUfxY6CjwulrlJYPchjlb6KR3DTP2bCmGZflVIZCcScgDl2Qou1dfNPsUtgSZRQoMvfVlJ8Gaut/jBK5dK1LJFqjHSF7NiF0bvfxwyBBgzg2aSznfnbpu7l3P/8qTEHCRRDILV8BlYgVZF6L+7UjdIUZ7HxL+bKyC8vA4D8eBWVuqWr9g/KKDkJiwa9UJQgvTLfpZc5tIYEYkMgMvceehKfl2bixObOuj/GxnsaFJQBgM9OWNpV1TNmzNhaRLutPqv2RJ2pyu7xRDCFkgAJjEggMveelMvLysbWNXdWrxixwDzpOgEGAK4jHV2gM2J+0pT952CtgDtHT61vCkxF6kn1VLykr4W0jASiS8C593APhrrRxJP/7W86aMo7OYsomOuUgwCD4S5uXXaEs6nHOU2V6SdsWyzA+zx0CoTtI+8Om8W0lwSiRADTAXEPqlnhK5N0KrxvYmW/K0V3+KyPisXsAQjYk81ddVcIqeYhkt8asCl5qzdNgwFA3tSYgQTcI2CaZvjuQSm3SEOe3dKDxp+fQAkwAAgU/3blS7vrUwgA3oHusFc0MCc3E5yljo+sXp5bYqYiARLwgoA8qsrZf2OjF7I9kSnlywnDfAcGRC/xRD6F5kWAAUBeuLxL3NxV326qUgwOlJ3eaXFPMjrwlqdSMnabHrlHkJJIoHgCA/egFOEIxKXoKJOJWmzj21F8ySnBDQIMANyg6JIMZ1DPtITxdkwTbHFJpJdiHvBSOGWTAAnkRgA9h9rfi+jhXLKfab5jYVfVy7mViqn8IJDwQwl15E7gpo6aLVjda25TZdt38feruef0N6URgkrHXyLURgLBEDCU/JclVDDKc9CK9/1XNnfWfhOBir5G5lCOKCZhD4CGXnVuFIyO/Zo0jPPRG9Crm4mwr39fU6Z1s4v2kEAcCTj3onNP6ld22Ysn/3Nbuuq+wcZfP+84FjEA0NMvA1ZhoMxvTSnehekyr2llplKdTk+FVjbRGBKIKYGBexH3pGbFf1Wa5pyW7vo7NLOL5gwiwABgEAwdvy7prnvIkMbFOtmGaL5dJ3toCwnEnoCUWg2sk9K8sKWz+uHY+0VzAAwANHeQYx52EDxcLzNlqFcf04slrSGB4glg9lBP8VLckyCFfbB70ijJKwIMALwi66JcjJw5xkVxxYsy9apsii8QJZBAuAkow9AqKMeevseGm2g8rGcAEA4/T9fFTGe/7nFTSx7VxR7aQQIkIMT4aYlHnHtTFxZS2gwAdHHGCHYwABgBjjanlDpaG1uk+s9v7y3frI09NIQESEAM3JNSPa0NCvYAaOOKkQxhADASHQ3OJZMrSzEV8DANTBkwAZuPPKKLLbSDBEhgMAGt7s3DLzljVdlg6/hdPwIMAPTzyZ4WPbPlCAwC1MdP6AHY00D+IgES0IEA6omndLDDscGps15es/4QXeyhHdkJcCXA7Fy0OZqxDdxE2rzaE1gB8Blt4IxgSCJh1IvSseYISUJ9KrNl0w9QgI/pUAisU/Erc9yEy3WwxRMb+raGYs8L5960lT6L7al+cRD8oc9rCU8ujnALZQCgu/+Uvb9OJtpShCIASHXUbNCJm9u2NFakt2GpaLfFFiZPyt7U8hmvF5aZudwioNu9iVUAD3SrbJTjDQF9upa9KV/opRpKHaBTIRJGOHoAdGJGW0jADwLa3Zv2QA+AH0WnjgIJMAAoEJxf2fCMp1EAINX4CdOe86vs1EMCJJA7ge33pj4b7ihpO68A+NGYAAMAjZ3jmIZuXo0CAPXarcuO2KY5MppHArEksP3eVPrsG6J0eniJ5SUxaqEZAIyKKNgEWHd/SrAW7NYOW9bs/sVvJEACuhHQ6R5VUkzSjQ/t2ZMAA4A9eWj3C68AxuhiFGxhAKCLM2gHCWQhoNM9KpWcmMVEHtKIAAMAjZyRzRQplDYBAN4uMgDI5iQeIwFNCGh1j0rBAECT62I4MxgADEdGk+NKSG0CACHFWk2w0AwSIIFsBLS6RxUDgGw+0ugYAwCNnJHNFET0Gi2nqdgDkM1JPEYC2hDQ6B5VcoI2WGhIVgIMALJi0eegkvq8AhDCiPTiOvp4nZaQQKEE9LlHsRzw+EJLwXz+EGAA4A/ngrVgII0+rwCE6Cu4IMxIAiTgBwF97lEpudKsHx4vQgcDgCLg+ZEVU2m0CQCkVL1+lJk6SIAECiOg0z2KPSIYABTmRt9yMQDwDXXBirQZA4ABifo8XRSMkxlJILoEtLpHlYrsZlxRuYIYAGjuSQwC1KcHwGYPgOaXC82LOQGp1z3KHgDNr0cGAJo7SGg0CNDmKwDdrxbaF3MCOt2jeH3JAEDz65EBgOYOUkpq4yNDYYNPfkiABLQloNM9igHMtragaNgAAW0aF/ojOwE0uZnsZwI5WhqIViolARLIlYA29yimMHPjsFy9FlA6BgABgc9ZrVJWzmk9TqgMqc2ARI+LSvEkEEoCOt2jUkjOGtL8KmIAoLmDYJ42PQDYl0Cbpwv93UYLScB/Ajrdo0oJ9gD4fwnkpZEBQF64/E+M1+7aBAAYj8AeAP8vAWokgZwJ6HSPYk0CBgA5ey6YhAwAguGej1aNAgCbAUA+nmNaEvCZgFL63KMIRhgA+Oz/fNUxAMiXmM/pMex+i88qh1WHAYmThj3JEyRAAoET0OkehS0cAxD4FTGyAQwARuYT+FlsqLEpcCN2GSCn7frKLyRAAhoS0OceVYqvADS8QPYwiQHAHjj0+4GVADfqYhUG9TAA0MUZtIMEshDQ6R6Vkq8AsrhIq0MMALRyRxZjpNQmABBSTM1iIQ+RAAloQgDd7toE6ZwFoMlFMYIZDABGgKPJKW0CAIxH0KZy0cQ3NIMEdCOgTZCO+oJjAHS7OobYwwBgCBD9fiptAgC802MAoN8FQotIYDcBpfbb/SPob2p90BZQ/8gEGACMzCfws0qIVwM3YpcBcv8L5jyjze6Eu8ziFxIgAeHcm9gOWJ8AQOpUd/ECyUaAAUA2KjodU8Yr+pij5OZNaw7Txx5aQgIksJPA9nsTe/Bp8sEiZho9vGgCRTMzGABo5pCh5hiG+O/QY0H+ztjqiCD1UzcJkEB2ArrdmxiQyAAgu6u0OcoAQBtXZDcE0wA16gEQwlCCAUB2V/EoCQRKQLd707DZAxDoBZGDcgYAOUAKMokypVY9ALZiD0CQ1wN1k8CwBJQ4cthzAZyQCb0eXgJAoL1KBgCau8iYOPZFrUxU8iit7KExJEACAwQwYFibexNbAdviiHHP0DV6E2AAoLd/RGrZjE14l/aSLmZih69ZuthCO0iABAYTUDMH/wryu5Lq+VRqRl+QNlD36AQYAIzOKPAU2FXricCN2GmAkkeed1rP+J0/+ZcESCB4AgP3JO7N4C3ZbgF6AFbpYgvtGJ4AA4Dh2WhzxpBCmwAAmxMZW9b2H68NHBpCAiQgNq/JzHTuTY1QMADQyBnDmaLTBTOcjTyuUw+A4w1LldMpJEAC+hCQtq3Zqzn2AOhzdQxvCQOA4dnoc0aKp/UxxrGE4wD08getiTsBPP1rFZSj1/LfcfdJGMrPAEBzL82r6jgOa/DfoJOZsKdGJ3toCwnEnQBmAGh1T1qos5qq24+Nu190Lz8DAI091FTVenq/bS1HdH+kVmZKWXVxdfs4rWyiMSQQUwLOvYj1fyu1Kr5SRynLfnhueftpWtlFY/YgwABgDxz6/Ggqb/uMssWf8bS9jz5WbbcENpW8bqk63eyiPSQQRwJrMqLeuSd1K7tTd9nSuruxIv0p3WyjPdsJMADQ7EpYMEclcMP81Bb2DUoJUzPzdpmDFQFP2vWDX0iABIIjYNja3otOHYZA4MamivRPkkmlbX0WnPOC1cwAIFj+e2i/oKJr8or1bffghvnkHif0/KFtpaMnLlpFAt4QQH2h/b2IB4ZPZ1al705Wt2vXo+mNV8IhlQGAJn5KVnUcvUH1P4yb+VRNTBrRDKz0NZsR/YiIeJIEPCcwcA8qMdtzRW4oUOI0K2M/7NR1boijjOIJMAAonmHREuZWtM2xrEwrpte9pWhhfglQYpJ4uiMcFY9fTKiHBHwmoP7TeQJUTvRZbcHqMKD52IxtPZysTJ9csBBmdI0AAwDXUBYmqLGi9SJbqHsxjWffwiQEl8uy7PcGp52aSYAELMsK3z2o1FRLib81VrZdSA8GS4ABQED8FyxQRkN52zUYJPNLdPtrN4I3NywqfJVPbgVjKhIIBQFszhXKe9Cp85Rt34zBgT9w6sJQwI6gkQQfgFM/duITE3uWtv1eCPuyANS7phLBS3myvPsQ1wRSEAmQQM4EnHsP96BmSwDnbP5AQgwO/KJTFybnrJyQX06mdoMAAwA3KOYho7Gy87B1m954EO/7z8wjm7ZJLdl7hrbG0TASiDCB6Nx76szMus0POXVjhN2lZdEYAPjolmRl62xh96fR+Guzb7cLxT/LBRkUQQIkkD+BCN17qBNRNw7UkflzYI4CCTAAKBBcvtkaKtLnZmz5Dwz22z/fvHqnl6edc9KKKXrbSOtIIFoEkrNXYtCwjNQyu07d6NSRTl0ZLW/pWxoGAB77BoNdZENF25VCqd/hyb/MY3W+i3cG82zbtLXJd8VUSAIxJmBt3dQY3sHDIzkOdSTqysbK9HecunOklDxXPAEGAMUzHFaCs0lHU0VbSij768MmisAJ3KfzI1AMFoEEQkMg6vecstX/a6pML+amY95ekgwAPOI7v7Lz4NWW9X9Y+CLyT8eYijTnQ/WPHOARSoolARIYRCBZmz7QuecGHYrkV8xwmOvUoU5dGskCalAoBgAeOAFLXVb3qkybUKLaA/HaicSNam7r2zpPO8NoEAlEkIDdL+Y591wEi7Z3kVCHOnWpU6fufZJHiiXAAKBYgkPyN1W2NWGpy//De6xYRa3SFv8zBAV/kgAJeEAAg+Xida+hLnXqVKdu9QBnrEUyAHDR/U0VrV+3bYV3/mqci2JDIQqvOo6fW5F21iXnhwRIwCMCjRVtJ2Jw3AyPxOsrFnWqU7c6day+RobPMgYALvjskjNWlTVWpH9nK3ElRvrHduQq9jT4uAs4KYIESGA4AsqO8T2mpFPHOnWtU+cOh4jHcyfAACB3VllTNpzQs/+Lr6z7B6Jyzl0VIsk1AbJeJjxIAkUT2HFvJYsWFHIBTl3r1LlO3RvyogRuPgOAIlyQrG6fKbdsS6PLn9vigiMGJo3t3bTt/CKQMisJkMAwBLZt6v0I3v+PGeZ0vA6jznXqXqcOjlfB3S0tA4ACec6taj0zk7EeRKN3WIEiIpkN0fnnkkkVjxHKkfQgC6UjAeeeUsL+nI62BWWTU/daGeshpy4Oyoaw62UAUIAHmypbL7Mtid38xMQCskc6C55Qjsg81R77bspIO5mF852A/VT72ZhWfLjvijVXiPpmglMXY+XAL2huqpbmJbS0SlOjsCpVyRrL/ilGo16EDm9NrQzeLIzU+RKsWBi8JbSABKJBACvjOfcUP1kIYAaSIWzxw8by1uOmJcxP3tRR058lGQ9lIcAegCxQsh1yNt9Ybdn3oosbjT8/IxHADVk1tzJ9ykhpeI4ESCA3Apj/firuqcrcUsc3FR7JLkQd/bfz61qnxpdCfiVnAJADr2RN21uw+UYrRrnNySE5k4CApdTlBEECJFA8ATx08F7KFaNSJ2/sk61N1e3H5polzukYAIzifSf6zmTUwxhwcvQoSXl6MAElTnMWLRl8iN9JgATyI4BR7ichAHh3frlinlqpo5RlP4xdWMltlEuBAcAIgLAb1SdtZd+DJ//JIyTjqWEIoNvyu8Oc4mESIIEcCFiWzXsoB05DkyBo2kcK+x4EAZ8eeo6/dxNgALCbxa5vzpSbxvK26zHY76cY68eBkrvI5PkF3XGMwvNkxuQksIPA3PL209CQvYNACiOAXlsTW7H/pKki/RNOTc7OkAHAEC7octvHerLtz5hze8mQU/xZAAHJXoACqDELCQhhSz79u3Ed2Ep9OrMqfbdTt7shL0oyGAAM8mZTbduRGctajq7r0wcd5tciCOAJphbTcxqKEMGsJBA7As7Od7h3amJXcK8KjDFJVsZ+eF51+1FeqQijXAYAO7zmDFiz+xVG+ovjwuhIrW2W4jqsoRC7HRK19gmN05aAc68oZV+jrYEhNQwPdsf2WXYrNhOqDWkRXDebAQCQJqs6qtHlfzcG+01znTAFOnsEHLbWVt8kChIggdEJrLasBc49M3pKpsibgFLOGgF/wzTB+rzzRjBD7AOAC+Y8M8ayrD/hyX9SBP2rTZHQnXlZU3k6fvuYa+MBGhIGAg01bcfDzkvDYGtYbURdtI/K2Hc5dX9Yy+CW3bEPADauX30euoYOdAso5WQngJuuxBbq5/grs6fgURKINwHn3pAZ9XPOPPL+OnDq/I0bXrvAe016a4h9AIARoty+1r9r9KSmqvaP+aeOmkggPASw7siFCAK4eJZPLkO89WGfVGmrJvYBAB5HD9HWOxE0DBXc1R+qbudYiwj6lkUqnECysnM/PPlfXbgE5syXAHoBYl/3xz4AQKfblHwvHKYvggAG4fRa9g+KkMCsJBA5Apbq/yE2s9k3cgXTu0Cx5x37AADXZ4/e12j0rEMvwAXYv5srnEXPtSxRAQTmVrTNwah/voosgF1xWWRXcfnDnzv2AYCU4v7wuzF8JUAQ8DPMdy4Jn+W0mATcI5BMrizFOKSfuSeRknIlIIX8R65po5ou9gGAMuXSqDpX63Ip8dbVGfsKrW2kcSTgMQFr1abvOAvUeKyG4rMQkIYR+7o/9gHA0vbaRxEJdma5PnjIewJfbqxof5/3aqiBBPQj0FSVfj9Gon9JP8uibxF6fnuaO6tXRL+kI5eQO92BDy6G2/AOrmpkVDzrPgGsCaCs2xorO6tauqqec19+dCVOmrzfFzZvXPs1HUo4fuLUXh3sCJMN8yu6Du+1+n4Dm7kuRgCOU8pw2Mf+w4sPl0DDCT37iy3bXuICHAHdD1KmE9PHvz2VmtEXkAVUSwK+EXDe+1urNj+AcTBck9436rsV4YHPKisbd8idrTNf3X00nt9i/wrAcfvSh8pfE0r+JZ6XgAalVqrOenLLDzWwhCaQgOcE7FWbr2Xj7znmkRT8lY3/djwMAHZcJtKQ7BIa6Zbx+Bw2Y7qkoaI16bEaiieBQAk0VqXnOfvTB2pE3JUb8ra4I9hZfgYAO0gccuDkP2IwwPqdYPg3AAJK/Kqpomt6AJqpkgQ8J5CsaXuLstQvPVdEBcMSkFJumDRpv98PmyBmJxgA7HD4DfdM75VSLYqZ/3Ur7kQl+pYkZ78wVjfDaA8JFEPAuaYz/SoFGROLkcO8xRHAaouLb112xLbipEQnNwOAQb40heBrgEE8gviK2RizMlte/kkQuqmTBLwiYG195adCqJleyafc3Ahgyjfr+EGoGAAMgpHqql+OCyT2y0MOQhLU1481VrRdHpRy6iUBNwk0VqS/6ix/7aZMysqfgDP3v6W79sH8c0Y3BwOAIb7Fa4AfDznEnwEQUMq+urGi9aIAVFMlCbhGoKmi7WI0/v/rmkAKKpiAlMb1BWeOaEYGAEMce/BB+y7E4givDTnMn8EQ+HlTZVtTMKqplQSKI+DMakHjz3X+i8PoTm4p10zcZ9od7giLjhQGAEN86QwGxOJcvxhymD8DIIDxAKZtq9vnVqZPCUA9VZJAwQQaKtreLZX8Hdb5Zx1bMEU3M8pfcPDf3jx5ce7NRIiE8TNMF+nPdorH/CagyhAE3IX3qFw1zW/01FcQgabq9nqp1FI0/qUFCWAmVwk4dXmZNDEIk5+hBBgADCWC3y0dNa/gz+Isp3goAAKYujMB/+6ZV9VxXADqqZIEcibQVJ6eoTLW3Wj8x+eciQk9JQBfLFnYVfWyp0pCKpwBwPCO42DA4dn4f0apqf1W5t5kdfub/VdOjSQwOgFngx8l1V8RrO47emqm8IuAYZqsy4eBzQBgGDAt3XVtWBlw+TCneTgAAqhY35TJ2H9LVnbuF4B6qiSBYQk4G4r1ib57MW7lkGET8YTvBDCgu7W5o6bVd8UhUcgAYARH4d3RtSOc5qlACKhjLDvz98b6njcFop5KSWAIgfm16UOxm+g/0PhzGeshbIL+iXVdWIeP4AQGACPAae6sacYF9OgISXgqAAJ4p3e82tb7kPO+NQD1VEkCuwg01LQd39evlmMr8bfuOsgvehCQ4rGZDbVL9DBGTysYAIzgF/QAKHQhfWeEJDwVGAF1qC3FA3OrOt4emAlUHGsCycr0yTKjHmC3v6aXgTS+s2CBtDW1TguzGACM4oYl3bUpBAIrR0nG00EQUGqyjYGBXCwoCPjx1uks8pOxxV+x0M8+8SahaemleLz8gzWcyTWKexgAjAJooBdAiStGScbTARHAwMAxylaLm8rbPhOQCVQbMwINlenPom9wITb3KYtZ0UNTXINP/zn5igFADpgG3iPhfVIOSZkkAAIYE2DYwr6hoTx9VQDqqTImBPC0L7E/xdXCVj92rrmYFDt0xcS4rSdmfrCGW7vn4Dm84uYnFwKNVel5ylKI+vnRmQB2/LptmmledFNHDVdy1NlRIbPt4ur2kjWW/WsEAeeGzPTYmWsYxjnNXbV3xq7gBRSYUWyO0GZ9oDYl2AuQI63gkmFA1vmrLetPydkruRhLcG6IlObz61qnovG/m42//m7l039+PmIPQB68Girb5gvbZmSZB7OgkuLCftEwE+cs6az+V1A2UG/4CTgj/S2lbudI/3D4Ej2A57Z013PXvxzdxQAgR1BOMucdIEacp/G3Jo9sTBoQAVQGFlZz/PasD9Z+l9OBAnJCSNUmk8q0VqW/IZT8Bt/3h8OJePrvbO6urXEGbofD4uCt5CuAPHzgXFimaVyaRxYmDZAAntpMzBC4oueutvvnV3YeHKApVB0iAsny7kOsVW1/x/XzLTb+4XGcaYjL2Pjn5y8GAPnxEqmOmgfwZMnVpfLkFmhypeb0qkxPU0XbewO1g8q1JzC3qvXMjOzrQS/fO7Q3lgbuIoCGf2mqq+6fuw7wS04EGADkhGnPRLLE+LIQsnfPo/ylNQGlptlK/amhvO0aZ0S31rbSON8JJJMrSxsr0tdZlvgj3vVN9d0AKiyYALr++0pM40sFC4hxRgYABTi/ua32aSHV9QVkZZZACTgrO9uXYUT3Q/Oq248K1BQq14ZAsqrjaOvJzcvx1P95bYyiIfkQuGFRR81/8snAtNsJMAAo8EpImOZ30e20usDszBYgAWcQZ1/G6mqqbL1swRyVCNAUqg6QgNMT1FCR/qJlZbrwrr8qQFOoulACUq6dJEuuLDR73PNxFkARV0BTZfqTtq1+WoQIZg2aANZ2wNDOz7T0AtA2dgAAOvRJREFU1PwjaFOo3z8CcyvTp2B63w3Yxe84/7RSk+sEpPGZpd21N7ouNyYCGQAU4ejtU4XanAFD3Ja2CI46ZMV7xIWmKP1iqqfiJR3soQ3eEGis73mT6t12LRr+pDcaKNU3As6GP5PrZi1YJjO+6YyYIgYARTq0sbz9nUpYfy9SDLNrQAA3wyaBTUSmmfI6LiWsgUNcNMEZ5Gc/tfkyZYv/h+7+8S6KpqiACJiGPHVJV939AamPhFoGAC64EaOHb0EvwEddEEURGhBwlhOVhrwE64nfp4E5NKFIAnPL20+zsFkUlvI6pkhRzK4LASl/s7S77gJdzAmrHQwAXPCcs+68tWXT41h+an8XxFGEJgSc9R5M0/wC1n54XhOTaEYeBOZXdB3eq/qvQcPfmEc2JtWcgDP4ekKpOu62dP1azU3V3jwGAC65CEsEf8i2ba5B7RJPfcTIXkOKmw1VehXHB+jjlZEscd7zi97er+E9/4Xo7i8dKS3PhY+AIeR5zT11vwuf5fpZzADARZ80lqfvQYXzHhdFUpQ2BGQvXg3cVGqY31vYVfWyNmbRkF0EBpbwlX1fwxK+F+Kpv2zXCX6JDgEp7l3aXX96dAoUbEkYALjIf6DLUfSvxEpi41wUS1EaEcANs00Y4uYSw/wRFx/RwzEDC/nY1qVs+PXwh2dWSLklUVp2fCpd/oxnOmImmAGAyw5vrEx/ARvQ/NBlsRSnGQH0BthCit8bhnkdtxwOxjnOVr0ZpS6VSr4fPW9c1CwYN/im1ZDG5djt7we+KYyBIgYALjt5YG2AJ7FlMFcWc5msvuIwKKkdXc7XHXLQvs033DOde0R46KoL5jwzZuO61XMx4PZS3mMegtZNtJTd5ZNraznn313HMABwl+eAtKaqjlm2ZaX5HtIDuBqLxM30OnoGfidM81fNndUrNDY1dKYlK9IVllQXYh7/uTB+SugKQIMLJoB7qs+Uoj7VXdddsBBmzEqAAUBWLMUfdNaZt22BKUj8xJGA0ysgpfqVMWbC4tTyGa/HkUGxZT6/rnXqpj45b8dofq7VXyzQkOZn1793jmMA4BFbLAwkGyva/oZegFM8UkGxYSAgRQbvqO8XhkxNKLHv4tzlkZ32oer2aX2W3YAu/iS6+N+Jxp+bNY2MLNJnsRbHP2adVXfqggUYc8OP6wQYALiOdLdAZ1pSRvQ+giPsstyNJb7fEAyg8H+XymgRhvmXlq6q5+ILY3fJndkz/bL/DIziR8PPRn83mZh/k3J9WYmYtbCt7oWYk/Cs+AwAPEO7XXBDRWsSTzGLPVZD8SEkgHebTygp/mpK+Vc55sBlqeWHbg1hMfI2GdvwjltrqTmYLns6HuuwbgaX6M0bYgwySFPOb+msWxSDogZWRAYAPqDHnuO3orL7iA+qqCK0BCRmD6g2dHk+hA2JHjSFuTzVVbU6tMUZZHjDCT37G1v6T7CFdQKCnhPwpF+DsnKhnkGM+HUIASl/h7X+zxtylD9dJsAAwGWg2cR97MQnJq7ftKEH7zWPyHaex0ggGwEEA6vQe/SwknKFYahHSlTJI7qvQjjw2svsm2nYcqYt1CyUazaC36OylY/HSCArASmeHVe2b/ntrdPfyHqeB10jwADANZQjC8KAwBOFsP+Jpx9z5JQ8SwLDE8AN+zoCgkeEko8jQHhGGOo5KY1nSxNlz97ZOvPV4XO6d+ZD9Y8c0JfpPVwp+3BlqcOlgcBWyeMw8HUmtHC8i3uoYycJ17RlGIl3cnEtf1zPAMAfzgNaEARcjkrzah9VaqvKudExUWIZ/rbgKfciDP6q1NbYkBgGlluVkM4+Bc4uabv+4fhaNNAb0e3eJ6TzqkHgr+qTtjGwaJEy7DKcdzbNKcXTOrrm8V2qiQhWp+LYVKnENKx6OBV+morjB+H4WBznpwgCqHgfxpbTt2GqcBOmi87hg8F2mIYhv9rcVfe9ItAyax4EGADkAcuNpA3l6WZUxLHcnhTvf20MevsXLrrFalzZkqUPlb/mMHVWd9uwbs116CH5hBuMKYME9CWAcEqIq8un1H5j56p2ycrO/WyRmWsrMQ9n345gOJbLGiNQvQuNfyPW0HAY8eMDAQYAPkAerMIZD7Bu0xttCALeMvh4VL8PNPpCPYRu4sVmQqZSbXX/Ha6sc6vSjZalbsZ5diMPB4nHQ0sA98J/8dR/XnNX7X3DFWLg9cq2bUlb2Gcj/YlxCQbQ+K8aW7ZvDd/7D3dleHOcAYA3XEeUioj/rZadcfYLGD9iwtCexNI3Uix3nvRLZCKVz8C1ZHX7my3LvgPvkzFmgh8SiAYBNOZ/UePLPrKz1yuXUjVWtx+kbDuJ5+Gz8YrgBDw0RLK+BpvNqkS+bWl77aO5cGEa9whE8oJyD493khqr0vMwgGqhdxr8loxGX6hWJYzFckxpqqW1/MVCLXA2VMqsav+2VOqrcXkCKpQV8+lNAN3Z/ejP/lpLV+01xXRtb19UrB+9AvbZGOdRH6VgwDCMc9ArcqfenoymdQwAAvRrU0XrtXjvd2mAJhStGpVaGyq4xQnTWJzqqHm+aIGDBDSWt79TSft3GJh28KDD/EoCoSCAJ9unMXhyfkt3HV75ufeZX5s+tC8z0CtwNu6NOvck+y/JEPL65p66z/mvmRodAgwAArwOFsxRiZ516b/DhLcHaEbeqtHoY/tbmSoVicULuyufzVtAHhmcteF7LetWdIG+L49sTEoCwRKQ4k7MZf+E1++0Gys7D5PKQq+ASuK1WW2whc5PO+qRB6eZxjtv6qjpzy8nU7tFgAGAWyQLlJOsTR9o9YtW3LxvLlCEP9mwHzeeNhYapUaqua32aX+UbtcCNnJuZdtnEQR8N7rjJvwkSl1eEUCF+qKU5iXN3TV3eaVjOLnJup4jrL4+LD2u5uM+0XxarXxBJoz6lo6aV4YrD497T4ABgPeMR9XQUNN2vMjYD2Ke9aRRE/uYAAP5VuACWYyFORalOquf8lF1VlUDXZ994jpUbk1ZE/AgCQREAPeKhXvlemPyhG+mls3YFJAZu9TOq24/qt9S8zC11hlAWL7rhB5fNhpm4qTmzuoVepgTXysYAGji+4aKtnfjZr0bQUCg25/iveWjAlP2SkrUokXp+ic1wbOHGQ1V6fdgRYEbULEdvccJ/iCBIAhImcZN+/FUd113EOpH0zmvrvWY/l55NtLNQ/B8/GjpPT2PHTENQ5zZ3Fn/V0/1UHhOBBgA5ITJn0SNFa0XoVH7pT/aBmmR4jFcCKkSPOkv6qx+fNAZbb9ecsaqspdeWf8VoeyvYBDiGG0NpWGRJYB32BtQuK/NOqv252HZr76puv1YzD5CIGBjAKF4q9/OMaTx8ebu2pv81kt92QkwAMjOJbCjWCnwKkzx+Yr3Bsh/w/mLMf92cZjn3zpdnX2WfQPee57hPTNqIIHtBNBTttAsFZeOtLCV7qyc9UgydmYe6gFnEOGxXtuL1yTfb+mu/7LXeig/dwIMAHJn5UtKZ8BbY2XbQjRoTpedqx/cgKucefqYd7s4au/fGstbGzA/+scIng51FRqFkcAgAriHnjKU+eklPTX3Djoc+q9YgGtmxhkzoFQS99AxbhcI3JZgmd+z0WvCZX7dhluEPAYARcDzKquzNv4b61ffj2DghKJ1SPkf50lfYhne5vbarqLlaSzgvNN6xm9e3fsVYavPo5aZoLGpNC1sBKR8GffRdzFt7ZdRn7aWrEhXWOgVQCCAqYXFj7MBt4cnTdn/nbcuO2Jb2NwedXsZAGjq4R3z3+8rZAQvnPoMVnhImUZiMUbvd2haRM/MOr+udermfuNLylafQddmRJdb9gwfBQ8mIOUa/Lw6MfagG1PLD906+FQcvmM54ioMuD0bSxLjNYE4It8y48l/hSlLTk11Va3ONy/Te0+AAYD3jAvWkJyzcoK1ftMiBAHvHU0IbrTn8F4yhZt0sdsrj42mW9fzA7usqczlthCfQtfmOF3tpF0aEpDiDUPKa/YZN+m6Wx48Flsp89NYka5Fg7Fj0SFx2KhEpLh3yvh95pLfqKQCS8AAIDD0uSl21sW3n2z7EBr2S/E0WzU4Fxr9VXDgnxSe9Fs6qx8efI7fdxNwdljbtm3b5VLan0Qwxb3sd6Pht6EEpNyChv8GY8y476eWz3h96Gn+3k4Aswnq7YzCO327CffUHsGA89SPnUF+YBxTe2cqJfE2gR9dCTAA0NUzWezasdLXwXDaPkaJ6gzzCOQsxfP8kLPqYqZffAWbDH0cARWnDnpOPDwK0HvWh+Wtf2GWqv/lfZWf35z7SmVkpS3UZiESz7V0VT2XnwSmDooAA4CgyFNvYATmV3Ye3G9nvowK66MwYmJghlBx8ASkXIv58L+UY8puLGYHy+ALQgtIIH8CDADyZ8YcESHwsROfmLhu88bzsQIjxgj4vyhKRDCGshjopu4R0rjBHHPgHXEc3BdKp9Fo1wkwAHAdKQWGkYCz9TACgU8rqT4Y9HLMYeQXBpvR6FtYZuP3CUNcn+qq+2cYbKaNJOAlAQYAXtKl7NARSJZ3H2KJvo/D8P/BoMsDQ1cAGrwXAVRyr0vD+KVhyJ+mOmqe3ysBD5BATAkwAIip41nskQlcXN1estrGroO2/WmkPGnk1DyrJQEpOlDB/dwce/Dt7ObX0kM0KmACDAACdgDV60+goSKNXRq514D+nhpkoZTLlnbXvXPQEX4lARIYQsAY8ps/SYAEhhDAu+PYraY4BEHofqJiaw+d0TSYBHwmwADAZ+BUFz4CUhkMAELmNltK+ixkPqO5/hNgAOA/c2oMGQHDFJ0hMzn25paW2PRZ7K8CAhiNAMcAjEaI50kABDAOYA3GAUwljFAQ2Ij9MPbh1rOh8BWNDJAAewAChE/V4SGAXcz5Tjks7pKyk41/WJxFO4MkwAAgSPrUHR4Ckq8BwuIsQyh2/4fFWbQzUAIMAALFT+VhIYAnSg4qC4mzbEFfhcRVNDNgAgwAAnYA1YeDgFFSyqfKcLhKGCZnbYTEVTQzYAIMAAJ2ANWHg0AqXf6MkHJ9OKyNr5XY1nfzzPdXPxlfAiw5CeROgAFA7qyYMu4EFBcE0v0SwP4NXQsWSFt3O2kfCehAgAGADl6gDaEgIKXiOADdPcWxGrp7iPZpRIABgEbOoCmaEzAkxwFo7iIO1tTcQTRPKwIMALRyB43RmYApTPYA6Owg2CZtTgHU3EU0TyMCDAA0cgZN0ZvA4o6q/wgp3tDbyhhbJ+UW45jaJ2JMgEUngbwIMADICxcTx5nA9tXl+BpA12sA65p3p1LS0tU+2kUCuhFgAKCbR2iP1gSwJDBfA+jqIcnuf11dQ7v0JMAAQE+/0CpdCbCR0dUzQiiuAKivc2iZjgQYAOjoFdqkLQEzwVXmdHWOyRUAdXUN7dKUAAMATR1Ds/QkMOPMmlV417xJT+viaxV8sm3GxOrH40uAJSeB/AkwAMifGXPEmICzypwSoivGCHQtes+CZTKjq3G0iwR0JMAAQEev0CatCXCxGQ3dwxUANXQKTdKdAAMA3T1E+/QjIDkVUDun0CfauYQG6U+AAYD+PqKFmhHgioCaOQTmmIr7NOjnFVqkOwEGALp7iPbpR+Doyn9ja+At+hkWV4tk7xTTWBnX0rPcJFAoAQYAhZJjvtgScFabc1adiy0AzQoupVhxU0dNv2Zm0RwS0J4AAwDtXUQDtSTABYH0cQt9oY8vaEmoCDAACJW7aKw2BLjqnDaukPSFNr6gIeEiwAAgXP6itZoQkIbZqYkpsTdDcQXA2F8DBFAYAQYAhXFjrpgTmDmp6jFn9bmYYwi8+FiTod88cuyjgRtCA0gghAQYAITQaTQ5eAI7Vp3rCd6SmFugxCOp1Iy+mFNg8UmgIAIMAArCxkwkAAJcfCbwy0BJbs8cuBNoQGgJMAAIretoeOAEuPxs4C4wOAMgcB/QgPASYAAQXt/R8oAJSFNwIGDAPlCcARCwB6g+zAQYAITZe7Q9UAJTlXxUCsn3z0F5QYrMIQdNWRGUeuolgbATYAAQdg/S/sAIOKvPKakeCcyAmCvGLIyVN9wzvTfmGFh8EiiYAAOAgtExIwlgHKCQHeQQDAGlOAAwGPLUGhUCDACi4kmWIxACDAACwT6gFGsAMPgKDj81R4AAA4AIOJFFCJCAtDkQMCj8XI0xKPLUGxECDAAi4kgWIxgCBx+47yPOanTBaI+vVuwAaJll+3MhpvheAiy5CwQYALgAkSLiS8AZhKYwGC2+BIIpOab/PZZafujWYLRTKwlEgwADgGj4kaUIkIBUiu+ifeaPHgAy95k51UWPAAOA6PmUJfKbAJcE9ps4pl8ojr3wnzo1RowAA4CIOZTF8Z+A5Ha0vkM3uAKg78ypMHoEGABEz6cskc8EjNIDVmBBgIzPamOrDlMv7X1Nozu2AFhwEnCJAAMAl0BSTHwJDAxGU/Lx+BLwt+RYffEJrMK4xV+t1EYC0SPAACB6PmWJAiDAQWn+QZdcAdA/2NQUaQIMACLtXhbONwIclOYfaq4A6BtrKoo2AQYA0fYvS+cTAQ5K8wk01EiuAOgfbGqKNAEGAJF2LwvnFwE59qAuDAR8wy99Mdaz7qADJqVjXH4WnQRcI8AAwDWUFBRnAs5AQEPI38aZgT9lNxZxC2B/SFNL9AkwAIi+j1lCnwgYCXkDBgNyeVqveEu5BYx/7JV4yiWBuBFgABA3j7O8nhFItdf+G8Iv8kxBzAUbSny8uaPmiZhjYPFJwDUCDABcQ0lBJCBES3f9HYYwLsFQtV7ycIuA7HWYNvfU/c4tiZRDAiSAWooQSIAE3CfQVJ6eoaT4kRJqjlAi4b6GGEjE6opY9e8fKiEvW9pe+2gMSswikoCvBBgA+IqbyuJG4IKKrskbRN+7caNVIN4+DsHAcVjJ7mgGBUOuBGcpZSX/I6VyVlR8DFssdydM895UR82GISn5kwRIwCUCDABcAkkxJJArgYur20vW2cZ0W1jHKVsdh364gcBACDUdDd+EXOWEMR0qnE0IhFahzI8jCHpcGvJxQ5iPTzHsVVjetz+MZaLNJBBWAgwAwuo52h1JAsnZK/cVWze/WQl5mC3tNwtbHoYegzej0TwMS+DiuDgAgYKm9y0sFOo1IeVzUqjnYeZzyhDPm87fhHjeKBn3XGr5jNcj6TgWigRCSEDTiiSEJGkyCfhA4JIzVpX99+XN02zTmqosNVUY+GeLqUKqffFEjb/4h78YezAZDXEZTCpFo4y/shTHS9EwlykpB/5uPzdgdB/O9wmlnIGLfTiPv8o5NvDbOY538eshe61S8nVMdVwLWWuFgX+2XCtNudawzLUHHjx+DefoD/DkfyRAAiRAAiRAAiRAAiRAAiRAAiRAAiRAAiRAAiRAAiRAAiRAAiRAAiRAAiRAAiRAAiRAAiRAAiRAAiRAAiRAAiRAAiRAAiRAAiRAAiRAAiRAAiRAAiRAAiRAAiRAAiRAAiRAAiRAAiRAAiRAAiRAAiRAAiRAAiRAAiRAAiRAAiRAAiRAAiRAAiRAAiRAAiRAAiRAAiRAAiRAAiRAAiRAAiRAAiRAAiRAAiRAAiRAAiRAAiRAAiRAAiRAAiRAAiRAAiRAAiRAAiRAAiRAAiRAAiRAAiRAAiRAAiRAAiRAAiRAAiRAAiRAAiRAAiRAAiRAAiRAAiRAAiRAAiRAAiRAAiRAAiRAAiRAAiRAAiRAAiRAAiRAAiRAAiRAAiRAAiRAAiRAAiRAAiRAAiRAAiRAAiRAAiRAAiRAAiRAAiRAAiRAAiRAAiRAAiRAAiRAAiRAAiRAAiRAAiRAAiRAAiRAAiRAAiRAAiRAAiRAAiRAAiRAAiRAAiRAAiRAAiRAAiQQGQIyMiVhQUhgB4HGivTtSqlzCgEipfh+S3f9lwvJyzwkQAIkECYCiTAZ64Wtydkr9/VCri4yJxpm/y0PHrtRF3toBwmQAAmQgB4EYh8AZLZsWquHK7yxYr2Qf4HkM7yRTqkkQAIkQAJhJWCE1XDaTQIkQAIkQAIkUDgBBgCFs2NOEiABEiABEggtAQYAoXUdDScBEiABEiCBwgkwACicHXOSAAmQAAmQQGgJxH4QYGg9R8NJgARIIOIEzq1fNam3b12tssXUkYp68MFTfn/DPdN7R0rDc3sTYACwNxMeIQESIAESCJhAY3lrw9Ztr9+mhJgwmilrXt92INK8Olo6nt+TAF8B7MmDv0iABEiABAImkJyzcgIa/l/l0vgHbGqo1TMACLX7aDwJkAAJRI+AtWHLu1CqKdErmV4lYgCglz9oDQmQAAnEngDe+Z8cewg+AGAA4ANkqiABEiABEsidgJTqHbmnZspCCTAAKJQc85EACZAACbhO4GMnPjFRCFXpumAK3ItA7GcBSCGf2ItKMQekmq6UMAsWIcUbUsmXC84/NKMULw49xN8kQAIkoCuBN7ZsPKmoOlTXgmloV+wDgJaeuuPc9EtDRXo1otdphcuUf4BN5xWenzlJgARIILwELJvd/355j68A/CJNPSRAAiRAAqMTkBwAODokd1IwAHCHI6WQAAmQAAkUSeDi6vZxUoiaIsUwe44EGADkCIrJSIAESIAEvCXwum3PVkqVeKuF0ncSYACwkwT/kgAJkAAJBErA5vx/X/kzAPAVN5WRAAmQAAkMS4Dv/4dF48WJ2M8C8AJqXGQ663XbGzYdawvjaEOow9F1N1EJOR5RZcJWYq001BopjDXgsRozI1e1dFU9Fxc2uZYzmVxZKp7e+hbbEkcJaR0JflOkUuPxdwxkrFdKrpaGWAOma5Stnl/SXfuYxCopucrXNZ3zrvd1Zb3LtuVModRxQoqpmPo1UUhp4x3wi/j+gpTiBVMmlqW6qh7TsRwNJ/Tsb/T2H6EsgVk/9n5wyjQp1H6YWjx+5/WvhLHaFGq1kuZq46gxT6RSM/p0LEshNjXW97xJbet9N3w3G+U+RAg5GXJeFUo8jXv/qbLxYxfd8cCsdbnKvmDOM2M2rFtdn2t6piueAO41ftwkMDANUBUxDVDK3y3t1ncaYFN1e73K2Enc9FiqU1XmNV9Xyv/ggrsfzdf948vU/bel69e6yX6nrMaK9O0IRs7Z+Tufv2h0vt/SXf/lfPLkm7apogtrRfTPE1K9C3nfBoZjc5UBfq+hov078t5fKkrvW9hd+WyuefNJB4YPIv0+I+WB3TZikeexbsXC5p66342U1jm3YI5KPLqh/d0WfIMg5yw0mKPu8ubkQ8DTjvLeNqFE3OHVNePoGe0zEPCu34IV6uxTbSVPxfU/c7Q8g88jMNispPg/Q6r7hEzct6Sj6hEvg7mmytZPIID8zGAbsn2HHzB1WfQYJfL65rbap7OlGXxsbkX6BAQ4X8Gx9ymhhu9FdtY0kfL6aYZx1U0dNVsGy3C+O8Gv/cyWGcISlbiUUJfIOgSDdUPT5fj7X7hScg6uELDc2NJTvzRH2ZFNxgDAZddGMQDA01rJGtv6BCL7S1DpT3cDGSrDPgQRt5qlZd9LpcufcUPmThm6BgBNFe1nKWV9GRXu23baWvxf+ScjYVzZ3FHTWrys3RKwFeta2Lnv7iMjfxspcFqwQBk9d7V/EpXutxCY7TeypBHOokERSn5+aU/dr0dI5fqpZGXrbEuJr6OBOQ32uzlA7VVw+/mYCWN/nM+Tcq4FbKxMfwO9Rlfkmh6N9YZSUVIxXFB5bv2qSVt71/0IdcAFCH5ybjvGjBl34J2tM189v6516sZ+eS4eALDKn7PSn3yryzxzLaoQhvzc0q6663PPEM2Uw0dv0SwvS5UHAdycsrEqPW9Nxn4Cm3Nc71bj75iAJ4dSyL8407ftycaK1t8kqzqOzsO0UCVtrGg70XmitpW11N3Gf4DkmXbGehjy/+boCQoMynVZY2XnYUP1N9W0Va64q+1hoeyfwN+FN/4DRRWTcOXcguvlT/MrOw8eqsvt38nK9MkN5en7MrZ4CNf++zxorA6A3G9t3bT12YaKtiudBtLtMuQjD+Xbp1dlsvZ+Od39W7atewBpPppP4+/0WDmNv2PHpn45Q9jqx5BxAcpd7gHPfIrLtCDAAICXQVYCTjdfU2VbWllqIRrrI7MmcuOgEglUBudbltXdUNk23w2RushI1vUc0VDRepdStlNxnuClXZB/Kv79q7E8fYXzxO2lrqyyB/yYSe4859iAxvMqvC5qg121O4+78ddpjPvsTIdXQaMTyKAnb1nGVsvQ2J3ihs0jylAIbJT99U294tmmirYvjZjW65PSfs9QFcmKdIXq7UUPU36vPAbkSLliqDz+1oeA/xWFPmWnJcMQaKpI/48txDJU3L4tyIEgY7yw7TvxJHud8654GNNCcxjdr+/I9PW2oavjg/4ZrdC7qr6xYmnbn5OzV+bcfe+afUp9wJF1yRmrynruSi9Eg/EVNNaF74sxgmEo54EZO/M3t3sCGqrS7xF2fyfeRZ88gnpPTqEXZYKt7O8jcGreviGOJ2pGFqrE4YN7IhqrOt6GMRv/Ao+Celzw2ueRkRXybJAEGAAESV8z3duf2tqusZW6CY2/m+86cy4p9H6+Z33b35wRwTln0iwhKvCPClv8DZVmIF26aBzfY23Z1D6/Nn2on2gwruNE56n8xVfW/RWBz67eAM9sQGPVpzL3uhHs4LqTeIXyLWmJP6Mh9j942gOSaly/6Y30vKqO4/Y47NOPLX3GwODGxur2g4RttTiBSaGqMZuFPQCFwvMhHwMAHyCHQUVy9gtjV9yV/gNGOF8WuL1KzdmwfvUvA7ejAAPw2uR7ePK9BY1waQHZXcuCSvuIvj7xe2e6nWtCRxGEMhuWlWn18+kZDfeMzNZNPxnFtBFPDzT+lW0L8apmgVOGERP7dBJ2HNsHlsnytkJHxRdsqSXVrIHpqRk0/kodVLAgJ6NpMAAoCqC3mbW42L0tIqXnQsDa8vIvnHeruaT1JY1SHw78fWieBW2sbL3Etu2sg6jyFOVKcjQilast+9euCMtRSCBPz0p8aG5F25wcTdwrWWNl+3cQtJy914ngD0xEY3yX2685RiuWtNUsa9XmG+HLomarYIaDNWni1Md26jOUyOz8zr96EGAAoIcfArWiqbztM7jZtduCGE8f35tb3n5aoHByVJ6sbj8JM6OuyTG5f8nQsDVVpp0525H+2EL9pJCxI5hRcI4zAE9XOM4TOF5z3OXnKzFM8EtC70VFM1Fy1a3Ljti2U46UiVWY+oeqhh9dCDAA0MUTAdnhTB3D0LFr3VCPiP8lZ9EW/LsP/9pws79QjFynO9YW9o8DGdWeh+HOu1LLshej0ix63ASmTb2OlW+6we5+MHwI3/+D9RKKenKCXd9M1qYPzKNIoUuKMs7o2dD2qXwMH+heV+JX+eQJIi3KVvvG+tX+2enMSnDhg3pljwGAWNFxNdr/H7ogmiJcIhD60dYucYilmPNO6xm/6bXexej+LLjhQoP1opDGNaUicVe2BUTwZPxm27bmYpOPywH5gHxBO+9CV/y+/Vzk+22+ef1Kj6lusK2od6UbDcP4KTjekW11uHNOWjGld9PWD2Cc2hfB4/h8y4VXO2OtPvk15PtsvnldTb89kHkRgwVfQjlext8ycDsc9s1yRY8tPg051+ciywkqMVPhVgxWdGewKYI23AuPYdT7q/DTJgx+209I+yA8777djdciCALOaaxsW9TSVYtxOuH4YIXIvd7/L+2uvxwzZP6E3rK3SWHvrnekMbG412fye1hhcVOuZHDNLc81bZTTMQCIsndHKdumV7c5y4QWNL3HEY016n9xyIH7fu6Ge6b3Dqcq1VHzPM5di0DgV1bG/jkq/vnDpR3uOCq/b6F7984Fy2RRT8LDyS/meENVx7uElTmlUBnoNfmHGjdmfvND5VjiF0zRigz97Fgl7jdgcPsjG9q+Ztvq20PTjPYb3C/GrIAfLGyrK6pXZjQ92c47vUJoEG8dY8pFd3bUrBmaxlkvwerr/Rr8XGS3szrGWb9iSXfdQ0N1DP09EFQqUdQoe7hqG3pnrhay5NfD7XPhvJZ4ZEP7HGXb3yn2nTpeVVwBRn8Ez3B0oxt7BwCOH1q66v4Pf5x/uz5OD5XdJwoePzNmzNgf7VxwaJdQfhmVAF8BjIoomgmcdc3R2nyx4NJJ47stXfWfGKnxHywbgcCGWQ2156Lyun3w8Zy+K3XUivVtH84prd+JrEzejfFOE9HY3z1rct1pS3c0/juPD/fXCYCau+quwPpdlw2XZvjjqqyvf2D99uGTuH1Gyi3w96dbuutql3bX3pit8XdUOktBI83/GFJcUKwJWL/io6PJcJa2xop0C0ZLN/J5iXX8S2dh34gFwzX+Tv7tPqu9b1ZD3Yn4WdRYDDy1lmOwo/fTK0cueE5n4ffnx+9Xen9OiZkoMAIMAAJDH6xia/3mS9D1P60gK6S8p6Wr5hv55l2wQNrm5PGfQMP3XL55Ufk15ZvH6/SY8ncqdJxUiB48PT4ztmzfDxXSq7G0p/Y6dJ//JW+9SjTiCRKqvf/Axy8lErIKDftPc9XW3F3/GzxR/yDX9NnSoXzzRpv6uCajPoYekSOz5c/pmBTPyoRxenN3JQa15fZxrv2lPfVXS2ksyC1H9lR49P92MqnM7Gd9OboOjftN0pBfNKVxFv6eLEx5hjSMi3BNfgcW3IJ+rCuwi+MZv723fPP/b+9awKwornRX92WGYQZwgAFRo4LAoojzviMmG0VQjI+YmXFW0G+N6/rF7EZjNrrJboKGJEZjkn0Ek93E+MJEUYeZMbobFR+LGsW584aAIKLyuYRFHoK85nG7a/+6zIzzuI/uqr739u177vfBdFfXOXXOX91Vp05VnUqJRFSINAI0BSANXeYSihXF2Gd/m4wG+Pj7DN34Ov5KuSHr1807jJXXd6Hs3zgpH73WQrE32UvHqSJg0nInOgzLq+vfeqx59ifD0hzcMMP4NjfDlzggwXQ3P7GmrEPMt3c5oXOaF3X1EeRbXN9asdUpbcHUsd/HupS/kTZONW38/nDEKFsbq2zOrH8CGNK/ANOugUdrlwyDxs7K7yPM8ELod74MPepwLt/eIqJLNsrQy9JE6lTX7tUnFtwvvmFZPkTnLQTIA+Ct+kiJNIc++eh8NECSUer46vr28ndVBD0hf+KTaFC6nfBAw5cf3t4tNdp2Uo7dvMvKW6eIBV528w/Lx7S3sZhrzbA0hzcN7eUbju8WcEho9TkyGhxyj2RnzLgJpxNukaEVo0Z4D1bK0A7QcGZWDlyP/FtbHJqHzv/0kel27yHb0/UdVUoLyAKM/7Pd8qLlw4Lay6OlJy+Nbc1hOVUNHVX/Sp1/8lBOB2cyANKBeprL5BaT7gS4HlilKv5Db8w9BDehYyOCWeElqmW7Rd9jmhfDKJH7frimjKHQA0ZUh1N90IElHUNM1xx0KtfQ/HAn1w+9d3qNdQAxDQDUmPS7L+QwDEM51kPEgGBM2oiA8yLpdTiIOWOh8bn8s9F2+AzmoYuMRUCuActYdUnwCAJcuhE8VPzFsnWuoMi095zywUryoFOapOWXx1AL6GOedUMubDnb7pgP9xCGMYQX3gMYN+/HeGwjmcU0ADD6l+48IdNH864oT7jDwIaA2P3If28rX7RMOJgHu2oi8fqjPXYrDdN8B3PHaFc9Gqra5xZP4uMtBMgA8FZ9JF2apSUdp4t5RKmCmLZeLGaSoh1BJNV5aXzqCDZpue1fSCfVkaAT2f9Ue+nbrgjOdAkjiucnWiTnimyKTDhjb0izQAcZLXyu0Bveic9L82XsD269/6pGoGVyJU+GHQzwjd6ajm2jdmSjPO4gQIsA3cExY7j0sPC58gugWBDnzbvSecGKwA4EZyuxsMq4yAtAL61omwnJpYwReDHyccbBZuCorAriAeTLMNlr6QLHHTK0qaLBlsBtlrPXY5hovVp4FhL+PDRxb1irwjuXOzTNyTX2TzieconFf96VpVs2NIW6oeLYWHnipXPNOh/PlXZMxOOP9SXrGzqDq+LmoYcZjwAZABlfhc4U0DmfJj2E5/wENFgnOCsxRm6Zxp1rk0UEN7dGYTEkS5iMsL/TEmaKmYHnQnU5D0xMng4f8LAwXjxtAFgae8epgTgUBax1mDj0Xlxj9f9JDm3OYSwMS5da2DiMSf+NeIdxbDS2EXI5Vz5n0gG8oskzMg2eqj0j0+jefwjQFID/6jSuRuh8FDqvuKyT/lAsutv6bNukpBeUoABs/8tYDIVqXvGkxIMZe8x3xnue6BnCHYwyVFX1DjADRomrP9txBEaXyj3hDRstF6VkEgJkAGRSbbkgK+avM7rzgvdi1MjOBVgcsUAI5MzGkLlz2Isj0Bxmxgj0qEOSEdmtUQaApllKnaaRW7B/RCFKt/BSSPOLnDWgVDoREwKIKUogZBcCaHQyuvNiOiKGp/nHuZ7RGOKj70szhAmLh4xqBoDFohiKTGrdxoCwvafOOjJw7cZfeOMU+PHca6u2TXBDDuKRvQiQAZBldQ/XqNSiI6/AZObnf5xuWeBFyWgMEQdCeuSZKuz7OFMyAKKuAdDk3ebwSHTX1zPTXf2ZUkS9cPigkkfDXV2IWyYiQAZAJtaamszH1MjTSc3e8UIkMkwBKHVOaUWQaWZBrrkhnTLYKRtHyebYyRcrD3YQjKoj8FRo79zu/CE550oGhYW9krH0p3RCwA4CCh+EHfaUx2sIoMVQcDumVxsEJnk8vRIMlj6qcxl84v2L5zMisEsgXKACJbYRRvFy8MiRyzJ84a5HDAG3D1JiSjpqjNNKfZnKJJpBBGgb4CAUWXLBEKYVrZnMD6uo/w9LyFMbFQxL/yHrTnT+L6/pqPiZN8Y87IDsFjURXQ36/K8M/io0AHGPrvGOcVPH3qHCJ1W03OTjlcrio99TLJxDhyn58mMT4XVLNoyDTK4Z0FjPks8l9+TiW+wVR2wrYUTEWY8AGQDZ9wp8IKsyms5HmjqDSgeZyJYt6LzR+Udi8O+Q7Ubg9m1r7KpapIJDNtCKOXxpjMW7orNRhqqu8z04SEf6d2Rfn1h055oBgKiE0ov44IvYK60IERIC/QjQFECWvQoYgX4gqzKmD0plaf1EpzNdGkPgUOInLJKlCzrHOSq8EbB6lAHANV3NZW7ymSoyjaTFaZLS/BCmV02XkcLQfVYiQAZAllU7Oi/5YCZMK8syuKKqW8j4Dowxe6I+TJCIUe2kmtL20xJky/rHMADmK4GgG++PpNcttntkmqN75m4ER6zh+wtH5Q/NzDEdRz9CQBEBMgAUAcw08nkTyrrgS5daxIZFUEWpOIXM65je31bRBxd1m7yc5mJ52myh5GfLa8q21neUjRohs4DWjHqTXnnPuDVPXqbhlJHDihBae3iq/TvsZ3jTfm7KSQhER4AMgOi4+DZ1xToWhnItsgoiDv4yWVo/0WE6RL4B5nypn7BwW5e6ytCJ2LInPd2ETv71aDIdXzTH3or2zE4alg9cYiefnTw9VljqNMlB3rr+wuA1XRACkgiQASAJXCaTYTX4iwryX1tXtylHgd4XpIzrChjyhXXBrhm+ACIJSoT7WK0490GWNVzrUQ2ACD+myXecXDuztqRjtqxcQ+kY418ceu/kGsbn/vlXlEsb8U7Korz+RkD6I/M3LH7XLucpWQ0xDXCq9e7hm2Xp/UJ3dmH5K5hKkVqJjfltw+zpuccvWLitBxa4fVmFZy4PvBaL3rCYvAEAplzrvTEWb7vpdcWdJ4ORtDcBBs5L6T4R066ulM/bCJAB4O36SYp0DZ2l27CfX3oOGxHI7ri6vPUMt4WrLW+de1Vx68VXB5vnuB90xV1pxVQKRmL1slwxwr26uiwk3QnEKremquuUq0pDi2orWkq/Ut46JlY+r6ZXlzTXoe4r5eVjG5/oLP0gFv286opWWcOtn+ctkfn7WAXYSDdZ751YDDrWRtaoWfDePRf1QRYnhrtN2tIuUf9kAEiA5gcSQ2d3S+uBxUt9pvncsvLWKdI8+glXXMADNSXNN6Lh32yFzbdNzXyht0fbWlsSerP6vK6pqvyTSc/GMAQmYvIH65j8KdFRuyGjMCaqi5tf493dH5oWf8nqs9r3hs336kpCqd92yMzpMjpd87kN2GCh3StDO0CDCID3DVxH+ytGzonyRKMbSIP3Jq+X991fV8eNgTQnf6vL2i6E8XeDE5qheUUwLiNv+pND0/xwnce4/HcEAEwtPMcPOKRaBzIAUo24R8pb0x5sVPECoCGc3W2aLTVlbefKqCTWEdSUhK7vOtCyBbx+A5fomUP5YIR0Ljva/WLdBZsKhqZ76bqhpfI9RId9UEGm8eioX4UBdI0MD+ElqS1rXlINY0kzuRgV/uVQPsDwlDDnr9SVtc0amp70a649WFsc+isn5dQt+DDv2KFjz0Bm6bURYm5cz5v+u0TlThw34d/gBRgVJyAR3cBzvK+Xme+Efu3UCIgYe1a4Ce+69GgVKyPuqV//mQw+z2MAxeF/Z14a/BjGjXyYJmbRwtrhkNq6IwPAFkw+zaSz5Uqace10boVfrylufqCuosXWnmax+K22tOXH4W1HdqIDexiR8WJOJaChPcc8cPi3Xp4OCGhj7kLH062A43jo+RiMgP+uKQ193g6fugWbEEsgdFttaWirZWrPA8MFcegKTdN8Fts3oxyPG4dK4ZFwb6Mlf6KmtPlXdtzlomM0j+56A0V+TqFYEaLxATud40NvzD0EzH6qUhZ0/NvwtlBzTXlrwtgYEWO3OLTc6uPr0flLR//D7oadp5xY+GsVub1Ke3xNA0eIbbmf8KqgXRnmWRGGb01xy0p8W6/gW/k7Oc7+ppK2RP0NS3Zo19QefB5uY7FietjI0ZH2GM1EGsM+fgM+tI3YvrUOMdc3a7q2jzN+WDe1CbgvxMKusxC+9LxwT085llKhz7T3Q+f4pdqylh8g9x32KFKbq76rZGd1cct/aJr1TZWSoeel6JQuhTH1PkanrwLHNktHuFfGD8DXPA7rLgo1bs0ElueZRw+fKzpZu+WhcZwbNq3VK1bwy1O3eAy1b2k39bK+66qLQ89hdLdWM/QuIxDYrfXwXkvvmW5ZbD5Ww9daYUtsiVNsixCYiQVQD/Z+BdPG/uLI7u5vAkf5aSaulfOw2QYPTCf0e5pr1mZMCe1mBjukWdZUHLs8HXV6IYzdK/DOS+/5H9AIvH9033Ozewbu/feX/Rk4TZLSC+2Qxa0H4VX8Hr4lrHHi08OmCa8i2hpUMgYRC2tLmo82dFatkuLvUyLFj86nqGSRWgEj8A/4UDD64rlqaqPBx4gdnc054IX+8Di343+QKm4j/zkvhVt8eU1Z6E+N7UFPzn2Oz7XuPtTD6qDgZ5xrN5wCEM1AazUDiF0/gKEZyTIAXj+Ww8kS33H+hQ1NLT9BxtsTZ3YvB96JPOBSA6lrNNPSwqYIQ4Ff5MVA6oBax1Ol/9d1bUVDR9kOuwx+u7b4CEaM3+CW9bhdmpj5OC+BJpG1FuhoYKcNKNX/1w0lGQtN1vUHYsrghwcifgPXFAJA4U3DLiVAcWq0Bgev3ErswHhJGO1+gMsNHWgKwA0UM5hHfXt5G16CGz2vgsUfhksP3gPv/cTxuvoYdiVG7ke9J92nEqFrug2joC9/muKPK4yMW/VZlY5d+g0dlat1Xb/X6yhAv125LFAtIlB6XVYl+Rh7RYk+ETGmX8Ja768SZcum52QAZFNtx9C1oSv4O0yg/jjGY08ki5Fk2DJv8oQwUYRoaK3s0Bm7DjgODP+i5Ep/EtYN3opRku0pmPRLHF8CuN57gfj19fXsuKMkfvZRT+dfWfEd1Nl/jXrgmQRMbehGzRMdZXCP+/s3Nj/3ZdSna6ctRkeLXw7Pz7Loz7IvlQyA7KvzqBoXV1d+FyONZ6I+9EAiFkCtKTL0r3lAlJgiYETZIFzRMTOk+QEw7OL5uZegnj1tpDiCSee3w4Dd5IhmSGaxJqKwYMI1wESaxxB2rl+izr7a2F7+luuMPcjw8T+e8zHWuCR9kaPF+Uo3tjB7EELHIpEB4BgyfxKIhnCKoS+DBf6E5zRkbJUxO7g0E1yga9orf6jr7HvAEVOO3vlhyP/W2IK8hU1vFn/kHakUJWHsHxs7quLu+7dTgtgVkGvoF8AIeMlO/pTkwXQSOv9rGzuDj6SkPI8UwgKIraG2qyaxJpxPwRbmlYkz+j8HGQD+r2PbGqKDPdrYFVwGV/Y30Bimfb4x0hAw/eamzqC0i9e28i5lFKPrho7gDxAm5jLIv98ltkpsdI2tPPmkSReIEZYSIw8RM53djvfiZ26JtLqtYu85X6pcgvq7J93TOHhvsBMkcF5jZ5X6AkW3AEoRn8a2il1MT4Gnj2vLriprvjxFanm2GDIAPFs16ROsoTP4c8PQL0RjuCtdUqDsVoyiK5o6K3+ZLhlUyhVbLHNYTjl0aFfho0bLPtSZfhlc5LemcvsY6i6JxiPr0TX9lsaO4L+oYTOaWnjBMOL+DjCrgQ4HR+dIfgrel+eNcQUVTR04tjtLf5hKewjHHSd9KsA0tW9nKcSDapMBMAgFXQxFAEen/tHIyz8bI627UtkYwu35LvZRL0UjEFSZ2x2qS7quRUx6Y07+AkwJ/D302pEqOSKeB7jHJxYWzWnorPxDqsodKAeH1VwnOrKBexf/vq4H9JKGrspfuMhzFKuGzoqnC3L4Gaizu/Hw0KgMSUjAN9ZiGNoV8MB9oX79PE94jpKgpm2Wxqzg1xDYyfHODjsF4Pvoxvv5w6KAscROfj/nIQPAz7WrqJtoiDDSugPegNMQP305trntVWQZg1wsSmMvi45/imGcJfb7o0H0xUK1+vp5vZgS+E/oNRs63oBOZVsMEJSTwXuDGB0bAWOmcI8/sm6GSoRCaXmYxXbD8LgUo7ivu/HOCAOUafpXMTo/v6GtYou0YA4IxdZOuOC/mzc+7zTRWSTNCMb+fuGlgW7BNe1VHt6N4AA8F7KKXR1NnVXfEm0C2O12gSVeRe0Y/j0Kz9yZMLTuFFOebvDNZB4UCCiTay9FssMbINyhP/rri7v+/ejunssspi1G1J/F6KFnyIogrHBsRnsNhsULAV3//ZNtFdtleWUCXf8CxocRP/5Ra3toMTfZRdgxuBg78kTgJMDh/IeOCQsNeQtWTr+g6/zZho6qVudckkPRb8Ddh7McHjYPHLkF78rNiNJykpPSoN+fNJ3fn5dTuOqx5tmfoPFO+a9/3cSdN3x2y08PHD64GL3IRcD8ImxLnSUjDHTqRb0j8BZ70dCNtSIOhwyfbKERgwGcE/GMdWzXVxBf6TZg7yzYFtMQeYq16Iw/quvG6v62LFvgS6hnGj6phDJldIbaypaZWl8A0Vvlfjm5gU9WN893xeKVk8A+1XFd+SJQzEFPVISYm0X42IoQcKYIfZqBQbzY1oNDPjgWnzH843vwwm3mhrHx5KkTNyVrXnpZ1cZpvT3hCfY1+TRnfk7vfjH6+zQluVd1pe1FYc1cBIMKhoAG/LSp6Cz7sRRR9NgB7NsXB6V8jI5D4LgfuG7lXN+Yl3vCRtExJkNChCTeBzmkwrIyzbiwsavif0bKhfMI5iMksXC7VkLfKXDxTkbEtsnoVMWOCRGffzdCSG9GGOQNnAXWNjqI7DeyrGTfLy3pOL2XhRdB5jNQFuoN+oh3n6PuGM9H2j4Yd+J934P0PTBk9mAxZusknb2aqpGnODPCOtY7WQYLbpiHxYI8Gdpk0uB7OcvU+hYB5wXwEU7DOzQF7xDeU2FYafvR9uzHt7IX/zoRm7R5iq63pgrvZOqdLN5kACQLWeJLCGQwAskwADIYDhKdEPAlArQGwJfVSkoRAoQAIUAIEALxESADID4+9JQQIAQIAUKAEPAlAmQA+LJaSSlCgBAgBAgBQiA+AmQAxMeHnhIChAAhQAgQAr5EgAwAX1YrKUUIEAKEACFACMRHgAyA+PjQU0KAECAECAFCwJcIkAHgy2olpQgBQoAQIAQIgfgIkAEQHx96SggQAoQAIUAI+BIBMgB8Wa2kFCFACBAChAAhEB8BMgDi40NPCQFCgBAgBAgBXyJABoAvq5WUIgQIAUKAECAE4iNABkB8fOgpIUAIEAKEACHgSwTIAPBltZJShAAhQAgQAoRAfATIAIiPDz0lBAgBQoAQIAR8icD/A1AqZxAigdbjAAAAAElFTkSuQmCC" parent="1" vertex="1">
          <mxGeometry x="640" y="600" width="80" height="80" as="geometry" />
        </mxCell>
        <mxCell id="Qq2jagZigyJOW5dJXsPS-19" value="" style="shape=card;whiteSpace=wrap;html=1;sketch=0;strokeColor=#FFB570;fillColor=#FFFFFF;fontColor=#000000;size=38;" parent="1" vertex="1">
          <mxGeometry x="540" y="773" width="230" height="185" as="geometry" />
        </mxCell>
        <mxCell id="Qq2jagZigyJOW5dJXsPS-22" value="" style="shape=image;html=1;verticalAlign=top;verticalLabelPosition=bottom;labelBackgroundColor=#ffffff;imageAspect=0;aspect=fixed;image=https://cdn4.iconfinder.com/data/icons/logos-and-brands-1/512/97_Docker_logo_logos-128.png;sketch=0;strokeColor=#FFB570;fillColor=#FFFFFF;fontColor=#000000;" parent="1" vertex="1">
          <mxGeometry x="568" y="748" width="50" height="50" as="geometry" />
        </mxCell>
        <mxCell id="Qq2jagZigyJOW5dJXsPS-90" value="" style="edgeStyle=orthogonalEdgeStyle;rounded=0;orthogonalLoop=1;jettySize=auto;html=1;fontColor=#009900;fillColor=#d5e8d4;strokeColor=#82b366;" parent="1" source="Qq2jagZigyJOW5dJXsPS-73" target="Qq2jagZigyJOW5dJXsPS-85" edge="1">
          <mxGeometry relative="1" as="geometry">
            <Array as="points">
              <mxPoint x="306" y="640" />
              <mxPoint x="306" y="667" />
            </Array>
          </mxGeometry>
        </mxCell>
        <mxCell id="Qq2jagZigyJOW5dJXsPS-107" value="" style="edgeStyle=orthogonalEdgeStyle;rounded=0;orthogonalLoop=1;jettySize=auto;html=1;entryX=1;entryY=0.5;entryDx=0;entryDy=0;fillColor=#d5e8d4;strokeColor=#82b366;" parent="1" source="Qq2jagZigyJOW5dJXsPS-73" target="Qq2jagZigyJOW5dJXsPS-106" edge="1">
          <mxGeometry relative="1" as="geometry" />
        </mxCell>
        <mxCell id="Qq2jagZigyJOW5dJXsPS-73" value="&lt;div style=&quot;&quot;&gt;&lt;span style=&quot;background-color: initial; font-family: monospace;&quot;&gt;DB1 tunneled to&amp;nbsp;&lt;/span&gt;&lt;b style=&quot;text-wrap: nowrap; background-color: rgb(255, 255, 255);&quot;&gt;&lt;font color=&quot;#006600&quot;&gt;localhost:12345&lt;/font&gt;&lt;/b&gt;&lt;/div&gt;&lt;div style=&quot;&quot;&gt;&lt;span style=&quot;background-color: initial; font-family: monospace;&quot;&gt;DB2 tunneled to&amp;nbsp;&lt;/span&gt;&lt;b style=&quot;text-wrap: nowrap; background-color: rgb(255, 255, 255);&quot;&gt;&lt;font color=&quot;#006600&quot;&gt;localhost:12346&lt;/font&gt;&lt;/b&gt;&lt;b style=&quot;text-wrap: nowrap; background-color: rgb(255, 255, 255);&quot;&gt;&lt;font color=&quot;#006600&quot;&gt;&lt;br&gt;&lt;/font&gt;&lt;/b&gt;&lt;/div&gt;" style="text;whiteSpace=wrap;html=1;align=left;labelBackgroundColor=none;spacingLeft=2;" parent="1" vertex="1">
          <mxGeometry x="348" y="620" width="220" height="40" as="geometry" />
        </mxCell>
        <mxCell id="Qq2jagZigyJOW5dJXsPS-74" value="&lt;b style=&quot;forced-color-adjust: none; font-family: Helvetica; font-size: 12px; font-style: normal; font-variant-ligatures: normal; font-variant-caps: normal; letter-spacing: normal; orphans: 2; text-align: left; text-indent: 0px; text-transform: none; widows: 2; word-spacing: 0px; -webkit-text-stroke-width: 0px; white-space: nowrap; text-decoration-thickness: initial; text-decoration-style: initial; text-decoration-color: initial;&quot;&gt;&lt;font style=&quot;forced-color-adjust: none;&quot;&gt;&lt;span style=&quot;&quot;&gt;&lt;font color=&quot;#006600&quot;&gt;localhost&lt;/font&gt;&lt;/span&gt;&amp;nbsp;&lt;span style=&quot;font-family: Arial, sans-serif; font-size: 14px; font-weight: 400; text-wrap: wrap;&quot;&gt;≠&lt;/span&gt;&amp;nbsp;&lt;/font&gt;&lt;/b&gt;&lt;b style=&quot;text-wrap: nowrap;&quot;&gt;&lt;font color=&quot;#000099&quot;&gt;localhost&lt;/font&gt;&lt;/b&gt;" style="text;whiteSpace=wrap;html=1;labelBackgroundColor=none;" parent="1" vertex="1">
          <mxGeometry x="209" y="885" width="129" height="34" as="geometry" />
        </mxCell>
        <mxCell id="Qq2jagZigyJOW5dJXsPS-76" value="&lt;b style=&quot;text-wrap: nowrap;&quot;&gt;&lt;font color=&quot;#000099&quot;&gt;localhost&lt;/font&gt;&lt;/b&gt;&lt;b style=&quot;text-wrap: nowrap;&quot;&gt;&amp;nbsp;&lt;span style=&quot;font-family: Arial, sans-serif; font-size: 14px; font-weight: 400; text-wrap: wrap;&quot;&gt;≠&lt;/span&gt;&amp;nbsp;&lt;/b&gt;&lt;b style=&quot;text-wrap: nowrap;&quot;&gt;&lt;font color=&quot;#99004d&quot;&gt;localhost&lt;/font&gt;&lt;/b&gt;&lt;div&gt;&lt;span style=&quot;text-wrap: nowrap;&quot;&gt;(usually)&lt;/span&gt;&lt;/div&gt;" style="text;whiteSpace=wrap;html=1;labelBackgroundColor=none;align=center;" parent="1" vertex="1">
          <mxGeometry x="476" y="904" width="129" height="34" as="geometry" />
        </mxCell>
        <mxCell id="Qq2jagZigyJOW5dJXsPS-77" value="&lt;div style=&quot;text-align: left;&quot;&gt;&lt;b&gt;Docker&lt;/b&gt;&lt;/div&gt;&lt;div style=&quot;text-align: left;&quot;&gt;IP (from WSL-Host): 172.20.1.7&lt;/div&gt;&lt;div style=&quot;text-align: left;&quot;&gt;&lt;b style=&quot;background-color: rgb(255, 255, 255);&quot;&gt;&lt;font color=&quot;#99004d&quot;&gt;localhost&lt;/font&gt;&lt;/b&gt;&lt;span style=&quot;background-color: rgb(255, 255, 255);&quot;&gt;&amp;nbsp;is part of 10.0.0.1&lt;/span&gt;&lt;br&gt;&lt;/div&gt;&lt;div style=&quot;text-align: left;&quot;&gt;&lt;span style=&quot;background-color: rgb(255, 255, 255);&quot;&gt;&lt;br&gt;&lt;/span&gt;&lt;/div&gt;&lt;div style=&quot;text-align: left;&quot;&gt;&lt;span style=&quot;background-color: rgb(255, 255, 255);&quot;&gt;Thankfully, Docker has a&lt;/span&gt;&lt;/div&gt;&lt;div style=&quot;text-align: left;&quot;&gt;&lt;span style=&quot;background-color: rgb(255, 255, 255);&quot;&gt;configuration&amp;nbsp;&lt;/span&gt;&lt;span style=&quot;background-color: rgb(255, 255, 255);&quot;&gt;setting to allow&lt;/span&gt;&lt;/div&gt;&lt;div style=&quot;text-align: left;&quot;&gt;&lt;span style=&quot;background-color: rgb(255, 255, 255);&quot;&gt;&lt;b style=&quot;color: rgb(153, 0, 77);&quot;&gt;localhost&lt;/b&gt; be same as&lt;b style=&quot;color: rgb(153, 0, 77);&quot;&gt;&amp;nbsp;&lt;/b&gt;&lt;/span&gt;&lt;b style=&quot;background-color: initial;&quot;&gt;&lt;font color=&quot;#000099&quot;&gt;localhost&lt;/font&gt;&lt;/b&gt;&lt;/div&gt;" style="text;html=1;align=center;verticalAlign=middle;resizable=0;points=[];autosize=1;strokeColor=none;fillColor=none;" parent="1" vertex="1">
          <mxGeometry x="556" y="788" width="200" height="110" as="geometry" />
        </mxCell>
        <mxCell id="Qq2jagZigyJOW5dJXsPS-80" value="&lt;font style=&quot;font-size: 20px;&quot;&gt;1&lt;/font&gt;" style="shape=step;perimeter=stepPerimeter;whiteSpace=wrap;html=1;fixedSize=1;size=10;shadow=1;shadowOffsetY=1;shadowOffsetX=2;fillColor=#fff2cc;strokeColor=#d6b656;" parent="1" vertex="1">
          <mxGeometry x="543" y="690" width="50" height="34" as="geometry" />
        </mxCell>
        <mxCell id="Qq2jagZigyJOW5dJXsPS-81" value="&lt;span style=&quot;font-size: 20px;&quot;&gt;2&lt;/span&gt;" style="shape=step;perimeter=stepPerimeter;whiteSpace=wrap;html=1;fixedSize=1;size=10;shadow=1;shadowOffsetY=1;shadowOffsetX=2;fillColor=#fff2cc;strokeColor=#d6b656;" parent="1" vertex="1">
          <mxGeometry x="10" y="652" width="50" height="34" as="geometry" />
        </mxCell>
        <mxCell id="Qq2jagZigyJOW5dJXsPS-85" value="&lt;div style=&quot;text-align: left;&quot;&gt;&lt;span style=&quot;background-color: initial;&quot;&gt;&lt;b&gt;link-teleport.ps1&lt;/b&gt;&lt;/span&gt;&lt;/div&gt;&lt;div style=&quot;text-align: left;&quot;&gt;&lt;span style=&quot;background-color: initial;&quot;&gt;&lt;b&gt;&lt;br&gt;&lt;/b&gt;&lt;/span&gt;&lt;/div&gt;&lt;div style=&quot;text-align: left;&quot;&gt;(Script to link the networks!)&lt;/div&gt;&lt;div style=&quot;text-align: left;&quot;&gt;1. Windows Firewall: open ports&lt;br&gt;&amp;nbsp; &amp;nbsp; &amp;nbsp;to be able to connect to all&lt;br&gt;&amp;nbsp; &amp;nbsp; &amp;nbsp;resources from WSL--&amp;gt;Host&lt;/div&gt;&lt;div style=&quot;text-align: left;&quot;&gt;2. Scan for Teleport Process and&lt;/div&gt;&lt;div style=&quot;text-align: left;&quot;&gt;&amp;nbsp; &amp;nbsp; ports that are active and forward&lt;/div&gt;&lt;div style=&quot;text-align: left;&quot;&gt;&amp;nbsp; &amp;nbsp; these ports to WSL&lt;/div&gt;&lt;div style=&quot;text-align: left;&quot;&gt;3. Add the script into Windows&lt;/div&gt;&lt;div style=&quot;text-align: left;&quot;&gt;&amp;nbsp; &amp;nbsp; Scheduler to listen for Teleport&lt;/div&gt;&lt;div style=&quot;text-align: left;&quot;&gt;&amp;nbsp; &amp;nbsp; connection changes&lt;/div&gt;&lt;div style=&quot;text-align: left;&quot;&gt;4. Trigger a WSL bash script,&lt;/div&gt;&lt;div style=&quot;text-align: left;&quot;&gt;&amp;nbsp; &amp;nbsp; &lt;b&gt;teleport.sh&lt;/b&gt;&lt;/div&gt;" style="text;html=1;align=center;verticalAlign=middle;resizable=0;points=[];autosize=1;strokeColor=none;fillColor=none;" parent="1" vertex="1">
          <mxGeometry x="53.599999999999994" y="658" width="210" height="210" as="geometry" />
        </mxCell>
        <mxCell id="Qq2jagZigyJOW5dJXsPS-89" value="&lt;span style=&quot;font-size: 20px;&quot;&gt;3&lt;/span&gt;" style="shape=step;perimeter=stepPerimeter;whiteSpace=wrap;html=1;fixedSize=1;size=10;shadow=1;shadowOffsetY=1;shadowOffsetX=2;fillColor=#fff2cc;strokeColor=#d6b656;" parent="1" vertex="1">
          <mxGeometry x="278" y="924" width="50" height="34" as="geometry" />
        </mxCell>
        <mxCell id="Qq2jagZigyJOW5dJXsPS-91" value="&lt;div style=&quot;text-align: left;&quot;&gt;&lt;span style=&quot;background-color: initial;&quot;&gt;&lt;b&gt;teleport.sh&lt;/b&gt;&lt;/span&gt;&lt;/div&gt;&lt;div style=&quot;text-align: left;&quot;&gt;&lt;br&gt;&lt;/div&gt;&lt;div style=&quot;text-align: left;&quot;&gt;1. Make a convenient Alias to&amp;nbsp;&lt;span style=&quot;background-color: initial;&quot;&gt;Windows&#39;s&lt;/span&gt;&lt;/div&gt;&lt;div style=&quot;text-align: left;&quot;&gt;&lt;span style=&quot;background-color: initial;&quot;&gt;&amp;nbsp; &amp;nbsp; IP address (&lt;/span&gt;&lt;span style=&quot;background-color: initial;&quot;&gt;resolves to 172.20.1.5 in WSL&lt;/span&gt;&lt;span style=&quot;background-color: initial;&quot;&gt;)&lt;/span&gt;&lt;/div&gt;&lt;div style=&quot;text-align: left;&quot;&gt;&lt;span style=&quot;background-color: initial;&quot;&gt;&amp;nbsp; &amp;nbsp; but can change at any time&lt;br&gt;&amp;nbsp; &amp;nbsp;&amp;nbsp;&lt;/span&gt;&lt;/div&gt;&lt;div style=&quot;text-align: left;&quot;&gt;&lt;span style=&quot;background-color: initial;&quot;&gt;&amp;nbsp; &amp;nbsp; Because&amp;nbsp;&lt;/span&gt;&lt;b style=&quot;background-color: initial; color: rgb(0, 102, 0);&quot;&gt;localhost &lt;/b&gt;&lt;span style=&quot;background-color: initial;&quot;&gt;is not&lt;/span&gt;&lt;/div&gt;&lt;div style=&quot;text-align: left;&quot;&gt;&lt;span style=&quot;background-color: initial;&quot;&gt;&amp;nbsp; &amp;nbsp; accessible from WSL, we make&lt;/span&gt;&lt;/div&gt;&lt;div style=&quot;text-align: left;&quot;&gt;&lt;span style=&quot;background-color: initial;&quot;&gt;&amp;nbsp; &amp;nbsp; an alias like&amp;nbsp;&lt;/span&gt;&lt;b style=&quot;background-color: initial;&quot;&gt;&lt;font color=&quot;#000099&quot;&gt;teleport&lt;/font&gt;&lt;/b&gt;&lt;span style=&quot;background-color: initial;&quot;&gt;&amp;nbsp;--&amp;gt;&amp;nbsp;&lt;/span&gt;&lt;span style=&quot;background-color: initial;&quot;&gt;172.20.1.5&lt;/span&gt;&lt;/div&gt;" style="text;html=1;align=center;verticalAlign=middle;resizable=0;points=[];autosize=1;strokeColor=none;fillColor=none;" parent="1" vertex="1">
          <mxGeometry x="316" y="929" width="270" height="140" as="geometry" />
        </mxCell>
        <mxCell id="Qq2jagZigyJOW5dJXsPS-92" value="&lt;div style=&quot;&quot;&gt;&lt;span style=&quot;font-family: monospace;&quot;&gt;DB1 tunneled to&amp;nbsp;&lt;/span&gt;&lt;b style=&quot;text-wrap: nowrap;&quot;&gt;&lt;font color=&quot;#000099&quot;&gt;teleport:12345&lt;/font&gt;&lt;/b&gt;&lt;/div&gt;&lt;div style=&quot;&quot;&gt;&lt;span style=&quot;font-family: monospace;&quot;&gt;DB2 tunneled to&amp;nbsp;&lt;/span&gt;&lt;b style=&quot;text-wrap: nowrap;&quot;&gt;&lt;font color=&quot;#000099&quot;&gt;teleport:12346&lt;/font&gt;&lt;/b&gt;&lt;b style=&quot;text-wrap: nowrap;&quot;&gt;&lt;font color=&quot;#006600&quot;&gt;&lt;br&gt;&lt;/font&gt;&lt;/b&gt;&lt;/div&gt;" style="text;whiteSpace=wrap;html=1;align=left;labelBackgroundColor=none;spacingLeft=2;" parent="1" vertex="1">
          <mxGeometry x="325" y="845.5" width="220" height="40" as="geometry" />
        </mxCell>
        <mxCell id="Qq2jagZigyJOW5dJXsPS-106" value="Connect via Workbench, etc" style="shape=image;verticalLabelPosition=bottom;verticalAlign=top;imageAspect=0;aspect=fixed;image=data:image/png,iVBORw0KGgoAAAANSUhEUgAAAWgAAAFoBAMAAACIy3zmAAAAG1BMVEUgSmomVXwjT3Pu7u4cRGH///+XpK/Kz9RmgJSjKXRXAAAfM0lEQVR42uydz1PbOheGnTRDWVqn6YWlpea23badFJaFeoBtx5OkS25/smw/JsASSin9sz9LR0eSExdkW05y70S0hCS29ejVq2NJlpNohCl7helf8TRaQ6+h19Br6DX0GnoNvYZeQ/8XofXjUL/+r3i6hl5Dr6HX0GvoNfQaeg29hv5PQq8HAWvowNBBU5YtAvrVq/Pzs7MveTrD9KVOOjs7/3ou06k8atYW9HCU7Zyd/GYMRCIEzx+6mIRKSdTtJiKKol4vlenNm0il/Kn6KxGF1O1G+R7yOGz715fzdqCHo50vVxB1Ey4EALD8HwPG83/2sUoC+YvnSTARdfn2l9Pg0DnyCcu1Yi0lnkTs12lY6FF2AlFrxJhE1Pk1DAk9uUo4az9F26ejYNCvocsWkpLO7TAQ9OuYs0Wlzu0oCPQimRkgdVPohTLn1F1J3RB6slhmqfXHrOGs6eTHgpkl9bTZICD7p8sWnuBpM+hdwZaQktusAfTCDU0G+ZzVh/6nw5aS4OmwNvRYsCWl5DqrC33JlwXNNqc1od93l8as22IN6CUKzYBPa0EvU+iceiurA71MofP0fFgDerxUoTGAVIb+sFyhGTyvrvREsCUn+FwZ+kVn6dDPsoqzptklW3rqDCsOAsad5UPDTTXo0Xe+AtAbFZVeAXfkaVgJehXcwVh8XQn6BV8JpZ9mVaBXwx2sU0Xp5Z9ZzPnFH/p9Z0WgtzJ/6P+thqWNqb2gV8TSjHF/e6yKpY2pfaBXxdImUvtAv+Aro/Rh5gt9XLJ3EkXdJZRl03vWFOb2Fd3tXydXcbRws/Oh5yBgh5fMGcs3d04gWrDa8WdP6Pl2mFzTZa6TZLHjXbjxhJ5rh/DUXn9/fbVQsWHLE3puAIDFNddBk0VS/+UJfVzeGkw6ixcYxzc9oX/M7rgxs0RjoRe8hl7QO7MRD57MLiwZL44apn7Qs0DxzWh51PDZC/p1537o0e6iYojK/H7oXV4a4GfSyYKo42sv6Asv6NHFYk7qKlDfDz0fphH69e/fX13qnd8QRa2D14XuK+hskKbp82kB++zkqvUVN0+9oD+Ud1rGag3Y/scZl7TeidrwmjU9Lm3Ao/E+iKiXprdzqwEvWl1489xrEHBZDq0GjlBGPdppsxO1eeoBPT/3CI+dIXqUptfzSy9b7ERxL+gf8wM1dzIkSdPPZQGwNWof6Mn8YOugMEZP0r3pPHVrnSheE/qNarYZvZGkR8MFUn+sBz1APxwTVS/dGi2MGnyg54e1rP+gOIcDZSEk70QlS4Mez0PDEW4TM4e6xCEXbcTruC50Op25epSf0vkvuXb7/NSlbmOZFlx7QL8uGQAOHmHX3zIlKaVtpxeVtbAIoDZ0H/1hm2JO3TPYt62OaGpDM+0PdxpHzu7ptfR/OY0xuEHgti5078lMU3QOmvvbiYAfOkuAznbLciV/lF7Ijd3uyCS0rcug5/rTu2WZgu5vlC96K3RHQhskvh7ePwi4KFVqcHjX1ZhCdyTwCkTwgS5VmvXfINW7zh+oD8zJZhKvitIsxU617ZkkhSsDbnckrEGgAfSAQjUJsP37ypmIzIc0tjEGbYtNlKamSP7YzO1ydtl1Qoi1ddA1qvCoPjTrHbrXGNXETyG+DZxe9veQbbEJdLw3dOKHmOrTtmMga+uQbbGR0pDeOENFmmd3NAUnWodca9YEmvXdoaKeKitckQZr64DLiRopzWIM1YgZPyxZzjJIN1oIe42gWe/GYgJ1SL8VtrBxL1jYa6Y0Gxw4mGTgQhfKMUi4hczNoPWoCy8z9lM827zjxQ7fQWipYasRNMP4oZe/JSh1ETq39XVoqUug5/rTd6yb6B+6AQPPNu/5TG0YgwSSGrY8BgF3QMd7bsDoq7PNjNK5QTYCS90QmqEjjt1nc5sPzCkmjNRNlWaDJ+7Cm8GD2ZCHBqE+SCCpm0LHB+6YPD4qHcr000chpW6sNChTTzo2moz3Sk5CepQTaAGXD/SdK6cHU3fOd7D39WenLJ4fBOyB+Ch993LvwU1h9JKmaelW1BaDdPYaK91/W1gC10v3y6MMSR2vgtJwUJyo/kN8MFKHGMI0Vprt+S3r7B0FW9PcXGnWm3otoO3rYU6I+5KaK91XMN+4r9TN7wALoDRefrk/AMfk6ssVUBqvKXpYtacDyG6nBaXn+tN3Q+trRvfr19dSl1zha96fnoXeuUdpbIn3m5omdxov1fcaudwDjRdCPXoVNM/auCkGgO7/7Rt/qbN32b7S99kjPvQloXnWph2QAEqzI9+76CBMUwzhaX11zqer3Hs7d/VxSdFDnxMzD/nioxBjgSBKY++07GaHP/mjYQc1BPTMOps7m+LbAKE6RPRggOtsJh7htx/EH0GU1utsfMKvvqTeyB8QBvrQ+9bh3uMA/ghhD+oz+dyGqy8eNPJHGKV1UPAJetr/o1EcVumq/Wnpj4e+QY/838QfAUYudrrUq09BQa+JPwKMXOYm13387+WldpWmUSv4Bz0vL7WrtL4O6mXqm6b+CKW0Hkr53CDaP2w8axNIad1/e8n8TV1//BJMaUTx8imZuv5nb4RSGnt6XuKRqWt/jkUwpdkzuYuXTcnU9YNeKKXVXQJlVy5KNt0bNQt6wZRWt+t4RjEy9Tu+7OghQV76UfQfNzN1MKXVuppPfpk2NnUopTerRN6Gpg4wa4pJ3gSW+c7RkanrfsJCkJGL/AAt7+DR3NRhRi5yhU6VLpDpfkBrSntB3/gHD8fUl60p7WMPddvcJ+9sydQ1x1yBlFZ3VfrrRqau16cO5en+tFLYJVPXbImh7JFDT/b8s91rcnoJpbQ8IY4rQJOpL5fpaQldxaB93af+xpcYPXjF8xvdBVHvnBhI6c2q8avJlK+vp+W3b3Bg9MPxx/65qVaJlbzBCy/pvcHcZScXP3GY2Wp2Y/UCNzlDw+gBrtLm3MLpwe7H/zBQzKAkfvBASuui2lLLf+rgqMCGigQcldGS6HfVBkzvqH7kC317a4+W0FQPo29WAToKPpqMwW/WFKyu3JGYK51kZgeYv84RKcFspV7gpL6iptmPY11GOiif+SIY+f0uiti+Bt4jF/PdMgwlMMfGAm2oiTyuy4FtAOlVbuAojfhk6pdyB/r2GqO0qkegwuijgRHfb+SiBUUprOC6JPnvAzy7WUIkAaoP61yOBSZT6/sJgNmqkAeh+qTWR35Dm3gqTRlzrmVRFQc6Py4HLvm4heqRLIAFMk7S7QBBdKQe75MY3NmY62114XV16mwZ91Maaw130s2RG4Xy/+IhXpHjKmsAzM58axGFCNOW7ZReBlYFdJNuQJyZwitrgcnWV2n1tUk6ey2AbiL4CiA0eoUlnUQJy21dg0ra5upgZOqfuhY5lQ3cIwOFFdteuFdDRKUx2pDSFDewUgGhNafYPP3e4VQC0PhY4QSYvzugO3vA1B2WTLdfTjVDzVJvxJm/0jpygjEfx5rEAj1UnTx8K7kZTYRGpciOhcYfTalNnbdEzklEpqW0u+AhXKWhstKAStuoZ5Ue7+FbYhPXRujWC/QHo4iFZaVInZfPKE01oY1hM3OUhiqephOSozTFA1dpzvvXSj9Si0HBtEBF5sbUnDvlI/cAmYkXlVYvVFNaJ3OS1e7mMk5P9vEtdbfcJNZbUubYDo2c8pk29YsOt4fU4QPLoU/utLtRSvjGaZ20svoJUJvkGxJa1aau9WNuWM2ZjAu9ByqgryhOIuIiE7i7mhc4vQnMV2njBW61tjWISnfx9WfYvvYNg93NOT3Ll3T345NhJSpu1aCAwt3C+HralcwaRT0X2h5d5lT6RHCqXFtHYOFkLdMnE+wzbiKyLR7QGaV4jGrRw62xQr3Jg6u+h0rJ1Ohn8y/soU6ZkoD61HlTFOZo7mbMVix3jiD8Zk2FwLy5PS0Ko5rMUNZ0rF7o0J2eXQ6GW4ALlT9VqtFAcXdfiiLIanZj/Q2GpmnqA8ReIxeJLDOSB8ZHxaIe5FE4P8LYJQDonri8J6Q31pvjPvJFWUohX6QpvZ9dpbSgA9PGsihCHUAUDuA1chEATsAoSx1tCC6emRv5hNPwC7tS7XNaUT2OVMnM1sIqTU2xcAA/aH5f6uZbf5JSxI8J+psw4mgXWyb9nJZRjL7vizkdaFuzi60zT3sUDyUKFLIeBkM5CJEc5vblPOih98lMuKXDDbS2cJRddq3pCpRzJRXeSltg+lPQL3xD3lf0Lg/UIjE35WeJ3doBddUHc/vcuN81hwVrbRCze6iNvKC7eRsRpq6EPjQ2DnwqBVZNr2M/1+iTsABCgBFaaY+tevDAfM7UQFhNC1tR5eo6434Nced7Fxlx19nfEonLubnJfv6sYz/25UWXcpKtiCO3MNlLyxt/jEYXPSFfE4BvamABuKnZST34KS3cXdxKJKWTv+UCwfzPTedzgfYdQCyywJBtRATn81YueloX8i5mVKgeXQY/aDCsVLPKL8Ie7FAFamHCtFrFZpU2//9P3NU0SZEbUaFQLD5utMfgo1rRgX3FE3g4aioU7FwdEz3DEZbx4iMMH8PRuwwLP9uS3suUqrsZ1F4CaujuKpWUevnyZVb1B1WFRPheSVh1/TPXBWPArhbXPEiJqqh/HAQtc0vsQIJCXvpHKHIs02f1+XXH9JIodXLE3qfumnXvEvYvJSyNaXgZILJBTQszC7EkABT1MUTMMn3xAUWveaWOLoRm/Es/rddzXXduCtMLyUF6M8g0hwZ6DH2HhRAQgntQy4fHORB+nHlu6ojAyQO5qh7QytJN/eUBC9dB9BCCzlW3iiVMNpiIMFSYCgSwwNwwjJqXMxFl+jThx5nXAfGtw5eUZwHDQBUDM6rXTyNTBWcbHLHAaIQ4LPxgncaIOlgAwAYzMqz+Uiszfyk74Rdv9+2CMwZCl2MGtstj4/qRGXWgbRAiRxdgh76G/oe+5Rzi/RJs4YEQ1p/YP063eQTHWefZJEwvCJvLQiCXVJxdifH0v9NSaF0sGJlFkNM8rI+8CXhnOYfqbKGQyfSilo/TX/lRqA046zwQfpZ8nTNd21L6W0/1+YGtUJfqHjOYGgvLoTe2lWkIcBlUZ8tmuG4edxO/DjxqvLBkGUe7xjRzrdj7ceNKjA+jeLmcBYcpkR9+FHTokiLQAfGj7ukL7kWuJriWwxRmtDUzoTWvUvq9V8jPU3e796UUrE4og0wve5pAkFpg46q7+HeuGqtjnOm12RaMVLdB2C6lP73pBSKxCHP3KJE9mF5KWBcbZnBYDq6VrgLVo35c8Ji9OX/nbj6dTSnFj71AZDItq6IoPMbl0eZe9pgXEoWT7kwp74YT/5o0yKIoIVoPUcuKOt1rZF/bTv6dnLjuR+WxnBO12FBHobZ7z1KUWo8v52Ye5p71TnFhlSVyoheyPothJkhstRDtwfSOmtEDcHrvgNe1Py7ydh2+tCzoc3+9yyd2lvMbyxDTD20YWJzq46Bu47I796fdXu4Y36E+c+EzgMNeifjlRT8QmDq95Eh/jtwtiaR2vcsX0w0TfUWmg1yj4UJA/zSmjy4tFPXR6qaOX5FpXqPhLOl2qQeXdhx1PnuS6x9dTp/PgK/JtE/HOf/Pr6Nu3/6cPm5C/e92hPkj8hhkOqdS/PTpIClHrv6XneuwH2qe9L2c9gK9fcUrO67JvHRO/HlffRQbP3yJ6qE3AaOggbqnbXqwrz6Kjfc3qvprg84zGjNLzbt76yPHB5f1Ol/9EdBHBO27cVYaWqPt96NDqJcyuj9py9x73fIbqB9t1mrfdbbDTGdE5dStvNr6V1cBxHNDcddOdWNVCkh+U44WtloMxYhNyzg0vudhkc1e4HL0sDyas7YjzG4Q5WWDUXClVl+wl2V/yyF0u7dcbqVx69NznPBdaHNF6/fUtJXZSJmnlUwCsZQNWymrwC0fqxLqx5OGggxb+sB1Bs7k0+rlp+evupM9r/0lhH6M6aLpgsorsTbM1GjVqqBuCnb5YHF6oEHwHO+7Phzu3fTXX2YXked5tVc1cjF7VY9iHp4Xgq3F1JzX0i0PpqnbVTnZeyHKLP+8OGdFMbWnT39/tXnB/seRYFuueD+q6cl7Jp4F4JbIhG1tUMCh6TaPKVmFONe9hI0IVU0xD9yd7dsM5AOMZa56lZMf1PREDVpNeixgzlOUlrrArvrwLLsHJBQhAXr6znLkfthxa4QcIq0vdQawZMaZRmx0OlBmLSSDHUCqxQOhSfkU9XKytZcnZEYG3lVc05td95d6PHVMezE5yLQUjKB1BJKwgi2wfFf1ABy17svl1as+qGvCbjAqG7fXu0GzUFkR4R5MkxFl11ISYF0csN5rBQzUYe5acvHaswBpf3RjatvVh52gX1jWUa8078G0RBE6CIKgIZFMDeKAZIAvp5t3L6lwoTkwtTxrn9mpjncpBAlvl8Jm5FPThxMqDWnNrkKerCn8h4c0q4QL7pR+E0HXyiiZir15h7m1A/LR05TKIFO6MPWrkbF3LhNFYYsFHP/VCMx49UqaFVR+yke6tqtC90xt6bQF+vDtr+WeXmKfBQdTmTHQnM0LQUZYbUuHODR8Houbu9ht0FnXyeP06pdPv+H9RDeDQs4JMAqa9aDC9VLemkgEXVtr81VvtWMfiNYxfWi3PV3JvUomowFsPYuYBkFzlLVzcoMEXNTdqcI3zbDM2Jnufa+p9n3itUCO0cgQJo36OS4P1niinUm4CqbjMTQnpbNoqnVu4S7P+vH2hWAWr81GpoyCLmmUB9fxAsdUSKaPnFGgvdBz4rCz9t7ROclPP87SFI0pPnVC0s6mNLox0D2EmXp3MO23ltAKzOaifdwkJfclKVKcs4Hj8oh+i8MdtO5qsj3BO5bWJ8mHrqfX8QYLdWsfpvdazE5sn1/csVB9tvqS6X2YHkVhdL/pYtw5ssVeWVeq89H7ZuOrUdAlD+vUBn/YMuWvTllSxGCbOVfTRvpiKLqJDwaDLAfolZPX6yex2vIzy+hpgvGj8qgWTFdCOCUQALfx/Xbtbjltczh3g2fkF9Zqh/Yt+flB9HCnWaahin6QaQA0vpHtaY7QwAe2lSP04pMXrYDYCggDDTq67lubRC+DWpbO+dl9HGZ6zplXE+JP5Ub9YlEVLVsqwYgfZHpmLbUvyF5Go7x6si4jrBu6G1QkaY24zgHy3bbZakw9rFjby0QPUpqZ1We0dbecKHWv84mr3HBDd86JBa9y1nHsW1ZKGiLy3QFQvFVwFr2gbtIJRKl9V33mdCfNyyyZ6RHQbyvTRgaaViYa/VZnpj+1v6Q9nNZMBhbRqpQcY1K75UQWSLVHs3zB8EHQUCEm6Fj1nRfwCkyD1joZgkE113vNSW/ISnytbS7NBILgGCWcwTGjTBvM53WgWoF2maiAbNHEfDN9GqJwYFuIN1oEy4d5TSAJiMm0eGqG5UGmK2NELkxDIfCkxlx07ekpUbEZ4w19oyNGbJUvm/sKAsDdYayOcs8GQP8zGs4PZWCD9ZfBh+BAHDYRV8UPAXlhGnKy6hPJ7L7/hEDEVWBGfIZAvzUMJXJLFEF5gleUEWpcctPYOdMGi2/us7NRQaXUH2Ja8Doexpi+WomkOatlaRA8goYr4pD2150qYkXvuyHlKQuk3WLsItqur9V5nq2HQNOkMmfmMDcQ+m631yPSrNFYHW1nzqXUfj527mZUGwnXqxHQBxJgfRU52A5jO8+QE6YZGmu0fBtNW11Tz8qPEe51xbr1UAzTCOija46zs/ibVptnRM747vXYOJPCsakgA4HoTyjODzZmqy/HQ0xfz0Thjabklk6s0czSYHYVxyjYbrQcmsSp1L7WX9+PM4PoeWuQ6U4Em7KdpUpbn9XonWHYdtqqrKWEnB7MDdblZAj0hfmmSxGIHBkv4/b+k8P1Fz81XR8+id8eNQtfLSAby6OR+40fXn5j0FUgJ/wGdGtu98PQ7ehffmvQQP0AX8ttgb43xPS7bw66oq4n16erLdB3h5h+++1BO0W9VQXcxzHQyXwf1OWM7x/x/wN9tDLfCfX7HaKOzw8HQK+vrs33Qv1sfb4Z5uMx0EffBXSsn62/Od2s1CdXY6D16NJCtd1ituJoOJ8ze3QueyJ218J35dDZ7Qv6ZXSm/MvDY37FWn7OD8M9ZbU2RfZ1AFJ3lpc6CGPKPnaWvrF1JupIgaSIzsa52iHdGwOthdrps/rtdhO3szV2o+JnO8dms6IuYLvd7s6rIdCnb4WQxrJyRsIbYRGMxBi11ZFdo0EwhiFrVOsKJomCOtJHhiJ9HAR9dTAjNu7kNOK127mRQrExLS6YHZ0dDcLplAx1xR3T81HQ1yI/YdoJf0KTU1CxNkpYXOtMpsWOyDSig+nk7VSH1Qx8zGtl/8nzw8OBT03ze5efabNaj1HIik4IjsikusIUxB+5R+pByrBTn+oOZ8wsDWG5SllzFyPKoEevHqwH3gRk0P+JUYMaDQxKQsaInRLAHahjBKnVPUFKpqsFI9wKUOkLgthe+915tR4DffSWieU4jZArZtHMiuegEGlpWNENT1rWBLIjt7TKREYz20u/nIfDoA8Y+mqNduQBqqFiiTemJXLB6tqhgzJWmaht2ECaOAkAHStd8kF8GPQTJIcoFscZgU3wpnEvyRQjlcoahqRzjWNlUMSAaBm11DFdI3hy9WAQ9OHV0wTCovCcXCcQ19aMqCNvJVYL5zBKKnDtBab/164ZrDaSA2HYDDrMcWcJQ47LMG9gTF8roVhyN36A3UO77w3de5wsofFjr6T6q1RKbMfteBkYWo6dlrosffqrVFIcw6IgyjIN2GqDdhCgO3+dAf1P0D5WZe8N1ojZZJUArpKSfwI+1/RKdbA+ZHZwCtKVblEI6Yugm/aFkHJVSB1lRf4iVDm8yuY4oWg30g9iXjfSMilSgcwyd/KwnwEdg1oklleyDKHbS7D4sM1Fm52EprPO1U5YlQ/LrF2Puf6nRMdF0DFTs/WFwKh86zq3MKzcQXY0sbPgyi0CjfkSISVSiosDT7Og2zuLypXFZtCzDZm3dVcu+/fKFpcqbSlQU0VxiBcajvWTftRvV18EneKD2Ecq+Mj2E3KxR8FBkXkEPlj5PFRi2E+Z6nmp6dN+PQc6xodJgbIqm4ZkNw4lqxIdMebamM4Zh4DusrFw87TfzIBej8MLexcTkatnntWqVFarKt6vMlaLOElcPrb9LOhm+JvOFI6Dpa+lWV3GnW/sJ2cegDF/tu/fv/upqXx8OXQOwXddrzC9Du+UGcbEMIi5Y11TnfkjAF+m/MF1eBwVEQrxG71OGMvLiY5cOEUbfmr7mdDN0EU3UvrJ/kxX8ZkeuVF+CwWGlSepgRk5Y7U2m2AXpQ29xGXYb+dCx61c+rFRMExQuFBQWOl1aPIwVF0V3iRIabaZy62HdtzMhI7nj7/YXOdjwZZRYbD7zs3e7RVUeXHGpoD1yV/jzjIbemjv2OQLdUQ6X3OBQp3qdxS7Cu1VKBGHWvOHNu4sc6HjVh4PIFTCOad8lljQgQpyFR6MBeAcQPL2EtE+nO2OdJ5WThJ6Mx86LsWXmDEFTJgFm1G1OJe1mp4utBOFW4MB7wpU1jfeL7PUhYu3ZKGvgI5So1smjCYDolq1ufHkUSUPZjipLFHYwDiwvUm6ndp0wJsNnaL6RyJk9BmC5jHIx1CfMY8KA8wMj4fsB3kJMtUAXiTVIB3IiE9Z6Gugo9R37MKCwIPxCaMJMMZHxMsUQCZK63TxK2h3iDybdr417fOxYz50krpjxvCIBFleWC/i1+yHQqAzk7VAldLqB51tcZpVEz/fi9DXQMcE0v4rEmiKE41FPVU/E+t8OICK1EwcTm6dSo/qKcacEYnp53MrQl8FHQMkhrUvqrRQFbyg3pdGN5Wg4gYNZrBBb4a4YE7XD3EVrnfXQsdjdQ5rS/+sSgsyxJSoxeoq/jelEV1YgmUpcFEaWUn+FzC1epA+BX38PL2xw17bfXdCBxYwUbSOC+goA+OQBWZSQAtoLiGjSmieSsz9OardeehdDJDpECyDAhsDqpgqEVI2ERt/YHU/lLX1jIlrtJjSSWc7R18HnQKkPXz3YY3Ux4yBS7hjRlrDBiL4iIJyUz0WqG5OzP3mY9BC/Ruz9k8uAlxTsIGJS4LhihKxa0uRyzS038fInDLHB6GbRN09V1J7Di/dKxO9RE0dU72zbnrKzOvdR6Fz3ptU7NOFitAn2N8tj4dpEuYPQ6/7pHXbeexALk7pDBMih143kp5CLFD40/2UdB7Xm1tAR62j2LEcnv/g/6l8+nKYWo2Nm0DH1Qjs7nB4/v2b/Bv7NoVW377cHxLx5JhvAp2wE/TUdV1M3HGAw3S4SelaKZE4hsZ4HmMedMxBTTPupXsdR8bKXpXS5cd04u4RY7RJGcaxX98WerdJag9tVbqjINPxu8eMUdlHjRPy+tbQ8sduLMMw7IdxPwxZ+SE+9mNuGNs9EHJNKoOvvjFO1VSafhwvxZgHnT9YaLImfRwmPkctTZ/HldKPudYcr742lrPRdg7GPGhbl9sNTgfNum9SFe1yONvkH2vZGFWTqlt7q9ju1heP+86nppdVt2+qm1hKdZPWglW3ydzdzfevGvdD0D+rukAv0Av0Ar1AL9AL9AK9QL8Hfc15+mdXF+gFeoFeoBfoBXqBXqAX6F8R+j/9QOsZqGdRNQAAAABJRU5ErkJggg==" parent="1" vertex="1">
          <mxGeometry x="365.66" y="661" width="44" height="44" as="geometry" />
        </mxCell>
        <mxCell id="XPV4XxfQvDjBIPiuTtmA-1" value="" style="shape=image;verticalLabelPosition=bottom;labelBackgroundColor=default;verticalAlign=top;aspect=fixed;imageAspect=0;image=https://www.sciencealert.com/images/articles/processed/pepe_silvia_conspiracy_illusory_patterns_always_sunny_600.jpg;" parent="1" vertex="1">
          <mxGeometry x="130" y="1100" width="600" height="243" as="geometry" />
        </mxCell>
        <mxCell id="XPV4XxfQvDjBIPiuTtmA-5" value="" style="edgeStyle=orthogonalEdgeStyle;rounded=0;orthogonalLoop=1;jettySize=auto;html=1;shape=flexArrow;strokeColor=#6c8ebf;fillColor=#dae8fc;startArrow=block;width=26.666666666666664;endSize=7.633333333333334;entryX=0.5;entryY=0;entryDx=0;entryDy=0;startWidth=20.634920634920636;startSize=7.633333333333334;startFill=0;endArrow=none;endFill=0;" parent="1" edge="1">
          <mxGeometry relative="1" as="geometry">
            <mxPoint x="323" y="868" as="sourcePoint" />
            <mxPoint x="158" y="868" as="targetPoint" />
            <Array as="points">
              <mxPoint x="243" y="868" />
              <mxPoint x="243" y="868" />
            </Array>
          </mxGeometry>
        </mxCell>
        <mxCell id="RJQ237-1dgQ_64CpLztJ-2" value="&lt;div style=&quot;&quot;&gt;&lt;span style=&quot;font-family: monospace;&quot;&gt;tunnel&amp;nbsp;&lt;/span&gt;&lt;b style=&quot;text-wrap: nowrap;&quot;&gt;&lt;font color=&quot;#006600&quot;&gt;12345,&amp;nbsp;&lt;/font&gt;&lt;/b&gt;&lt;b style=&quot;text-wrap: nowrap;&quot;&gt;&lt;font color=&quot;#006600&quot;&gt;12346&lt;/font&gt;&lt;/b&gt;&lt;/div&gt;" style="text;whiteSpace=wrap;html=1;align=left;labelBackgroundColor=none;spacingLeft=2;fillColor=none;" vertex="1" parent="1">
          <mxGeometry x="166" y="853.5" width="134" height="27" as="geometry" />
        </mxCell>
      </root>
    </mxGraphModel>
  </diagram>
</mxfile>
